<?xml version="1.0" encoding="utf-8"?>
<!-- Generator: Adobe Illustrator 15.1.0, SVG Export Plug-In  -->
<!DOCTYPE svg PUBLIC "-//W3C//DTD SVG 1.1//EN" "http://www.w3.org/Graphics/SVG/1.1/DTD/svg11.dtd" [
	<!ENTITY ns_flows "http://ns.adobe.com/Flows/1.0/">
]>
<svg version="1.1"
	 xmlns="http://www.w3.org/2000/svg" xmlns:xlink="http://www.w3.org/1999/xlink" xmlns:a="http://ns.adobe.com/AdobeSVGViewerExtensions/3.0/"
	 x="0px" y="0px" width="900px" height="900px" viewBox="-85.107 -28.745 900 900"
	 overflow="visible" enable-background="new -85.107 -28.745 900 900" xml:space="preserve">
<defs>
</defs>
<path fill="#FFFFFF" d="M743.353,210.096H12.432C5.565,210.096,0,215.662,0,222.524v119.338c0,6.866,5.565,12.431,12.432,12.431
	h32.335L85.793,836.82c0.275,3.22,2.964,5.689,6.196,5.689h566.835c3.206,0,5.885-2.438,6.189-5.625l28.116-295.851l0.023-0.246
	l-288.147-177.75c-7.942,4.711-17.209,7.426-27.114,7.426c-29.404,0-53.237-23.838-53.237-53.241
	c0-29.399,23.833-53.233,53.237-53.233c27.711,0,50.466,21.172,52.994,48.219L699.11,478.09l11.766-123.796h32.478
	c6.867,0,12.43-5.565,12.43-12.431h0.003V222.524C755.786,215.662,750.22,210.096,743.353,210.096z"/>
<path fill="#FFFFFF" d="M657.887,191.104L514.609,99.075l-88.349,86.021c-3.208,3.125-8.645,4.999-14.457,4.999
	c-0.046,0-0.088,0-0.13,0c-5.871-0.03-11.316-1.961-14.478-5.139L245.165,31.988L96.026,193.474L46.78,194.45L230.282,5.244
	c3.142-3.245,8.652-5.223,14.601-5.243c5.907-0.044,11.497,1.921,14.698,5.137l152.458,153.386l85.344-83.095
	c2.871-2.79,7.534-4.606,12.713-4.942c5.19-0.341,10.317,0.839,13.994,3.203l184.918,118.776L657.887,191.104z"/>
</svg>
