<?xml version="1.0" encoding="utf-8"?>
<!-- Generator: Adobe Illustrator 15.1.0, SVG Export Plug-In  -->
<!DOCTYPE svg PUBLIC "-//W3C//DTD SVG 1.1//EN" "http://www.w3.org/Graphics/SVG/1.1/DTD/svg11.dtd" [
	<!ENTITY ns_flows "http://ns.adobe.com/Flows/1.0/">
]>
<svg version="1.1"
	 xmlns="http://www.w3.org/2000/svg" xmlns:xlink="http://www.w3.org/1999/xlink" xmlns:a="http://ns.adobe.com/AdobeSVGViewerExtensions/3.0/"
	 x="0px" y="0px" width="900px" height="900px" viewBox="-82 -18 900 900"
	 overflow="visible" enable-background="new -82 -18 900 900" xml:space="preserve">
<defs>
</defs>
<path fill="#345481" d="M770.942,348.719c0,7.004-5.676,12.679-12.684,12.679H12.679c-7,0-12.679-5.675-12.679-12.679V226.99
	c0-7,5.679-12.677,12.679-12.677H758.26c7.008,0,12.684,5.677,12.684,12.677L770.942,348.719L770.942,348.719z"/>
<path fill="#345481" d="M672.04,859.409H93.832c-3.293,0-6.038-2.521-6.317-5.803l-43.11-507.044
	c-0.15-1.769,0.448-3.519,1.648-4.826s2.894-2.051,4.669-2.051h669.503c1.786,0,3.489,0.753,4.69,2.074
	c1.201,1.321,1.79,3.087,1.621,4.865l-13.413,141.135L705.625,497l-5.875,21l0.125,22.125l7.155,11.762l-28.679,301.781
	C678.042,856.923,675.31,859.409,672.04,859.409z M99.656,846.729h566.619l46.98-494.365H57.624L99.656,846.729z"/>
<polygon fill="#345481" points="672.04,853.069 93.832,853.069 50.722,346.024 720.226,346.024 "/>
<circle fill="#FFFFFF" cx="385.471" cy="323.589" r="54.304"/>
<path fill="#FFFFFF" d="M707.052,551.738L373.037,345.586c-11.247-6.965-16.709-18.498-12.206-25.766l14.257-23.025
	c4.504-7.27,17.271-7.516,28.511-0.545L713.11,487.794L707.052,551.738z"/>
<path fill="#FFFFFF" d="M671.08,194.938l-146.151-93.874l-90.121,87.746c-3.272,3.186-8.816,5.099-14.745,5.099
	c-0.047,0-0.088,0-0.135,0c-5.985-0.031-11.541-2.001-14.766-5.241L250.08,32.63L97.95,197.357l-50.233,0.995l187.183-193
	c3.204-3.312,8.828-5.329,14.895-5.352c6.023-0.042,11.727,1.96,14.992,5.241l155.517,156.463l87.056-84.761
	c2.927-2.847,7.685-4.699,12.966-5.041c5.294-0.35,10.523,0.853,14.277,3.266l188.626,121.159L671.08,194.938z"/>
</svg>
