<?xml version="1.0" encoding="utf-8"?>
<!-- Generator: Adobe Illustrator 15.1.0, SVG Export Plug-In  -->
<!DOCTYPE svg PUBLIC "-//W3C//DTD SVG 1.1//EN" "http://www.w3.org/Graphics/SVG/1.1/DTD/svg11.dtd" [
	<!ENTITY ns_flows "http://ns.adobe.com/Flows/1.0/">
]>
<svg version="1.1"
	 xmlns="http://www.w3.org/2000/svg" xmlns:xlink="http://www.w3.org/1999/xlink" xmlns:a="http://ns.adobe.com/AdobeSVGViewerExtensions/3.0/"
	 x="0px" y="0px" width="900px" height="900px" viewBox="-82 -232.312 900 900"
	 overflow="visible" enable-background="new -82 -232.312 900 900" xml:space="preserve">
<defs>
</defs>
<path fill="#345481" d="M770.942,134.407c0,7.004-5.676,12.679-12.684,12.679H12.679c-7,0-12.679-5.675-12.679-12.679V12.677
	C0,5.677,5.679,0,12.679,0H758.26c7.008,0,12.684,5.677,12.684,12.677L770.942,134.407L770.942,134.407z"/>
<path fill="#345481" d="M672.04,645.096H93.832c-3.293,0-6.038-2.521-6.317-5.803l-43.11-507.044
	c-0.15-1.769,0.448-3.519,1.648-4.826s2.894-2.051,4.669-2.051h669.503c1.786,0,3.489,0.753,4.69,2.074
	c1.201,1.321,1.79,3.087,1.621,4.865l-13.413,141.135l-7.499,9.241l-5.875,21l0.125,22.125l7.155,11.762l-28.679,301.781
	C678.042,642.611,675.31,645.096,672.04,645.096z M99.656,632.417h566.619l46.98-494.365H57.624L99.656,632.417z"/>
<polygon fill="#345481" points="672.04,638.756 93.832,638.756 50.722,131.712 720.226,131.712 "/>
<circle fill="#FFFFFF" cx="385.471" cy="109.276" r="54.304"/>
<path fill="#FFFFFF" d="M707.052,337.425L373.037,131.274c-11.247-6.965-16.709-18.498-12.206-25.766l14.257-23.025
	c4.504-7.27,17.271-7.516,28.511-0.545L713.11,273.482L707.052,337.425z"/>
</svg>
