<?xml version="1.0" encoding="utf-8"?>
<!-- Generator: Adobe Illustrator 15.1.0, SVG Export Plug-In  -->
<!DOCTYPE svg PUBLIC "-//W3C//DTD SVG 1.1//EN" "http://www.w3.org/Graphics/SVG/1.1/DTD/svg11.dtd" [
	<!ENTITY ns_flows "http://ns.adobe.com/Flows/1.0/">
]>
<svg version="1.1"
	 xmlns="http://www.w3.org/2000/svg" xmlns:xlink="http://www.w3.org/1999/xlink" xmlns:a="http://ns.adobe.com/AdobeSVGViewerExtensions/3.0/"
	 x="0px" y="0px" width="819px" height="869px" viewBox="-3.225 4.845 819 869"
	 overflow="visible" enable-background="new -3.225 4.845 819 869" xml:space="preserve">
<defs>
</defs>
<path fill="#FFFFFF" stroke="#1C3664" stroke-width="7.7624" stroke-miterlimit="10" d="M368.057,429.296
	c-5.353,11.031-0.754,24.303,10.26,29.642l201.536,97.864c11.015,5.348,24.282,0.758,29.633-10.271l194.724-401.033
	c5.354-11.026,0.759-24.297-10.259-29.646L592.419,18.003c-11.022-5.354-24.296-0.76-29.642,10.263L368.057,429.296z"/>
<path fill-rule="evenodd" clip-rule="evenodd" fill="#1C3664" d="M631.836,194.564c-1.459,3.063-2.923,6.139-4.391,9.206
	c-8.396-4.396-12.123-10.444-14.695-16.904c-6.869,1.914-15.292,3.352-24.179-1.647c-7.163-4.029-10.667-10.313-13.036-16.114
	c-5.753,1.72-13.456,2.843-20.728,0.002c-8.962-3.509-13.68-10.938-16.354-17.699c-6.788,1.863-13.778,3.122-22.644-0.91
	c1.464-3.076,2.929-6.145,4.398-9.21c4.162,1.761,7.887,1.844,11.745,1.368c3.634-0.458,7.431-2.192,10.68-1.972
	c1.867,0.128,2.691,2.941,3.634,4.881c0.895,1.843,1.946,3.68,2.691,4.892c1.828,2.985,4.144,6.521,8.454,8.596
	c5.985,2.871,12.295,1.379,17.625,0.244c1.903-0.405,4.287-1.25,5.499-0.681c1.182,0.563,2.253,3.078,3.066,4.763
	c2.201,4.564,4.947,10.512,11.022,13.429c6.25,2.997,12.253,1.362,17.504,0.185c1.892-0.431,4.1-1.318,5.496-0.678
	c1.229,0.578,2.07,2.776,2.732,4.135C622.927,185.698,625.313,190.939,631.836,194.564z"/>
<path fill="#FFFFFF" stroke="#1C3664" stroke-width="7.7624" stroke-miterlimit="10" d="M442.271,429.296
	c5.347,11.031,0.752,24.303-10.266,29.642l-201.524,97.864c-11.023,5.348-24.295,0.758-29.642-10.271L6.111,145.498
	c-5.343-11.026-0.754-24.297,10.266-29.646l201.537-97.848c11.014-5.354,24.282-0.76,29.635,10.263L442.271,429.296z"/>
<path fill="#1C3664" d="M288.536,113.949c-19.804,6.612-44.717-10.316-55.432-13.949c-8.561-2.909-18.735-0.124-16.112,16.17
	c1.703-2.634,6.504-3.256,10.234-0.48c6.294,4.698,11.851,17.166,6.403,20.141l-2.363,0.963
	c-20.27,3.292-44.474-13.697-55.217-17.65c-9.212-3.386-20.028-0.531-16.87,17.512c1.758-2.873,6.882-3.454,10.924-0.306
	c6.834,5.324,15.718,17.996,7.287,22.381c-19.807,6.609-42.79-11.853-53.501-15.484c-8.552-2.896-18.73-0.12-16.105,16.171
	c1.702-2.633,6.503-3.252,10.225-0.479c6.304,4.704,9.637,16.831,6.415,20.144c-8.25,9.301-27.522-7.622-27.522-7.622l14.909,48.771
	l29.932,50.12l30.33,37.142l77.399-29.887L335.83,241.4L288.536,113.949z"/>
<path fill="#FFFFFF" stroke="#1C3664" stroke-width="7.2078" stroke-miterlimit="10" d="M17.677,161.724
	c0,0,39.464-28.212,64.101-1.074c0,0,33.642,35.082,68.099,29.48c31.599-5.142,80.542-11.332,123.507,20.417
	c32.009,23.655,52.5,40.673,165.266-39.408l14.867,31.416l-340.692,161.23L17.677,161.724z"/>
<polygon fill="#1C3664" points="521.865,141.807 441.28,293.481 567.224,333.417 634.051,195.342 "/>
<path fill-rule="evenodd" clip-rule="evenodd" fill="#1C3664" d="M778.669,199.835c-1.465,3.061-2.926,6.13-4.399,9.201
	c-8.394-4.394-12.12-10.445-14.688-16.904c-6.868,1.913-15.295,3.352-24.181-1.646c-7.157-4.029-10.666-10.316-13.029-16.112
	c-5.754,1.717-13.454,2.838-20.738,0c-8.95-3.504-13.669-10.938-16.354-17.694c-6.777,1.861-13.767,3.117-22.635-0.919
	c1.458-3.075,2.927-6.139,4.389-9.203c4.163,1.761,7.904,1.843,11.757,1.362c3.629-0.453,7.424-2.192,10.67-1.972
	c1.879,0.132,2.7,2.943,3.638,4.881c0.898,1.84,1.947,3.676,2.694,4.892c1.826,2.985,4.139,6.518,8.453,8.596
	c5.975,2.868,12.302,1.38,17.624,0.245c1.898-0.406,4.284-1.248,5.497-0.673c1.175,0.558,2.258,3.077,3.062,4.76
	c2.203,4.557,4.96,10.512,11.021,13.427c6.257,2.997,12.268,1.365,17.508,0.182c1.9-0.426,4.097-1.321,5.496-0.675
	c1.234,0.575,2.074,2.773,2.737,4.135C769.759,190.958,772.137,196.208,778.669,199.835z"/>
<polygon fill="#1C3664" points="667.035,146.557 587.193,296.553 713.135,336.486 778.669,199.835 "/>
<polygon fill-rule="evenodd" clip-rule="evenodd" fill="#FFFFFF" points="580.317,302.51 590.321,307.289 700.352,76.753 
	690.344,71.973 "/>
<path fill="none" stroke="#FFFFFF" stroke-width="13.9197" stroke-miterlimit="10" d="M271.344,479.267
	c-0.043,12.254,9.85,22.21,22.103,22.253l224.029,0.847c12.253,0.052,22.219-9.835,22.266-22.091l1.679-445.812
	c0.05-12.244-9.843-22.219-22.09-22.26l-224.032-0.848c-12.244-0.044-22.219,9.847-22.26,22.093L271.344,479.267z"/>
<path fill="#1C3664" stroke="#1C3664" stroke-width="7.7624" stroke-miterlimit="10" d="M271.344,479.267
	c-0.043,12.254,9.85,22.21,22.103,22.253l224.029,0.847c12.253,0.052,22.219-9.835,22.266-22.091l1.679-445.812
	c0.05-12.244-9.843-22.219-22.09-22.26l-224.032-0.848c-12.244-0.044-22.219,9.847-22.26,22.093L271.344,479.267z"/>
<polygon fill="#FFFFFF" points="354.48,145.324 332.023,145.324 332.023,122.873 314.555,122.873 314.555,145.324 292.105,145.324 
	292.105,162.798 314.555,162.798 314.555,185.249 332.023,185.249 332.023,162.798 354.48,162.798 "/>
<g>
	<defs>
		<path id="SVGID_1_" d="M264.198,472.93c-0.401,11.898,8.858,21.393,20.679,21.201l233.687-9.23
			c11.805-0.189,21.71-9.975,22.107-21.882L537.565,35.84c0.406-11.892-8.851-21.396-20.666-21.203L297.15,13.788
			c-11.812,0.188-21.714,9.982-22.108,21.877L264.198,472.93z"/>
	</defs>
	<clipPath id="SVGID_2_">
		<use xlink:href="#SVGID_1_"  overflow="visible"/>
	</clipPath>
	<path clip-path="url(#SVGID_2_)" fill="#FFFFFF" d="M260.386,1.844c0,0,11.002-0.338,13.692,2.844c0,0,2.595,6.278,6.575,13.805
		c1.882,3.548,10.407,6.691,12.505,10.119c0.476,0.784,0.22,2.911-1.253,3.44c0,0,0.481,2.909,2.944,2.656
		c0,0,5.145,4.267,3.63,11.398c0,0,17.629,4.614,26.51,13.911c3.452,3.595,9.335,4.81,12.978,15.149c0,0,4.437-2.626,5.667-1.558
		c0,0,6.876,2.149,8.869-1.021c0,0,6.387,2.154,7.63-0.488c0,0-0.763,5.813-4.47,6.594c0,0,2.427,7.954,1.922,9.275
		c0,0-6.92,5.525-7.904,4.464c0,0-4.839-15.64-6.565-16.18c0,0-5.229,11.358-14.565,9.457c0,0-1.494,2.115-2.97,1.575
		c0,0,4.153,6.639,5.861,9.031c0,0,1.887,4.716,2.67,7.698c0.567,2.124,5.441,3.989,6.621,5.845c0.267,0.426,0.235,2.12-0.754,1.855
		c0,0,8.834,5.338,9.8,9.849c0,0,21.135,18.439,25.983,20.238c6.419,2.395,12.415,12.121,14.152,23.375
		c0.892,5.752,5.834,19.466,6.776,22.272c2.324,6.908,12,11.175,9.453,27.583c0,0,26.704,7.431,28.749,9.673
		c5.21,5.688,19.448,11.393,28.244,12.573c9.896,1.335,36.869,12.37,28.908,27.42c0,0,3.391,7.692,1.04,10.861
		c0,0,2.584,1.333,2.329,3.448c0,0,3.444,0.021,3.442,1.6c0,0,2.942,1.608,2.691,3.196c0,0,2.95,0.279,2.435,4.25
		c0,0,5.426-2.089,5.885,4.796c0,0,5.427-2.354,7.607,4.537l18.712,0.089l1.428-269.519l0.14-26.615L260.398,0L260.386,1.844z"/>
</g>
<rect x="439.904" y="145.915" fill="#1C3664" stroke="#1C3664" stroke-width="7.7624" stroke-miterlimit="10" width="58.684" height="16.285"/>
<path fill="#1C3664" stroke="#FFFFFF" stroke-width="3.4777" stroke-miterlimit="10" d="M762.326,402.889
	c0,6.462-5.246,11.712-11.724,11.712H61.473c-6.48,0-11.725-5.25-11.725-11.712V290.373c0-6.469,5.245-11.716,11.725-11.716h689.129
	c6.478,0,11.724,5.247,11.724,11.716V402.889z"/>
<path fill="#1C3664" d="M670.907,873.652H136.474c-2.392,0-4.385-1.831-4.586-4.216L92.036,400.785
	c-0.109-1.286,0.325-2.557,1.198-3.504c0.874-0.949,2.102-1.489,3.393-1.489h618.819c1.299,0,2.533,0.546,3.405,1.506
	c0.871,0.96,1.3,2.243,1.176,3.533l-12.341,129.852l-1.812,9.271l-1.661,12.917l-4.414,22.763l2.28,14.066L675.49,869.485
	C675.265,871.848,673.282,873.652,670.907,873.652z M140.702,864.445h526.017l43.663-459.446H101.636L140.702,864.445z"/>
<polygon fill="#1C3664" points="670.907,869.048 136.474,869.048 96.626,400.394 715.445,400.394 "/>
<path fill="#FFFFFF" d="M456.229,379.657c0,27.72-22.475,50.191-50.189,50.191c-27.726,0-50.197-22.471-50.197-50.191
	c0-27.721,22.472-50.193,50.197-50.193C433.754,329.464,456.229,351.936,456.229,379.657z"/>
<path fill="#FFFFFF" d="M702.078,589.635L394.487,400.01c-10.386-6.433-15.437-17.089-11.279-23.816l13.181-21.278
	c4.164-6.716,15.962-6.949,26.354-0.51l284.964,176.298L702.078,589.635z"/>
</svg>
