<?xml version="1.0" encoding="utf-8"?>
<!-- Generator: Adobe Illustrator 15.1.0, SVG Export Plug-In  -->
<!DOCTYPE svg PUBLIC "-//W3C//DTD SVG 1.1//EN" "http://www.w3.org/Graphics/SVG/1.1/DTD/svg11.dtd" [
	<!ENTITY ns_flows "http://ns.adobe.com/Flows/1.0/">
]>
<svg version="1.1"
	 xmlns="http://www.w3.org/2000/svg" xmlns:xlink="http://www.w3.org/1999/xlink" xmlns:a="http://ns.adobe.com/AdobeSVGViewerExtensions/3.0/"
	 x="0px" y="0px" width="900px" height="900px" viewBox="-57.855 -16.045 900 900"
	 overflow="visible" enable-background="new -57.855 -16.045 900 900" xml:space="preserve">
<defs>
</defs>
<path fill="#FFFFFF" stroke="#345481" stroke-width="7.5881" stroke-miterlimit="10" d="M359.79,419.656
	c-5.233,10.783-0.737,23.758,10.032,28.976l197.008,95.667c10.769,5.227,23.739,0.74,28.968-10.04l190.354-392.03
	c5.231-10.778,0.738-23.749-10.03-28.981L579.116,17.596c-10.776-5.231-23.752-0.742-28.975,10.034L359.79,419.656z"/>
<path fill-rule="evenodd" clip-rule="evenodd" fill="#345481" d="M617.646,190.194c-1.424,2.996-2.857,6.002-4.29,9.001
	c-8.208-4.298-11.853-10.212-14.369-16.527c-6.711,1.872-14.945,3.279-23.632-1.609c-7.004-3.937-10.428-10.08-12.744-15.751
	c-5.622,1.679-13.155,2.779-20.263,0.003c-8.762-3.431-13.372-10.694-15.984-17.302c-6.636,1.821-13.47,3.052-22.137-0.891
	c1.432-3.005,2.863-6.005,4.299-9c4.07,1.72,7.71,1.8,11.482,1.335c3.553-0.448,7.263-2.142,10.438-1.927
	c1.825,0.125,2.631,2.874,3.552,4.771c0.877,1.802,1.902,3.596,2.632,4.783c1.788,2.915,4.052,6.373,8.264,8.401
	c5.852,2.806,12.019,1.35,17.233,0.239c1.858-0.398,4.187-1.224,5.373-0.665c1.155,0.55,2.203,3.009,2.997,4.656
	c2.152,4.46,4.837,10.276,10.775,13.127c6.106,2.928,11.979,1.332,17.11,0.181c1.849-0.421,4.008-1.289,5.373-0.664
	c1.201,0.566,2.021,2.715,2.672,4.044C608.938,181.527,611.269,186.651,617.646,190.194z"/>
<path fill="#FFFFFF" stroke="#345481" stroke-width="7.5881" stroke-miterlimit="10" d="M432.339,419.656
	c5.227,10.783,0.733,23.758-10.035,28.976l-197.001,95.667c-10.775,5.227-23.747,0.74-28.976-10.04L5.975,142.229
	c-5.226-10.778-0.739-23.749,10.034-28.981L213.02,17.596c10.765-5.231,23.737-0.742,28.969,10.034L432.339,419.656z"/>
<path fill="#345481" d="M282.055,111.389c-19.358,6.463-43.713-10.084-54.186-13.636c-8.37-2.841-18.315-0.118-15.75,15.808
	c1.663-2.577,6.356-3.185,10.002-0.469c6.154,4.591,11.585,16.781,6.261,19.688l-2.311,0.941
	c-19.813,3.218-43.473-13.39-53.976-17.252c-9.005-3.312-19.578-0.52-16.491,17.118c1.718-2.81,6.727-3.376,10.678-0.297
	c6.683,5.203,15.367,17.591,7.122,21.877c-19.361,6.461-41.826-11.587-52.298-15.137c-8.359-2.833-18.308-0.117-15.744,15.809
	c1.664-2.574,6.356-3.181,9.996-0.469c6.16,4.598,9.422,16.452,6.268,19.691c-8.063,9.092-26.901-7.448-26.901-7.448l14.571,47.675
	l29.262,48.994l29.647,36.308l75.663-29.216l84.42-35.393L282.055,111.389z"/>
<path fill="#FFFFFF" stroke="#345481" stroke-width="7.0459" stroke-miterlimit="10" d="M17.279,158.092
	c0,0,38.577-27.579,62.661-1.05c0,0,32.888,34.293,66.57,28.817c30.888-5.027,78.732-11.076,120.732,19.958
	c31.291,23.125,51.322,39.76,161.556-38.523l14.534,30.713L110.291,355.616L17.279,158.092z"/>
<polygon fill="#345481" points="510.145,138.621 431.368,286.89 554.487,325.929 619.811,190.955 "/>
<path fill-rule="evenodd" clip-rule="evenodd" fill="#345481" d="M761.183,195.346c-1.431,2.993-2.859,5.995-4.301,8.994
	c-8.204-4.295-11.849-10.208-14.358-16.524c-6.715,1.87-14.951,3.276-23.639-1.609c-6.996-3.94-10.424-10.083-12.737-15.751
	c-5.621,1.68-13.15,2.776-20.27,0c-8.751-3.424-13.364-10.69-15.985-17.296c-6.627,1.818-13.458,3.046-22.128-0.897
	c1.424-3.006,2.86-6.002,4.287-8.998c4.071,1.721,7.729,1.802,11.494,1.333c3.548-0.442,7.257-2.143,10.431-1.93
	c1.838,0.131,2.639,2.877,3.559,4.773c0.877,1.798,1.9,3.593,2.633,4.781c1.784,2.917,4.045,6.372,8.264,8.403
	c5.841,2.804,12.025,1.349,17.226,0.239c1.858-0.397,4.19-1.22,5.375-0.657c1.149,0.543,2.207,3.005,2.995,4.651
	c2.152,4.456,4.848,10.276,10.772,13.127c6.115,2.928,11.992,1.333,17.114,0.178c1.855-0.418,4.007-1.292,5.373-0.661
	c1.207,0.563,2.027,2.712,2.676,4.042C752.473,186.668,754.796,191.8,761.183,195.346z"/>
<polygon fill="#345481" points="652.052,143.265 574.005,289.893 697.121,328.931 761.183,195.346 "/>
<polygon fill-rule="evenodd" clip-rule="evenodd" fill="#FFFFFF" points="567.286,295.719 577.063,300.388 684.625,75.03 
	674.84,70.357 "/>
<path fill="none" stroke="#FFFFFF" stroke-width="13.6071" stroke-miterlimit="10" d="M265.251,468.502
	c-0.046,11.98,9.626,21.714,21.603,21.755l219,0.827c11.976,0.053,21.719-9.614,21.764-21.595l1.642-435.801
	c0.05-11.969-9.622-21.719-21.594-21.759l-218.999-0.831c-11.972-0.043-21.722,9.625-21.763,21.598L265.251,468.502z"/>
<path fill="#345481" stroke="#345481" stroke-width="7.5881" stroke-miterlimit="10" d="M265.251,468.502
	c-0.046,11.98,9.626,21.714,21.603,21.755l219,0.827c11.976,0.053,21.719-9.614,21.764-21.595l1.642-435.801
	c0.05-11.969-9.622-21.719-21.594-21.759l-218.999-0.831c-11.972-0.043-21.722,9.625-21.763,21.598L265.251,468.502z"/>
<polygon fill="#FFFFFF" points="346.518,142.061 324.566,142.061 324.566,120.112 307.49,120.112 307.49,142.061 285.543,142.061 
	285.543,159.141 307.49,159.141 307.49,181.089 324.566,181.089 324.566,159.141 346.518,159.141 "/>
<g>
	<defs>
		<path id="SVGID_1_" d="M258.265,462.311c-0.394,11.629,8.657,20.91,20.212,20.724l228.439-9.023
			c11.541-0.187,21.222-9.75,21.613-21.389l-3.037-417.588c0.396-11.625-8.651-20.916-20.203-20.727l-214.813-0.83
			c-11.547,0.183-21.227,9.757-21.611,21.385L258.265,462.311z"/>
	</defs>
	<clipPath id="SVGID_2_">
		<use xlink:href="#SVGID_1_"  overflow="visible"/>
	</clipPath>
	<path clip-path="url(#SVGID_2_)" fill="#FFFFFF" d="M254.538,1.802c0,0,10.754-0.331,13.386,2.78c0,0,2.536,6.137,6.426,13.495
		c1.839,3.468,10.172,6.541,12.223,9.891c0.466,0.767,0.217,2.848-1.224,3.364c0,0,0.47,2.844,2.877,2.597
		c0,0,5.031,4.17,3.549,11.143c0,0,17.233,4.508,25.916,13.599c3.374,3.512,9.126,4.7,12.685,14.807c0,0,4.338-2.567,5.54-1.521
		c0,0,6.724,2.098,8.67-0.998c0,0,6.245,2.105,7.459-0.477c0,0-0.746,5.682-4.369,6.447c0,0,2.372,7.773,1.879,9.065
		c0,0-6.764,5.401-7.725,4.362c0,0-4.73-15.289-6.417-15.815c0,0-5.111,11.103-14.239,9.244c0,0-1.461,2.068-2.902,1.541
		c0,0,4.06,6.487,5.729,8.826c0,0,1.845,4.611,2.609,7.526c0.555,2.079,5.319,3.9,6.472,5.715c0.264,0.415,0.23,2.071-0.735,1.812
		c0,0,8.633,5.219,9.578,9.628c0,0,20.663,18.025,25.4,19.786c6.274,2.341,12.137,11.848,13.834,22.849
		c0.874,5.623,5.703,19.03,6.626,21.773c2.271,6.753,11.729,10.923,9.239,26.964c0,0,26.104,7.263,28.104,9.456
		c5.093,5.561,19.013,11.137,27.611,12.291c9.672,1.304,36.04,12.09,28.257,26.802c0,0,3.317,7.521,1.02,10.617
		c0,0,2.525,1.304,2.275,3.372c0,0,3.367,0.018,3.364,1.562c0,0,2.877,1.573,2.632,3.125c0,0,2.885,0.272,2.381,4.155
		c0,0,5.304-2.045,5.752,4.686c0,0,5.303-2.301,7.437,4.437l18.291,0.087l1.396-263.466l0.137-26.018L254.547,0L254.538,1.802z"/>
</g>
<rect x="430.023" y="142.637" fill="#345481" stroke="#345481" stroke-width="7.5881" stroke-miterlimit="10" width="57.366" height="15.92"/>
<path fill="#345481" stroke="#FFFFFF" stroke-width="3.3996" stroke-miterlimit="10" d="M745.206,393.841
	c0,6.319-5.13,11.45-11.461,11.45H60.09c-6.333,0-11.46-5.131-11.46-11.45V283.851c0-6.323,5.128-11.45,11.46-11.45h673.655
	c6.331,0,11.461,5.127,11.461,11.45V393.841z"/>
<path fill="#345481" d="M655.84,854.034H133.407c-2.337,0-4.286-1.79-4.484-4.119l-38.955-458.13
	c-0.106-1.255,0.317-2.498,1.17-3.425c0.852-0.928,2.054-1.456,3.314-1.456h604.925c1.268,0,2.477,0.535,3.329,1.472
	c0.853,0.938,1.271,2.192,1.15,3.454l-12.063,126.938l-1.773,9.062l-1.625,12.625l-4.312,22.25l2.229,13.751L660.32,849.959
	C660.101,852.269,658.161,854.034,655.84,854.034z M137.541,845.034h514.207l42.682-449.13H99.352L137.541,845.034z"/>
<polygon fill="#345481" points="655.84,849.534 133.407,849.534 94.453,391.403 699.377,391.403 "/>
<path fill="#FFFFFF" d="M445.984,371.13c0,27.097-21.97,49.065-49.065,49.065c-27.103,0-49.068-21.968-49.068-49.065
	c0-27.1,21.965-49.065,49.068-49.065C424.014,322.065,445.984,344.031,445.984,371.13z"/>
<path fill="#FFFFFF" d="M686.311,576.392L385.628,391.026c-10.153-6.289-15.091-16.705-11.027-23.28l12.885-20.798
	c4.071-6.568,15.604-6.794,25.763-0.5l278.563,172.339L686.311,576.392z"/>
</svg>
