<?xml version="1.0" encoding="utf-8"?>
<!-- Generator: Adobe Illustrator 22.1.0, SVG Export Plug-In . SVG Version: 6.00 Build 0)  -->
<svg version="1.1" id="Layer_1" xmlns="http://www.w3.org/2000/svg" xmlns:xlink="http://www.w3.org/1999/xlink" x="0px" y="0px"
	 viewBox="0 0 28 36.4" style="enable-background:new 0 0 28 36.4;" xml:space="preserve">
<path d="M27.9,1.4c0,0-13.5-5.8-21.6,5.1C6.2,6.7,6.1,6.8,6,6.9l0,0l0,0c-1.2,1.6-1.8,3.5-1.8,5.6c0,4.2,2.6,7.7,6.3,9.1l0,0
	c0,0-4.6,2.6-10.6,2c0,0,13.5,5.8,21.6-5.1c0.1-0.1,0.2-0.3,0.3-0.4l0,0l0,0c1.2-1.6,1.8-3.5,1.8-5.6c0-4.2-2.6-7.7-6.3-9.1l0,0
	C17.4,3.4,21.9,0.8,27.9,1.4z"/>
<g>
	<path d="M9.5,36.4H8.7V33H4.9v3.4H4.1v-7.1h0.8v3h3.8v-3h0.8V36.4z"/>
	<path d="M12.1,31.1v3.5c0,0.4,0.1,0.8,0.3,1s0.5,0.3,0.9,0.3c0.6,0,1-0.2,1.2-0.5c0.3-0.3,0.4-0.8,0.4-1.5v-2.8h0.8v5.4H15v-0.8
		l0,0c-0.2,0.3-0.4,0.5-0.7,0.6s-0.6,0.2-1,0.2c-0.7,0-1.1-0.2-1.5-0.5s-0.5-0.8-0.5-1.5V31h0.8V31.1z"/>
	<path d="M19.9,31c0.2,0,0.5,0,0.6,0.1l-0.1,0.8c-0.2,0-0.4-0.1-0.6-0.1c-0.4,0-0.8,0.2-1.1,0.5c-0.3,0.4-0.5,0.8-0.5,1.3v2.9h-0.8
		v-5.4h0.7l0.1,1l0,0c0.2-0.3,0.4-0.6,0.7-0.8S19.6,31,19.9,31z"/>
	<path d="M24,31c0.2,0,0.5,0,0.6,0.1l-0.1,0.8c-0.2,0-0.4-0.1-0.6-0.1c-0.4,0-0.8,0.2-1.1,0.5c-0.3,0.4-0.5,0.8-0.5,1.3v2.9h-0.8
		v-5.4h0.7l0.1,1l0,0c0.2-0.3,0.4-0.6,0.7-0.8S23.6,31,24,31z"/>
</g>
</svg>
