<?xml version="1.0" encoding="utf-8"?>
<!-- Generator: Adobe Illustrator 18.1.1, SVG Export Plug-In . SVG Version: 6.00 Build 0)  -->
<!DOCTYPE svg PUBLIC "-//W3C//DTD SVG 1.1//EN" "http://www.w3.org/Graphics/SVG/1.1/DTD/svg11.dtd">
<svg version="1.1" id="Layer_1" xmlns="http://www.w3.org/2000/svg" xmlns:xlink="http://www.w3.org/1999/xlink" x="0px" y="0px"
	 viewBox="0 0 31.3 28" enable-background="new 0 0 31.3 28" xml:space="preserve">
<path fill="#FFFFFF" d="M31.1,1.7c0,0-15-6.5-24.1,5.7C6.9,7.5,6.8,7.6,6.7,7.8c0,0,0,0,0,0l0,0c-1.2,1.8-2,3.9-2,6.2
	c0,4.6,2.9,8.6,7,10.1c0,0,0,0,0,0c0,0-5.1,2.9-11.8,2.2c0,0,15,6.5,24.1-5.7c0.1-0.1,0.2-0.3,0.3-0.4c0,0,0,0,0,0l0,0
	c1.2-1.8,2-3.9,2-6.2c0-4.6-2.9-8.6-7-10.1c0,0,0,0,0,0C19.3,3.9,24.4,1,31.1,1.7z M23.2,14c0,4.2-3.4,7.7-7.7,7.7
	c-4.2,0-7.7-3.4-7.7-7.7s3.4-7.7,7.7-7.7C19.8,6.3,23.2,9.8,23.2,14z"/>
</svg>
