<?xml version="1.0" encoding="utf-8"?>
<!-- Generator: Adobe Illustrator 18.1.1, SVG Export Plug-In . SVG Version: 6.00 Build 0)  -->
<!DOCTYPE svg PUBLIC "-//W3C//DTD SVG 1.1//EN" "http://www.w3.org/Graphics/SVG/1.1/DTD/svg11.dtd">
<svg version="1.1" id="Layer_1" xmlns="http://www.w3.org/2000/svg" xmlns:xlink="http://www.w3.org/1999/xlink" x="0px" y="0px"
	 viewBox="-5.4 5.1 32.5 11.5" enable-background="new -5.4 5.1 32.5 11.5" xml:space="preserve">
<g>
	<polygon fill="#FFCC33" points="4.7,10.6 3.5,9 0.4,10.5 0,9.6 3.7,7.9 5,9.5 11.1,8 11.4,8.8 	"/>
</g>
<g>
	<polygon fill="#F38E8E" points="4.7,14.6 3.5,13 0.4,14.5 0,13.7 3.7,11.9 5,13.6 11.1,12.1 11.4,12.9 	"/>
</g>
<g>
	<polygon fill="#F37C20" points="20.4,10.6 19.2,9 16.1,10.5 15.7,9.6 19.4,7.9 20.7,9.5 26.8,8 27,8.8 	"/>
</g>
<g>
	<polygon fill="#EC1E24" points="20.4,14.6 19.1,13 16,14.5 15.7,13.7 19.4,11.9 20.7,13.6 26.8,12.1 27,12.9 	"/>
</g>
<text transform="matrix(1 0 0 1 3.2899 6.2731)" font-family="'OpenSans-Bold', san-serif" font-size="1.5">Watch</text>
<text transform="matrix(1 0 0 1 18.1965 6.273)" font-family="'OpenSans-Bold', san-serif" font-size="1.5">Warning</text>
<text transform="matrix(1 0 0 1 -5.4458 10.2985)" font-family="'OpenSans-Bold', san-serif" font-size="1.5">T.S.</text>
<text transform="matrix(1 0 0 1 -5.446 13.9905)" font-family="'OpenSans-Bold', san-serif" font-size="1.5">Hurr</text>
</svg>
