<?xml version="1.0" encoding="utf-8"?>
<!-- Generator: Adobe Illustrator 18.1.1, SVG Export Plug-In . SVG Version: 6.00 Build 0)  -->
<!DOCTYPE svg PUBLIC "-//W3C//DTD SVG 1.1//EN" "http://www.w3.org/Graphics/SVG/1.1/DTD/svg11.dtd">
<svg version="1.1" id="Layer_1" xmlns="http://www.w3.org/2000/svg" xmlns:xlink="http://www.w3.org/1999/xlink" x="0px" y="0px"
	 viewBox="0 0 184.7 52.1" enable-background="new 0 0 184.7 52.1" xml:space="preserve">
<g>
	<polygon fill="#FFCC33" points="31,17.8 22.9,7.4 2.5,17.1 0,11.8 24.7,0 33.3,11.1 73.5,0.8 75,6.5 	"/>
</g>
<g>
	<polygon fill="#F38E8E" points="36.9,52.1 28.8,41.7 8.4,51.4 5.9,46.1 30.6,34.3 39.1,45.5 79.4,35.2 80.9,40.8 	"/>
</g>
<g>
	<polygon fill="#F37C20" points="131,17.8 123,7.4 102.6,17.1 100,11.8 124.7,0 133.3,11.1 173.5,0.8 175,6.5 	"/>
</g>
<g>
	<polygon fill="#EC1E24" points="140.7,52.1 132.6,41.7 112.2,51.4 109.7,46.1 134.4,34.3 143,45.5 183.2,35.2 184.7,40.8 	"/>
</g>
</svg>
