<?xml version="1.0" encoding="utf-8"?>
<!-- Generator: Adobe Illustrator 19.2.1, SVG Export Plug-In . SVG Version: 6.00 Build 0)  -->
<!DOCTYPE svg PUBLIC "-//W3C//DTD SVG 1.1//EN" "http://www.w3.org/Graphics/SVG/1.1/DTD/svg11.dtd">
<svg version="1.1" id="Layer_1" xmlns="http://www.w3.org/2000/svg" xmlns:xlink="http://www.w3.org/1999/xlink" x="0px" y="0px"
	 viewBox="0 0 43.1 41.1" style="enable-background:new 0 0 43.1 41.1;" xml:space="preserve">
<style type="text/css">
	.st0{fill:#38AB26;stroke:#000000;stroke-width:0.844;stroke-miterlimit:10;}
	.st1{enable-background:new    ;}
</style>
<circle class="st0" cx="21.5" cy="12.6" r="6.9"/>
<g class="st1">
	<path d="M12.2,27.4c0,1.6-1,2.4-2.2,2.4c-1.2,0-2.1-1-2.1-2.4c0-1.5,0.9-2.4,2.2-2.4C11.4,25.1,12.2,26.1,12.2,27.4z M8.6,27.5
		c0,1,0.5,1.9,1.5,1.9c0.9,0,1.5-0.9,1.5-1.9c0-0.9-0.5-1.9-1.5-1.9C9.1,25.6,8.6,26.5,8.6,27.5z"/>
	<path d="M13,29.8c0-0.2,0-0.6,0-0.9v-4h0.6V27h0c0.2-0.4,0.6-0.6,1.1-0.6c0.8,0,1.4,0.7,1.4,1.7c0,1.2-0.8,1.8-1.5,1.8
		c-0.5,0-0.9-0.2-1.1-0.6h0l0,0.6H13z M13.6,28.5c0,0.1,0,0.2,0,0.2c0.1,0.4,0.5,0.7,0.9,0.7c0.6,0,1-0.5,1-1.3c0-0.7-0.3-1.2-1-1.2
		c-0.4,0-0.8,0.3-0.9,0.7c0,0.1,0,0.2,0,0.2V28.5z"/>
	<path d="M16.8,29.2c0.2,0.1,0.5,0.2,0.8,0.2c0.4,0,0.6-0.2,0.6-0.5c0-0.3-0.2-0.4-0.6-0.6c-0.6-0.2-0.9-0.5-0.9-0.9
		c0-0.5,0.4-1,1.1-1c0.3,0,0.6,0.1,0.8,0.2L18.6,27c-0.1-0.1-0.4-0.2-0.7-0.2c-0.4,0-0.6,0.2-0.6,0.5c0,0.3,0.2,0.4,0.6,0.6
		c0.6,0.2,0.9,0.5,0.9,1c0,0.6-0.5,1-1.2,1c-0.4,0-0.7-0.1-0.9-0.2L16.8,29.2z"/>
	<path d="M20,28.2c0,0.8,0.5,1.2,1.1,1.2c0.4,0,0.7-0.1,0.9-0.2l0.1,0.4c-0.2,0.1-0.6,0.2-1.1,0.2c-1,0-1.6-0.7-1.6-1.7
		s0.6-1.8,1.6-1.8c1.1,0,1.4,1,1.4,1.6c0,0.1,0,0.2,0,0.3H20z M21.8,27.8c0-0.4-0.2-1-0.8-1c-0.6,0-0.9,0.6-0.9,1H21.8z"/>
	<path d="M23.1,27.5c0-0.4,0-0.7,0-1h0.5l0,0.7h0c0.2-0.4,0.5-0.7,0.9-0.7c0.1,0,0.1,0,0.2,0V27c-0.1,0-0.1,0-0.2,0
		c-0.4,0-0.7,0.3-0.8,0.8c0,0.1,0,0.2,0,0.3v1.8h-0.6V27.5z"/>
	<path d="M25.7,26.5l0.7,1.9c0.1,0.3,0.2,0.6,0.3,0.9h0c0.1-0.3,0.2-0.6,0.3-0.9l0.6-1.9h0.6l-1.3,3.3h-0.6l-1.3-3.3H25.7z"/>
	<path d="M29.1,28.2c0,0.8,0.5,1.2,1.1,1.2c0.4,0,0.7-0.1,0.9-0.2l0.1,0.4c-0.2,0.1-0.6,0.2-1.1,0.2c-1,0-1.6-0.7-1.6-1.7
		s0.6-1.8,1.6-1.8c1.1,0,1.4,1,1.4,1.6c0,0.1,0,0.2,0,0.3H29.1z M30.9,27.8c0-0.4-0.2-1-0.8-1c-0.6,0-0.9,0.6-0.9,1H30.9z"/>
	<path d="M35.1,24.9v4c0,0.3,0,0.6,0,0.9h-0.5l0-0.6h0c-0.2,0.4-0.6,0.7-1.1,0.7c-0.8,0-1.4-0.7-1.4-1.7c0-1.1,0.7-1.8,1.5-1.8
		c0.5,0,0.9,0.2,1,0.5h0v-2H35.1z M34.5,27.8c0-0.1,0-0.2,0-0.3c-0.1-0.4-0.4-0.7-0.9-0.7c-0.6,0-1,0.6-1,1.3c0,0.7,0.3,1.2,1,1.2
		c0.4,0,0.8-0.3,0.9-0.7c0-0.1,0-0.2,0-0.3V27.8z"/>
	<path d="M3.6,37.9c-0.2,0.1-0.7,0.2-1.2,0.2c-1.3,0-2.3-0.8-2.3-2.3c0-1.5,1-2.4,2.4-2.4c0.6,0,0.9,0.1,1.1,0.2l-0.1,0.5
		c-0.2-0.1-0.6-0.2-0.9-0.2c-1.1,0-1.8,0.7-1.8,1.9c0,1.1,0.7,1.9,1.8,1.9c0.4,0,0.7-0.1,1-0.2L3.6,37.9z"/>
	<path d="M4.6,36.5c0,0.8,0.5,1.2,1.1,1.2c0.4,0,0.7-0.1,0.9-0.2l0.1,0.4c-0.2,0.1-0.6,0.2-1.1,0.2c-1,0-1.6-0.7-1.6-1.7
		s0.6-1.8,1.6-1.8c1.1,0,1.4,1,1.4,1.6c0,0.1,0,0.2,0,0.3H4.6z M6.4,36.1c0-0.4-0.2-1-0.8-1c-0.6,0-0.9,0.6-0.9,1H6.4z"/>
	<path d="M7.7,35.6c0-0.3,0-0.6,0-0.9h0.5l0,0.6h0c0.2-0.3,0.6-0.6,1.1-0.6c0.5,0,1.2,0.3,1.2,1.4v2H9.9v-1.9c0-0.5-0.2-1-0.8-1
		c-0.4,0-0.7,0.3-0.8,0.6c0,0.1,0,0.2,0,0.3v2H7.7V35.6z"/>
	<path d="M12.2,33.8v1h0.9v0.5h-0.9V37c0,0.4,0.1,0.6,0.5,0.6c0.2,0,0.3,0,0.4,0l0,0.5c-0.1,0-0.3,0.1-0.5,0.1
		c-0.3,0-0.5-0.1-0.7-0.3c-0.2-0.2-0.2-0.5-0.2-0.9v-1.8h-0.5v-0.5h0.5v-0.8L12.2,33.8z"/>
	<path d="M14.1,36.5c0,0.8,0.5,1.2,1.1,1.2c0.4,0,0.7-0.1,0.9-0.2l0.1,0.4c-0.2,0.1-0.6,0.2-1.1,0.2c-1,0-1.6-0.7-1.6-1.7
		s0.6-1.8,1.6-1.8c1.1,0,1.4,1,1.4,1.6c0,0.1,0,0.2,0,0.3H14.1z M15.9,36.1c0-0.4-0.2-1-0.8-1c-0.6,0-0.9,0.6-0.9,1H15.9z"/>
	<path d="M17.2,35.8c0-0.4,0-0.7,0-1h0.5l0,0.7h0c0.2-0.4,0.5-0.7,0.9-0.7c0.1,0,0.1,0,0.2,0v0.6c-0.1,0-0.1,0-0.2,0
		c-0.4,0-0.7,0.3-0.8,0.8c0,0.1,0,0.2,0,0.3v1.8h-0.6V35.8z"/>
	<path d="M20.9,33.5c0.3,0,0.7-0.1,1.1-0.1c0.6,0,1,0.1,1.3,0.4c0.3,0.2,0.4,0.6,0.4,1c0,0.4-0.1,0.8-0.4,1
		c-0.3,0.3-0.8,0.5-1.4,0.5c-0.2,0-0.3,0-0.5,0v1.9h-0.6V33.5z M21.5,35.7c0.1,0,0.3,0,0.5,0c0.7,0,1.2-0.4,1.2-1
		c0-0.6-0.4-0.9-1.1-0.9c-0.3,0-0.5,0-0.6,0V35.7z"/>
	<path d="M27.4,36.4c0,1.2-0.9,1.8-1.7,1.8c-0.9,0-1.6-0.7-1.6-1.7c0-1.1,0.7-1.8,1.7-1.8C26.8,34.7,27.4,35.4,27.4,36.4z
		 M24.8,36.4c0,0.7,0.4,1.3,1,1.3c0.6,0,1-0.5,1-1.3c0-0.6-0.3-1.3-1-1.3S24.8,35.8,24.8,36.4z"/>
	<path d="M28.1,37.5c0.2,0.1,0.5,0.2,0.8,0.2c0.4,0,0.6-0.2,0.6-0.5c0-0.3-0.2-0.4-0.6-0.6C28.3,36.4,28,36,28,35.6
		c0-0.5,0.4-1,1.1-1c0.3,0,0.6,0.1,0.8,0.2l-0.2,0.4c-0.1-0.1-0.4-0.2-0.7-0.2c-0.4,0-0.6,0.2-0.6,0.5c0,0.3,0.2,0.4,0.6,0.6
		c0.6,0.2,0.9,0.5,0.9,1c0,0.6-0.5,1-1.2,1c-0.4,0-0.7-0.1-0.9-0.2L28.1,37.5z"/>
	<path d="M31.6,33.8c0,0.2-0.1,0.4-0.4,0.4c-0.2,0-0.4-0.2-0.4-0.4c0-0.2,0.2-0.4,0.4-0.4C31.4,33.4,31.6,33.6,31.6,33.8z
		 M30.9,38.1v-3.3h0.6v3.3H30.9z"/>
	<path d="M33.2,33.8v1h0.9v0.5h-0.9V37c0,0.4,0.1,0.6,0.5,0.6c0.2,0,0.3,0,0.4,0l0,0.5c-0.1,0-0.3,0.1-0.5,0.1
		c-0.3,0-0.5-0.1-0.7-0.3c-0.2-0.2-0.2-0.5-0.2-0.9v-1.8h-0.5v-0.5h0.5v-0.8L33.2,33.8z"/>
	<path d="M35.5,33.8c0,0.2-0.1,0.4-0.4,0.4c-0.2,0-0.4-0.2-0.4-0.4c0-0.2,0.2-0.4,0.4-0.4C35.3,33.4,35.5,33.6,35.5,33.8z
		 M34.8,38.1v-3.3h0.6v3.3H34.8z"/>
	<path d="M39.4,36.4c0,1.2-0.9,1.8-1.7,1.8c-0.9,0-1.6-0.7-1.6-1.7c0-1.1,0.7-1.8,1.7-1.8C38.8,34.7,39.4,35.4,39.4,36.4z
		 M36.8,36.4c0,0.7,0.4,1.3,1,1.3c0.6,0,1-0.5,1-1.3c0-0.6-0.3-1.3-1-1.3S36.8,35.8,36.8,36.4z"/>
	<path d="M40.2,35.6c0-0.3,0-0.6,0-0.9h0.5l0,0.6h0c0.2-0.3,0.6-0.6,1.1-0.6c0.5,0,1.2,0.3,1.2,1.4v2h-0.6v-1.9c0-0.5-0.2-1-0.8-1
		c-0.4,0-0.7,0.3-0.8,0.6c0,0.1,0,0.2,0,0.3v2h-0.6V35.6z"/>
</g>
</svg>
