<?xml version="1.0" encoding="utf-8"?>
<!-- Generator: Adobe Illustrator 19.2.1, SVG Export Plug-In . SVG Version: 6.00 Build 0)  -->
<!DOCTYPE svg PUBLIC "-//W3C//DTD SVG 1.1//EN" "http://www.w3.org/Graphics/SVG/1.1/DTD/svg11.dtd">
<svg version="1.1" id="Layer_1" xmlns="http://www.w3.org/2000/svg" xmlns:xlink="http://www.w3.org/1999/xlink" x="0px" y="0px"
	 viewBox="0 0 43.1 41.1" style="enable-background:new 0 0 43.1 41.1;" xml:space="preserve">
<style type="text/css">
	.st0{fill:#0062BE;}
</style>
<rect x="0" y="10.5" class="st0" width="43.1" height="6"/>
<g>
	<g>
		<path d="M10.4,25.4c0,1.7-1.1,2.7-2.4,2.7c-1.3,0-2.3-1-2.3-2.6c0-1.6,1-2.7,2.4-2.7C9.5,22.9,10.4,23.9,10.4,25.4z M6.5,25.5
			c0,1.1,0.6,2.1,1.6,2.1c1,0,1.6-1,1.6-2.1c0-1-0.5-2.1-1.6-2.1C7,23.4,6.5,24.4,6.5,25.5z"/>
		<path d="M11.2,28c0-0.2,0-0.6,0-0.9v-4.4h0.7V25h0c0.2-0.4,0.7-0.7,1.2-0.7c0.9,0,1.5,0.8,1.5,1.9c0,1.3-0.8,2-1.6,2
			c-0.5,0-0.9-0.2-1.2-0.7h0l0,0.6H11.2z M11.9,26.6c0,0.1,0,0.2,0,0.2c0.1,0.5,0.5,0.8,1,0.8c0.7,0,1.1-0.6,1.1-1.4
			c0-0.7-0.4-1.4-1.1-1.4c-0.5,0-0.9,0.3-1,0.8c0,0.1,0,0.2,0,0.3V26.6z"/>
		<path d="M15.5,27.4c0.2,0.1,0.5,0.3,0.9,0.3c0.5,0,0.7-0.2,0.7-0.5c0-0.3-0.2-0.5-0.7-0.7c-0.7-0.2-1-0.6-1-1
			c0-0.6,0.5-1.1,1.3-1.1c0.4,0,0.7,0.1,0.9,0.2L17.4,25c-0.1-0.1-0.4-0.2-0.7-0.2c-0.4,0-0.6,0.2-0.6,0.5c0,0.3,0.2,0.4,0.7,0.6
			c0.6,0.2,1,0.6,1,1.1c0,0.6-0.5,1.1-1.4,1.1c-0.4,0-0.8-0.1-1-0.2L15.5,27.4z"/>
		<path d="M18.9,26.3c0,0.9,0.6,1.3,1.3,1.3c0.5,0,0.8-0.1,1-0.2l0.1,0.5c-0.2,0.1-0.6,0.2-1.2,0.2c-1.1,0-1.8-0.7-1.8-1.8
			s0.6-2,1.7-2c1.2,0,1.5,1,1.5,1.7c0,0.1,0,0.2,0,0.3H18.9z M20.8,25.9c0-0.4-0.2-1.1-0.9-1.1c-0.7,0-1,0.6-1,1.1H20.8z"/>
		<path d="M22.3,25.5c0-0.4,0-0.8,0-1.1h0.6l0,0.7h0c0.2-0.5,0.6-0.8,1-0.8c0.1,0,0.1,0,0.2,0V25c-0.1,0-0.1,0-0.2,0
			c-0.5,0-0.8,0.4-0.9,0.9c0,0.1,0,0.2,0,0.3V28h-0.7V25.5z"/>
		<path d="M25.2,24.4l0.7,2.1c0.1,0.3,0.2,0.6,0.3,0.9h0c0.1-0.3,0.2-0.6,0.3-0.9l0.7-2.1H28L26.5,28h-0.6l-1.4-3.6H25.2z"/>
		<path d="M28.9,26.3c0,0.9,0.6,1.3,1.3,1.3c0.5,0,0.8-0.1,1-0.2l0.1,0.5C31,28,30.6,28.1,30,28.1c-1.1,0-1.8-0.7-1.8-1.8
			s0.6-2,1.7-2c1.2,0,1.5,1,1.5,1.7c0,0.1,0,0.2,0,0.3H28.9z M30.8,25.9c0-0.4-0.2-1.1-0.9-1.1c-0.7,0-1,0.6-1,1.1H30.8z"/>
		<path d="M35.4,22.7v4.4c0,0.3,0,0.7,0,0.9h-0.6l0-0.6h0c-0.2,0.4-0.6,0.7-1.2,0.7c-0.9,0-1.6-0.7-1.6-1.9c0-1.2,0.7-2,1.6-2
			c0.6,0,0.9,0.3,1.1,0.6h0v-2.2H35.4z M34.8,25.9c0-0.1,0-0.2,0-0.3c-0.1-0.4-0.5-0.8-1-0.8c-0.7,0-1.1,0.6-1.1,1.4
			c0,0.7,0.4,1.3,1.1,1.3c0.4,0,0.9-0.3,1-0.8c0-0.1,0-0.2,0-0.3V25.9z"/>
		<path d="M7.5,31.5H5.9V31h3.8v0.6H8.1V36H7.5V31.5z"/>
		<path d="M9.9,33.5c0-0.4,0-0.8,0-1.1h0.6l0,0.7h0c0.2-0.5,0.6-0.8,1-0.8c0.1,0,0.1,0,0.2,0V33c-0.1,0-0.1,0-0.2,0
			c-0.5,0-0.8,0.4-0.9,0.9c0,0.1,0,0.2,0,0.3V36H9.9V33.5z"/>
		<path d="M14.3,36l-0.1-0.5h0c-0.2,0.3-0.6,0.5-1.1,0.5c-0.7,0-1.1-0.5-1.1-1c0-0.9,0.8-1.4,2.2-1.4v-0.1c0-0.3-0.1-0.8-0.8-0.8
			c-0.3,0-0.7,0.1-1,0.3l-0.2-0.4c0.3-0.2,0.7-0.3,1.2-0.3c1.1,0,1.4,0.8,1.4,1.5v1.4c0,0.3,0,0.6,0.1,0.9H14.3z M14.2,34.2
			c-0.7,0-1.5,0.1-1.5,0.8c0,0.4,0.3,0.6,0.6,0.6c0.5,0,0.8-0.3,0.9-0.6c0-0.1,0-0.1,0-0.2V34.2z"/>
		<path d="M18.5,35.9c-0.2,0.1-0.6,0.2-1,0.2c-1.1,0-1.8-0.7-1.8-1.9c0-1.1,0.8-1.9,2-1.9c0.4,0,0.7,0.1,0.9,0.2L18.4,33
			c-0.2-0.1-0.4-0.2-0.8-0.2c-0.8,0-1.3,0.6-1.3,1.4c0,0.8,0.5,1.4,1.3,1.4c0.4,0,0.6-0.1,0.8-0.2L18.5,35.9z"/>
		<path d="M20,34.1L20,34.1c0.1-0.1,0.2-0.3,0.3-0.4l1.1-1.3h0.8l-1.4,1.5l1.6,2.1h-0.8l-1.3-1.7L20,34.7V36h-0.7v-5.4H20V34.1z"/>
		<path d="M24.5,31h0.7v4.5h2.2V36h-2.8V31z"/>
		<path d="M28.7,31.4c0,0.2-0.2,0.4-0.4,0.4c-0.2,0-0.4-0.2-0.4-0.4c0-0.2,0.2-0.4,0.4-0.4C28.6,31,28.7,31.1,28.7,31.4z M28,36
			v-3.6h0.7V36H28z"/>
		<path d="M29.8,33.4c0-0.4,0-0.7,0-1h0.6l0,0.6h0c0.2-0.3,0.6-0.7,1.2-0.7c0.5,0,1.3,0.3,1.3,1.6V36h-0.7v-2.1
			c0-0.6-0.2-1.1-0.8-1.1c-0.4,0-0.8,0.3-0.9,0.7c0,0.1,0,0.2,0,0.3V36h-0.7V33.4z"/>
		<path d="M34.3,34.3c0,0.9,0.6,1.3,1.3,1.3c0.5,0,0.8-0.1,1-0.2l0.1,0.5c-0.2,0.1-0.6,0.2-1.2,0.2c-1.1,0-1.8-0.7-1.8-1.8
			s0.6-2,1.7-2c1.2,0,1.5,1,1.5,1.7c0,0.1,0,0.2,0,0.3H34.3z M36.3,33.9c0-0.4-0.2-1.1-0.9-1.1c-0.7,0-1,0.6-1,1.1H36.3z"/>
	</g>
</g>
</svg>
