<?xml version="1.0" encoding="utf-8"?>
<!-- Generator: Adobe Illustrator 18.1.1, SVG Export Plug-In . SVG Version: 6.00 Build 0)  -->
<!DOCTYPE svg PUBLIC "-//W3C//DTD SVG 1.1//EN" "http://www.w3.org/Graphics/SVG/1.1/DTD/svg11.dtd">
<svg version="1.1" id="Layer_1" xmlns="http://www.w3.org/2000/svg" xmlns:xlink="http://www.w3.org/1999/xlink" x="0px" y="0px"
	 viewBox="-7.6 -8.1 43.1 41.1" enable-background="new -7.6 -8.1 43.1 41.1" xml:space="preserve">
<polygon fill="#9F1C3F" points="6.3,-8.1 13,-8.1 13,9.4 22.3,9.4 22.3,16.9 6.3,16.9 "/>
<g>
	<path d="M-1.5,23.6V26h-0.7v-5.7h1.6c0.7,0,1.2,0.1,1.6,0.4s0.5,0.7,0.5,1.2c0,0.8-0.4,1.3-1.1,1.5L1.8,26H1.1l-1.4-2.4H-1.5z
		 M-1.5,23h0.9c0.5,0,0.8-0.1,1-0.3s0.3-0.5,0.3-0.8c0-0.4-0.1-0.6-0.3-0.8s-0.6-0.2-1.1-0.2h-0.9V23z"/>
	<path d="M4.5,26.1c-0.6,0-1.1-0.2-1.5-0.6s-0.5-0.9-0.5-1.6c0-0.7,0.2-1.2,0.5-1.6s0.8-0.6,1.4-0.6c0.5,0,1,0.2,1.3,0.5
		s0.5,0.8,0.5,1.4V24H3.1c0,0.5,0.1,0.9,0.4,1.1s0.6,0.4,1,0.4c0.5,0,0.9-0.1,1.4-0.3v0.6C5.6,25.9,5.4,26,5.2,26S4.8,26.1,4.5,26.1
		z M4.3,22.2c-0.3,0-0.6,0.1-0.8,0.3S3.2,23,3.1,23.4h2.2c0-0.4-0.1-0.7-0.3-0.9S4.6,22.2,4.3,22.2z"/>
	<path d="M12.6,26v-2.8c0-0.3-0.1-0.6-0.2-0.8s-0.4-0.3-0.7-0.3c-0.4,0-0.7,0.1-0.9,0.3s-0.3,0.6-0.3,1.1V26H9.9v-2.8
		c0-0.3-0.1-0.6-0.2-0.8S9.3,22.2,9,22.2c-0.4,0-0.7,0.1-0.9,0.4c-0.2,0.2-0.3,0.6-0.3,1.2V26H7.2v-4.3h0.5l0.1,0.6h0
		c0.1-0.2,0.3-0.4,0.5-0.5s0.5-0.2,0.7-0.2c0.7,0,1.1,0.2,1.3,0.7h0c0.1-0.2,0.3-0.4,0.6-0.5s0.5-0.2,0.8-0.2c0.5,0,0.8,0.1,1.1,0.4
		s0.4,0.6,0.4,1.2V26H12.6z"/>
	<path d="M17.5,26v-2.8c0-0.3-0.1-0.6-0.2-0.8s-0.4-0.3-0.7-0.3c-0.4,0-0.8,0.1-1,0.4s-0.3,0.6-0.3,1.2V26h-0.6v-4.3h0.5l0.1,0.6h0
		c0.1-0.2,0.3-0.4,0.6-0.5s0.5-0.2,0.8-0.2c0.5,0,0.9,0.1,1.2,0.4s0.4,0.6,0.4,1.2V26H17.5z"/>
	<path d="M22.1,26L22,25.4h0c-0.2,0.3-0.4,0.5-0.6,0.5s-0.5,0.1-0.8,0.1c-0.4,0-0.8-0.1-1-0.3s-0.4-0.5-0.4-0.9
		c0-0.9,0.7-1.3,2.1-1.4l0.7,0v-0.3c0-0.3-0.1-0.6-0.2-0.7s-0.4-0.2-0.7-0.2c-0.4,0-0.8,0.1-1.2,0.3L19.7,22
		c0.2-0.1,0.4-0.2,0.7-0.3s0.5-0.1,0.8-0.1c0.5,0,0.9,0.1,1.1,0.3s0.4,0.6,0.4,1.1V26H22.1z M20.7,25.5c0.4,0,0.7-0.1,1-0.3
		s0.3-0.5,0.3-0.9v-0.4l-0.6,0c-0.5,0-0.9,0.1-1.1,0.2s-0.3,0.4-0.3,0.7c0,0.2,0.1,0.4,0.2,0.5S20.4,25.5,20.7,25.5z"/>
	<path d="M26.9,26v-2.8c0-0.3-0.1-0.6-0.2-0.8s-0.4-0.3-0.7-0.3c-0.4,0-0.8,0.1-1,0.4s-0.3,0.6-0.3,1.2V26H24v-4.3h0.5l0.1,0.6h0
		c0.1-0.2,0.3-0.4,0.6-0.5s0.5-0.2,0.8-0.2c0.5,0,0.9,0.1,1.2,0.4s0.4,0.6,0.4,1.2V26H26.9z"/>
	<path d="M30.3,25.5c0.1,0,0.2,0,0.3,0s0.2,0,0.3-0.1v0.5c-0.1,0-0.2,0.1-0.3,0.1s-0.3,0-0.4,0c-0.8,0-1.2-0.4-1.2-1.3v-2.5h-0.6
		v-0.3l0.6-0.3l0.3-0.9h0.4v1h1.2v0.5h-1.2v2.5c0,0.3,0.1,0.5,0.2,0.6S30,25.5,30.3,25.5z"/>
	<path d="M7.2,33v-5.7h0.7v5.1h2.5V33H7.2z"/>
	<path d="M15,30.8c0,0.7-0.2,1.2-0.5,1.6s-0.8,0.6-1.5,0.6c-0.4,0-0.7-0.1-1-0.3s-0.5-0.4-0.7-0.8S11,31.3,11,30.8
		c0-0.7,0.2-1.2,0.5-1.6s0.8-0.6,1.5-0.6c0.6,0,1.1,0.2,1.4,0.6C14.8,29.6,15,30.2,15,30.8z M11.7,30.8c0,0.5,0.1,1,0.3,1.2
		s0.5,0.4,1,0.4s0.7-0.1,1-0.4c0.2-0.3,0.3-0.7,0.3-1.3c0-0.5-0.1-1-0.3-1.2c-0.2-0.3-0.5-0.4-1-0.4c-0.4,0-0.7,0.1-1,0.4
		S11.7,30.3,11.7,30.8z"/>
	<path d="M19.6,33l-0.8-2.5c0-0.2-0.1-0.5-0.3-1h0c-0.1,0.5-0.2,0.8-0.3,1.1L17.4,33h-0.8l-1.2-4.3h0.7c0.3,1.1,0.5,1.9,0.6,2.5
		s0.2,0.9,0.2,1.1h0c0-0.1,0.1-0.3,0.1-0.6s0.1-0.4,0.2-0.6l0.8-2.5h0.7l0.8,2.5c0.1,0.4,0.2,0.8,0.3,1.1h0c0-0.1,0-0.2,0.1-0.4
		s0.3-1.2,0.8-3.2h0.7L20.4,33H19.6z"/>
</g>
</svg>
