<?xml version="1.0" encoding="utf-8"?>
<!-- Generator: Adobe Illustrator 18.1.1, SVG Export Plug-In . SVG Version: 6.00 Build 0)  -->
<!DOCTYPE svg PUBLIC "-//W3C//DTD SVG 1.1//EN" "http://www.w3.org/Graphics/SVG/1.1/DTD/svg11.dtd">
<svg version="1.1" id="Layer_1" xmlns="http://www.w3.org/2000/svg" xmlns:xlink="http://www.w3.org/1999/xlink" x="0px" y="0px"
	 viewBox="0 -5.7 28 36.4" enable-background="new 0 -5.7 28 36.4" xml:space="preserve">
<g>
	<circle fill="#F5F5F5" cx="14" cy="6.8" r="12.5"/>
	<circle fill="#9F1C3F" cx="14" cy="6.8" r="8.8"/>
</g>
<g>
	<path d="M9.8,30.6H9v-6.4H6.8v-0.7h5.4v0.7H9.8V30.6z"/>
	<path d="M12.9,30.1c0-0.2,0-0.4,0.1-0.5s0.2-0.2,0.4-0.2c0.2,0,0.3,0.1,0.4,0.2s0.2,0.3,0.2,0.5c0,0.2-0.1,0.4-0.2,0.5
		c-0.1,0.1-0.3,0.2-0.4,0.2c-0.2,0-0.3-0.1-0.4-0.2S12.9,30.4,12.9,30.1z"/>
	<path d="M21.5,27c0,1.2-0.3,2.1-1,2.7c-0.6,0.6-1.6,0.9-2.8,0.9h-2v-7.1H18c1.1,0,2,0.3,2.6,0.9S21.5,25.9,21.5,27z M20.7,27
		c0-0.9-0.2-1.6-0.7-2.1c-0.5-0.5-1.2-0.7-2.1-0.7h-1.2v5.7h1c1,0,1.7-0.2,2.2-0.7C20.4,28.7,20.7,28,20.7,27z"/>
	<path d="M22.9,30.1c0-0.2,0-0.4,0.1-0.5s0.2-0.2,0.4-0.2c0.2,0,0.3,0.1,0.4,0.2s0.2,0.3,0.2,0.5c0,0.2-0.1,0.4-0.2,0.5
		c-0.1,0.1-0.3,0.2-0.4,0.2c-0.2,0-0.3-0.1-0.4-0.2S22.9,30.4,22.9,30.1z"/>
</g>
</svg>
