<?xml version="1.0" encoding="utf-8"?>
<!-- Generator: Adobe Illustrator 22.1.0, SVG Export Plug-In . SVG Version: 6.00 Build 0)  -->
<svg version="1.1" id="Layer_1" xmlns="http://www.w3.org/2000/svg" xmlns:xlink="http://www.w3.org/1999/xlink" x="0px" y="0px"
	 viewBox="0 0 43.1 41.1" style="enable-background:new 0 0 43.1 41.1;" xml:space="preserve">
<style type="text/css">
	.st0{fill:#404041;}
	.st1{opacity:0.8;}
	.st2{fill:#FFFFFF;}
</style>
<g>
	<g>
		<path class="st0" d="M25.5,1.5c2.4,0,4.6,1,6.6,3c2.1,2.2,2.3,4.7,0.6,7.7c-1.5,2.3-3.8,4.1-6.4,4.8c-1,0.3-2,0.6-3,0.9
			c-5.1,1.5-10.4,3.1-14.3,3.9L15,8.6c1.5-3.4,4.3-5.8,7.9-6.8C23.8,1.6,24.7,1.5,25.5,1.5 M25.5,0.5c-1,0-2,0.2-2.9,0.4
			c-3.9,1.1-6.9,3.8-8.5,7.3L7.9,21.6c-0.4,0.6,0.2,1.2,0.8,1.2c0.1,0,0.2,0,0.2,0c4.7-1,11.5-3.1,17.6-4.9c2.9-0.8,5.4-2.7,7-5.2
			c1.5-2.6,2.2-5.9-0.7-8.9C30.4,1.4,27.9,0.5,25.5,0.5L25.5,0.5z"/>
	</g>
</g>
<g>
	<path d="M13.6,33.2h-0.7v-5.1h-1.8v-0.6h4.3v0.6h-1.8V33.2z"/>
	<path d="M18.1,28.8c0.2,0,0.4,0,0.5,0l-0.1,0.6c-0.2,0-0.3-0.1-0.5-0.1c-0.3,0-0.6,0.1-0.9,0.4s-0.4,0.6-0.4,1.1v2.3h-0.6v-4.3h0.5
		l0.1,0.9l0,0c0.2-0.3,0.4-0.5,0.6-0.6S17.8,28.8,18.1,28.8z"/>
	<path d="M22,33.2l-0.1-0.6l0,0c-0.2,0.3-0.4,0.5-0.6,0.5s-0.5,0.1-0.8,0.1c-0.4,0-0.8-0.1-1-0.3c-0.2-0.2-0.4-0.5-0.4-0.9
		c0-0.9,0.7-1.3,2.1-1.4h0.7v-0.3c0-0.3-0.1-0.6-0.2-0.7c-0.1-0.1-0.4-0.2-0.7-0.2c-0.4,0-0.8,0.1-1.2,0.3l-0.2-0.5
		c0.2-0.1,0.4-0.2,0.7-0.3c0.3-0.1,0.5-0.1,0.8-0.1c0.5,0,0.9,0.1,1.1,0.3s0.4,0.6,0.4,1.1v2.9L22,33.2L22,33.2z M20.6,32.7
		c0.4,0,0.7-0.1,1-0.3c0.3-0.2,0.3-0.5,0.3-0.9v-0.4h-0.6c-0.5,0-0.9,0.1-1.1,0.2s-0.3,0.4-0.3,0.7c0,0.2,0.1,0.4,0.2,0.5
		C20.2,32.6,20.3,32.7,20.6,32.7z"/>
	<path d="M25.6,33.2c-0.6,0-1.1-0.2-1.4-0.6s-0.5-0.9-0.5-1.6s0.2-1.3,0.5-1.7s0.8-0.6,1.5-0.6c0.2,0,0.4,0,0.6,0.1s0.4,0.1,0.5,0.2
		l-0.2,0.6c-0.1-0.1-0.3-0.1-0.5-0.1s-0.3-0.1-0.4-0.1c-0.9,0-1.3,0.6-1.3,1.7c0,0.5,0.1,0.9,0.3,1.2c0.2,0.3,0.4,0.4,0.8,0.4
		s0.7-0.1,1.1-0.2v0.6C26.4,33.2,26,33.2,25.6,33.2z"/>
	<path d="M28.3,31c0.1-0.2,0.3-0.4,0.5-0.6l1.4-1.5H31l-1.8,1.8l1.9,2.5h-0.8l-1.5-2l-0.5,0.4v1.6h-0.6v-6.1h0.6v3.2
		C28.3,30.4,28.3,30.7,28.3,31L28.3,31z"/>
	<path d="M4.5,33.4v3.7c0,0.7-0.2,1.2-0.6,1.5c-0.4,0.3-0.9,0.6-1.6,0.6S1.1,39,0.7,38.7c-0.4-0.3-0.6-0.9-0.6-1.6v-3.7h0.7v3.7
		c0,0.5,0.1,0.8,0.4,1.1c0.3,0.3,0.6,0.5,1.1,0.5s0.9-0.1,1.1-0.4s0.4-0.6,0.4-1.1v-3.7L4.5,33.4L4.5,33.4z"/>
	<path d="M8.9,39.2v-2.8c0-0.3-0.1-0.6-0.2-0.8c-0.1-0.2-0.4-0.3-0.7-0.3c-0.4,0-0.8,0.1-1,0.4c-0.2,0.3-0.3,0.6-0.3,1.2v2.2H6.1
		v-4.3h0.5l0.1,0.6l0,0C6.8,35.2,7,35,7.3,34.9c0.3-0.1,0.5-0.2,0.8-0.2c0.5,0,0.9,0.1,1.2,0.4c0.3,0.3,0.4,0.6,0.4,1.2v2.8
		L8.9,39.2L8.9,39.2z"/>
	<path d="M12.6,39.2c-0.6,0-1.1-0.2-1.4-0.6c-0.3-0.4-0.6-0.9-0.6-1.6c0-0.7,0.2-1.3,0.5-1.7c0.3-0.4,0.8-0.6,1.5-0.6
		c0.2,0,0.4,0,0.6,0.1c0.2,0.1,0.4,0.1,0.5,0.2l-0.2,0.6c-0.1-0.1-0.3-0.1-0.5-0.1s-0.3-0.1-0.4-0.1c-0.9,0-1.3,0.6-1.3,1.7
		c0,0.5,0.1,0.9,0.3,1.2c0.2,0.3,0.5,0.4,0.9,0.4s0.7-0.1,1.1-0.2v0.6C13.3,39.2,13,39.2,12.6,39.2z"/>
	<path d="M16.5,39.2c-0.6,0-1.1-0.2-1.5-0.6c-0.4-0.4-0.6-0.9-0.6-1.5c0-0.7,0.2-1.2,0.5-1.6c0.3-0.4,0.8-0.6,1.4-0.6
		c0.5,0,1,0.2,1.3,0.5c0.3,0.3,0.5,0.8,0.5,1.4v0.4h-3c0,0.5,0.1,0.9,0.4,1.1c0.3,0.2,0.6,0.4,1,0.4c0.5,0,0.9-0.1,1.4-0.3V39
		c-0.2,0.1-0.4,0.2-0.7,0.2C16.9,39.2,16.7,39.2,16.5,39.2z M16.3,35.3c-0.3,0-0.6,0.1-0.8,0.3c-0.2,0.2-0.4,0.6-0.4,1h2.2
		c0-0.4-0.1-0.7-0.3-0.9C16.8,35.5,16.6,35.3,16.3,35.3z"/>
	<path d="M21.1,34.8c0.2,0,0.4,0,0.5,0l-0.1,0.6c-0.2,0-0.3-0.1-0.5-0.1c-0.3,0-0.6,0.1-0.9,0.4c-0.3,0.3-0.4,0.6-0.4,1.1v2.3h-0.6
		v-4.3h0.5l0.1,0.8l0,0c0.2-0.3,0.4-0.5,0.6-0.6S20.8,34.8,21.1,34.8z"/>
	<path d="M23.8,38.7c0.1,0,0.2,0,0.3,0s0.2,0,0.3-0.1v0.5c-0.1,0-0.2,0.1-0.3,0.1s-0.3,0-0.4,0c-0.8,0-1.2-0.4-1.2-1.3v-2.5h-0.6
		v-0.3l0.6-0.3l0.3-0.9h0.3v1h1.2v0.5h-1.2v2.5c0,0.3,0.1,0.5,0.2,0.6S23.6,38.7,23.8,38.7z"/>
	<path d="M27.9,39.2l-0.1-0.6l0,0c-0.2,0.3-0.4,0.5-0.6,0.5s-0.5,0.1-0.8,0.1c-0.4,0-0.8-0.1-1-0.3C25.2,38.7,25,38.4,25,38
		c0-0.9,0.7-1.3,2.1-1.4h0.7v-0.3c0-0.3-0.1-0.6-0.2-0.7s-0.4-0.2-0.7-0.2c-0.4,0-0.8,0.1-1.2,0.3l-0.2-0.5c0.2-0.1,0.4-0.2,0.7-0.3
		s0.5-0.1,0.8-0.1c0.5,0,0.9,0.1,1.1,0.3c0.2,0.2,0.4,0.6,0.4,1.1v2.9L27.9,39.2L27.9,39.2z M26.4,38.7c0.4,0,0.7-0.1,1-0.3
		c0.3-0.2,0.3-0.5,0.3-0.9v-0.4h-0.6c-0.5,0-0.9,0.1-1.1,0.2c-0.2,0.1-0.3,0.4-0.3,0.7c0,0.2,0.1,0.4,0.2,0.5S26.1,38.7,26.4,38.7z"
		/>
	<path d="M29.6,33.7c0-0.1,0-0.3,0.1-0.3s0.2-0.1,0.3-0.1c0.1,0,0.2,0,0.3,0.1c0.1,0.1,0.1,0.2,0.1,0.3s0,0.3-0.1,0.3
		s-0.2,0.1-0.3,0.1c-0.1,0-0.2,0-0.3-0.1C29.6,33.9,29.6,33.9,29.6,33.7z M30.3,39.2h-0.6v-4.3h0.6V39.2z"/>
	<path d="M34.6,39.2v-2.8c0-0.3-0.1-0.6-0.2-0.8c-0.1-0.2-0.4-0.3-0.7-0.3c-0.4,0-0.8,0.1-1,0.4s-0.3,0.6-0.3,1.2v2.2h-0.6v-4.3h0.5
		l0.1,0.6l0,0c0.1-0.2,0.3-0.4,0.6-0.5c0.3-0.1,0.5-0.2,0.8-0.2c0.5,0,0.9,0.1,1.2,0.4c0.3,0.3,0.4,0.6,0.4,1.2v2.8L34.6,39.2
		L34.6,39.2z"/>
	<path d="M38,38.7c0.1,0,0.2,0,0.3,0s0.2,0,0.3-0.1v0.5c-0.1,0-0.2,0.1-0.3,0.1s-0.3,0-0.4,0c-0.8,0-1.2-0.4-1.2-1.3v-2.5h-0.6v-0.3
		l0.6-0.3l0.3-0.9h0.4v1h1.2v0.5h-1.2v2.5c0,0.3,0.1,0.5,0.2,0.6C37.7,38.6,37.8,38.7,38,38.7z"/>
	<path d="M38.8,34.9h0.7l0.9,2.4c0.2,0.6,0.3,1,0.4,1.2l0,0c0-0.1,0.1-0.4,0.2-0.7c0.1-0.3,0.5-1.3,1.1-3h0.7L41,39.7
		c-0.2,0.5-0.4,0.8-0.6,1c-0.2,0.2-0.5,0.3-0.9,0.3c-0.2,0-0.4,0-0.6-0.1v-0.5c0.1,0,0.3,0,0.5,0c0.4,0,0.8-0.2,1-0.8l0.2-0.6
		L38.8,34.9z"/>
</g>
<g class="st1">
	<path class="st2" d="M7.9,21.6c-0.4,0.7,0.3,1.4,1,1.2c4.7-1,11.5-3.1,17.6-4.9c2.9-0.8,5.4-2.7,7-5.2c1.5-2.6,2.2-5.9-0.7-8.9
		C29.4,0.3,25.7,0,22.6,0.9c-3.9,1.1-6.9,3.8-8.5,7.3L7.9,21.6z"/>
</g>
</svg>
