<?xml version="1.0" encoding="utf-8"?>
<!-- Generator: Adobe Illustrator 18.1.1, SVG Export Plug-In . SVG Version: 6.00 Build 0)  -->
<!DOCTYPE svg PUBLIC "-//W3C//DTD SVG 1.1//EN" "http://www.w3.org/Graphics/SVG/1.1/DTD/svg11.dtd">
<svg version="1.1" id="Layer_1" xmlns="http://www.w3.org/2000/svg" xmlns:xlink="http://www.w3.org/1999/xlink" x="0px" y="0px"
	 viewBox="-7.1 -5.7 43.1 41.1" enable-background="new -7.1 -5.7 43.1 41.1" xml:space="preserve">
<g>
	<path fill="none" stroke="#404041" stroke-width="0.9958" stroke-miterlimit="10" d="M0.8,15.9c-0.4,0.7,0.3,1.4,1,1.2
		c4.7-1,11.5-3.1,17.6-4.9c2.9-0.8,5.4-2.7,7-5.2c1.5-2.6,2.2-5.9-0.7-8.9c-3.4-3.5-7.1-3.8-10.2-2.9C11.6-3.7,8.6-1,7,2.5L0.8,15.9
		z"/>
	<path fill="#A7D38B" d="M11.3,15.2c1.5-0.4,2.9-1.4,3.7-2.9c1.2-2.2,1.3-4.6,0.2-6.5C14.3,4.4,13,3.5,11.4,3
		C8.7,2.3,5.8,3.8,4.7,6.3l-4.5,9.8c0,0-1,2.2,1.4,1.7L11.3,15.2z"/>
</g>
<g>
	<path d="M6.5,27.5H5.8v-5.1H4v-0.6h4.3v0.6H6.5V27.5z"/>
	<path d="M11,23.1c0.2,0,0.4,0,0.5,0l-0.1,0.6c-0.2,0-0.3-0.1-0.5-0.1c-0.3,0-0.6,0.1-0.9,0.4s-0.4,0.6-0.4,1.1v2.3H9v-4.3h0.5
		L9.6,24h0c0.2-0.3,0.4-0.5,0.6-0.6S10.7,23.1,11,23.1z"/>
	<path d="M14.9,27.5l-0.1-0.6h0c-0.2,0.3-0.4,0.5-0.6,0.5s-0.5,0.1-0.8,0.1c-0.4,0-0.8-0.1-1-0.3S12,26.7,12,26.3
		c0-0.9,0.7-1.3,2.1-1.4l0.7,0v-0.3c0-0.3-0.1-0.6-0.2-0.7s-0.4-0.2-0.7-0.2c-0.4,0-0.8,0.1-1.2,0.3l-0.2-0.5
		c0.2-0.1,0.4-0.2,0.7-0.3s0.5-0.1,0.8-0.1c0.5,0,0.9,0.1,1.1,0.3s0.4,0.6,0.4,1.1v2.9H14.9z M13.5,27c0.4,0,0.7-0.1,1-0.3
		s0.3-0.5,0.3-0.9v-0.4l-0.6,0c-0.5,0-0.9,0.1-1.1,0.2s-0.3,0.4-0.3,0.7c0,0.2,0.1,0.4,0.2,0.5S13.2,27,13.5,27z"/>
	<path d="M18.5,27.5c-0.6,0-1.1-0.2-1.4-0.6s-0.5-0.9-0.5-1.6c0-0.7,0.2-1.3,0.5-1.7s0.8-0.6,1.5-0.6c0.2,0,0.4,0,0.6,0.1
		s0.4,0.1,0.5,0.2l-0.2,0.6c-0.1-0.1-0.3-0.1-0.5-0.1s-0.3-0.1-0.4-0.1c-0.9,0-1.3,0.6-1.3,1.7c0,0.5,0.1,0.9,0.3,1.2S18,27,18.4,27
		c0.4,0,0.7-0.1,1.1-0.2v0.6C19.3,27.5,18.9,27.5,18.5,27.5z"/>
	<path d="M21.2,25.3c0.1-0.2,0.3-0.4,0.5-0.6l1.4-1.5h0.8L22.1,25l1.9,2.5h-0.8l-1.5-2l-0.5,0.4v1.6h-0.6v-6.1h0.6v3.2
		C21.2,24.7,21.2,25,21.2,25.3L21.2,25.3z"/>
	<path d="M-2.6,27.7v3.7c0,0.7-0.2,1.2-0.6,1.5s-0.9,0.6-1.6,0.6S-6,33.3-6.4,33S-7,32.1-7,31.4v-3.7h0.7v3.7c0,0.5,0.1,0.8,0.4,1.1
		S-5.3,33-4.8,33c0.5,0,0.9-0.1,1.1-0.4s0.4-0.6,0.4-1.1v-3.7H-2.6z"/>
	<path d="M1.8,33.5v-2.8c0-0.3-0.1-0.6-0.2-0.8s-0.4-0.3-0.7-0.3c-0.4,0-0.8,0.1-1,0.4s-0.3,0.6-0.3,1.2v2.2h-0.6v-4.3h0.5l0.1,0.6
		h0c0.1-0.2,0.3-0.4,0.6-0.5s0.5-0.2,0.8-0.2c0.5,0,0.9,0.1,1.2,0.4s0.4,0.6,0.4,1.2v2.8H1.8z"/>
	<path d="M5.5,33.5c-0.6,0-1.1-0.2-1.4-0.6S3.5,32,3.5,31.3c0-0.7,0.2-1.3,0.5-1.7s0.8-0.6,1.5-0.6c0.2,0,0.4,0,0.6,0.1
		s0.4,0.1,0.5,0.2l-0.2,0.6c-0.1-0.1-0.3-0.1-0.5-0.1s-0.3-0.1-0.4-0.1c-0.9,0-1.3,0.6-1.3,1.7c0,0.5,0.1,0.9,0.3,1.2S5,33,5.4,33
		c0.4,0,0.7-0.1,1.1-0.2v0.6C6.2,33.5,5.9,33.5,5.5,33.5z"/>
	<path d="M9.4,33.5c-0.6,0-1.1-0.2-1.5-0.6S7.3,32,7.3,31.4c0-0.7,0.2-1.2,0.5-1.6s0.8-0.6,1.4-0.6c0.5,0,1,0.2,1.3,0.5
		s0.5,0.8,0.5,1.4v0.4H8c0,0.5,0.1,0.9,0.4,1.1s0.6,0.4,1,0.4c0.5,0,0.9-0.1,1.4-0.3v0.6c-0.2,0.1-0.4,0.2-0.7,0.2
		S9.6,33.5,9.4,33.5z M9.2,29.6c-0.3,0-0.6,0.1-0.8,0.3S8,30.5,8,30.9h2.2c0-0.4-0.1-0.7-0.3-0.9S9.5,29.6,9.2,29.6z"/>
	<path d="M14,29.1c0.2,0,0.4,0,0.5,0l-0.1,0.6c-0.2,0-0.3-0.1-0.5-0.1c-0.3,0-0.6,0.1-0.9,0.4s-0.4,0.6-0.4,1.1v2.3H12v-4.3h0.5
		l0.1,0.8h0c0.2-0.3,0.4-0.5,0.6-0.6S13.7,29.1,14,29.1z"/>
	<path d="M16.7,33c0.1,0,0.2,0,0.3,0s0.2,0,0.3-0.1v0.5c-0.1,0-0.2,0.1-0.3,0.1s-0.3,0-0.4,0c-0.8,0-1.2-0.4-1.2-1.3v-2.5h-0.6v-0.3
		l0.6-0.3l0.3-0.9H16v1h1.2v0.5H16v2.5c0,0.3,0.1,0.5,0.2,0.6S16.5,33,16.7,33z"/>
	<path d="M20.8,33.5l-0.1-0.6h0c-0.2,0.3-0.4,0.5-0.6,0.5s-0.5,0.1-0.8,0.1c-0.4,0-0.8-0.1-1-0.3s-0.4-0.5-0.4-0.9
		c0-0.9,0.7-1.3,2.1-1.4l0.7,0v-0.3c0-0.3-0.1-0.6-0.2-0.7s-0.4-0.2-0.7-0.2c-0.4,0-0.8,0.1-1.2,0.3l-0.2-0.5
		c0.2-0.1,0.4-0.2,0.7-0.3s0.5-0.1,0.8-0.1c0.5,0,0.9,0.1,1.1,0.3s0.4,0.6,0.4,1.1v2.9H20.8z M19.3,33c0.4,0,0.7-0.1,1-0.3
		s0.3-0.5,0.3-0.9v-0.4l-0.6,0c-0.5,0-0.9,0.1-1.1,0.2s-0.3,0.4-0.3,0.7c0,0.2,0.1,0.4,0.2,0.5S19,33,19.3,33z"/>
	<path d="M22.5,28c0-0.1,0-0.3,0.1-0.3s0.2-0.1,0.3-0.1c0.1,0,0.2,0,0.3,0.1s0.1,0.2,0.1,0.3s0,0.3-0.1,0.3s-0.2,0.1-0.3,0.1
		c-0.1,0-0.2,0-0.3-0.1S22.5,28.2,22.5,28z M23.2,33.5h-0.6v-4.3h0.6V33.5z"/>
	<path d="M27.5,33.5v-2.8c0-0.3-0.1-0.6-0.2-0.8s-0.4-0.3-0.7-0.3c-0.4,0-0.8,0.1-1,0.4s-0.3,0.6-0.3,1.2v2.2h-0.6v-4.3h0.5l0.1,0.6
		h0c0.1-0.2,0.3-0.4,0.6-0.5s0.5-0.2,0.8-0.2c0.5,0,0.9,0.1,1.2,0.4s0.4,0.6,0.4,1.2v2.8H27.5z"/>
	<path d="M30.9,33c0.1,0,0.2,0,0.3,0s0.2,0,0.3-0.1v0.5c-0.1,0-0.2,0.1-0.3,0.1s-0.3,0-0.4,0c-0.8,0-1.2-0.4-1.2-1.3v-2.5h-0.6v-0.3
		l0.6-0.3l0.3-0.9h0.4v1h1.2v0.5h-1.2v2.5c0,0.3,0.1,0.5,0.2,0.6S30.7,33,30.9,33z"/>
	<path d="M31.7,29.2h0.7l0.9,2.4c0.2,0.6,0.3,1,0.4,1.2h0c0-0.1,0.1-0.4,0.2-0.7s0.5-1.3,1.1-3h0.7l-1.8,4.9c-0.2,0.5-0.4,0.8-0.6,1
		s-0.5,0.3-0.9,0.3c-0.2,0-0.4,0-0.6-0.1v-0.5c0.1,0,0.3,0,0.5,0c0.4,0,0.8-0.2,1-0.8l0.2-0.6L31.7,29.2z"/>
</g>
</svg>
