<?xml version="1.0" encoding="utf-8"?>
<!-- Generator: Adobe Illustrator 18.1.1, SVG Export Plug-In . SVG Version: 6.00 Build 0)  -->
<!DOCTYPE svg PUBLIC "-//W3C//DTD SVG 1.1//EN" "http://www.w3.org/Graphics/SVG/1.1/DTD/svg11.dtd">
<svg version="1.1" id="Layer_1" xmlns="http://www.w3.org/2000/svg" xmlns:xlink="http://www.w3.org/1999/xlink" x="0px" y="0px"
	 viewBox="0 0 31.3 28" enable-background="new 0 0 31.3 28" xml:space="preserve">
<g>
	<path fill="none" stroke="#404041" stroke-width="0.9958" stroke-miterlimit="10" d="M0.9,25.8c-0.4,0.8,0.3,1.6,1.1,1.4
		c5.3-1.1,12.9-3.5,19.7-5.5c3.2-0.9,6.1-3,7.8-5.8c1.7-2.9,2.5-6.6-0.8-10c-3.8-3.9-8-4.2-11.4-3.3C13,3.8,9.6,6.9,7.8,10.8
		L0.9,25.8z"/>
	<path fill="#A7D38B" d="M12.6,25c1.7-0.5,3.3-1.6,4.1-3.2c1.3-2.5,1.5-5.2,0.2-7.3c-0.9-1.6-2.4-2.6-4.2-3.1
		c-3-0.8-6.2,0.8-7.5,3.6l-5,11c0,0-1.1,2.5,1.6,1.9L12.6,25z"/>
</g>
</svg>
