<?xml version="1.0" encoding="utf-8"?>
<!-- Generator: Adobe Illustrator 18.1.1, SVG Export Plug-In . SVG Version: 6.00 Build 0)  -->
<!DOCTYPE svg PUBLIC "-//W3C//DTD SVG 1.1//EN" "http://www.w3.org/Graphics/SVG/1.1/DTD/svg11.dtd">
<svg version="1.1" id="Layer_1" xmlns="http://www.w3.org/2000/svg" xmlns:xlink="http://www.w3.org/1999/xlink" x="0px" y="0px"
	 viewBox="0 -5.7 28 36.4" enable-background="new 0 -5.7 28 36.4" xml:space="preserve">
<path fill="#9F1C3F" d="M27.9-4.2c0,0-13.4-5.8-21.5,5.1C6.3,1,6.2,1.1,6.1,1.2l0,0l0,0C5.1,2.8,4.4,4.7,4.4,6.7
	c0,4.1,2.6,7.7,6.2,9l0,0c0,0-4.6,2.6-10.5,2c0,0,13.4,5.8,21.5-5.1c0.1-0.1,0.2-0.3,0.3-0.4l0,0l0,0c1.1-1.6,1.8-3.5,1.8-5.5
	c0-4.1-2.6-7.7-6.2-9l0,0C17.4-2.3,21.9-4.9,27.9-4.2z M20.9,6.8c0,3.8-3,6.9-6.9,6.9c-3.8,0-6.9-3-6.9-6.9s3-6.9,6.9-6.9
	C17.7-0.1,20.9,3,20.9,6.8z"/>
<g>
	<path d="M9,30.7H8.2v-6.4H5.9v-0.7h5.4v0.7H9V30.7z"/>
	<path d="M12.1,30.2c0-0.2,0-0.4,0.1-0.5c0.1-0.1,0.2-0.2,0.4-0.2c0.2,0,0.3,0.1,0.4,0.2c0.1,0.1,0.2,0.3,0.2,0.5
		c0,0.2-0.1,0.4-0.2,0.5s-0.3,0.2-0.4,0.2c-0.2,0-0.3-0.1-0.4-0.2C12.2,30.6,12.1,30.4,12.1,30.2z"/>
	<path d="M19,28.8c0,0.6-0.2,1.1-0.7,1.5c-0.5,0.4-1.1,0.5-1.9,0.5c-0.8,0-1.5-0.1-2-0.3v-0.8c0.3,0.1,0.6,0.2,1,0.3
		c0.3,0.1,0.7,0.1,1,0.1c0.6,0,1-0.1,1.2-0.3c0.3-0.2,0.4-0.5,0.4-0.9c0-0.2,0-0.5-0.1-0.6c-0.1-0.2-0.3-0.3-0.5-0.4
		s-0.6-0.3-1.1-0.5c-0.7-0.2-1.1-0.5-1.4-0.8s-0.4-0.8-0.4-1.3c0-0.5,0.2-1,0.6-1.3c0.4-0.3,1-0.5,1.6-0.5c0.7,0,1.4,0.1,2,0.4
		l-0.3,0.7c-0.6-0.2-1.2-0.4-1.7-0.4c-0.4,0-0.8,0.1-1,0.3c-0.2,0.2-0.4,0.5-0.4,0.8c0,0.2,0,0.5,0.1,0.6c0.1,0.2,0.2,0.3,0.5,0.4
		c0.2,0.1,0.5,0.3,1,0.4c0.7,0.3,1.3,0.6,1.5,0.9S19,28.3,19,28.8z"/>
	<path d="M20.3,30.2c0-0.2,0.1-0.4,0.1-0.5c0.1-0.1,0.2-0.2,0.4-0.2c0.2,0,0.3,0.1,0.4,0.2c0.1,0.1,0.2,0.3,0.2,0.5
		c0,0.2-0.1,0.4-0.2,0.5s-0.3,0.2-0.4,0.2c-0.2,0-0.3-0.1-0.4-0.2C20.3,30.6,20.3,30.4,20.3,30.2z"/>
</g>
</svg>
