<?xml version="1.0" encoding="utf-8"?>
<!-- Generator: Adobe Illustrator 22.1.0, SVG Export Plug-In . SVG Version: 6.00 Build 0)  -->
<svg version="1.1" id="Layer_1" xmlns="http://www.w3.org/2000/svg" xmlns:xlink="http://www.w3.org/1999/xlink" x="0px" y="0px"
	 viewBox="0 0 28 36.4" style="enable-background:new 0 0 28 36.4;" xml:space="preserve">
<path d="M27.9,1.5c0,0-13.4-5.8-21.5,5.1C6.3,6.7,6.2,6.8,6.1,6.9l0,0l0,0c-1,1.6-1.7,3.5-1.7,5.5c0,4.1,2.6,7.7,6.2,9l0,0
	c0,0-4.6,2.6-10.5,2c0,0,13.4,5.8,21.5-5.1c0.1-0.1,0.2-0.3,0.3-0.4l0,0l0,0c1.1-1.6,1.8-3.5,1.8-5.5c0-4.1-2.6-7.7-6.2-9l0,0
	C17.4,3.4,21.9,0.8,27.9,1.5z M20.9,12.5c0,3.8-3,6.9-6.9,6.9c-3.8,0-6.9-3-6.9-6.9s3-6.9,6.9-6.9C17.7,5.6,20.9,8.7,20.9,12.5z"/>
<g>
	<path d="M9,36.4H8.2V30H5.9v-0.7h5.4V30H9V36.4z"/>
	<path d="M12.1,35.9c0-0.2,0-0.4,0.1-0.5c0.1-0.1,0.2-0.2,0.4-0.2s0.3,0.1,0.4,0.2c0.1,0.1,0.2,0.3,0.2,0.5c0,0.2-0.1,0.4-0.2,0.5
		c-0.1,0.1-0.3,0.2-0.4,0.2c-0.2,0-0.3-0.1-0.4-0.2C12.2,36.3,12.1,36.1,12.1,35.9z"/>
	<path d="M19,34.5c0,0.6-0.2,1.1-0.7,1.5c-0.5,0.4-1.1,0.5-1.9,0.5c-0.8,0-1.5-0.1-2-0.3v-0.8c0.3,0.1,0.6,0.2,1,0.3
		c0.3,0.1,0.7,0.1,1,0.1c0.6,0,1-0.1,1.2-0.3c0.3-0.2,0.4-0.5,0.4-0.9c0-0.2,0-0.5-0.1-0.6c-0.1-0.2-0.3-0.3-0.5-0.4
		c-0.2-0.1-0.6-0.3-1.1-0.5c-0.7-0.2-1.1-0.5-1.4-0.8c-0.3-0.3-0.4-0.8-0.4-1.3s0.2-1,0.6-1.3c0.4-0.3,1-0.5,1.6-0.5
		c0.7,0,1.4,0.1,2,0.4l-0.3,0.7c-0.6-0.2-1.2-0.4-1.7-0.4c-0.4,0-0.8,0.1-1,0.3c-0.2,0.2-0.4,0.5-0.4,0.8c0,0.2,0,0.5,0.1,0.6
		c0.1,0.2,0.2,0.3,0.5,0.4c0.2,0.1,0.5,0.3,1,0.4c0.7,0.3,1.3,0.6,1.5,0.9C18.6,33.6,19,34,19,34.5z"/>
	<path d="M20.3,35.9c0-0.2,0.1-0.4,0.1-0.5c0.1-0.1,0.2-0.2,0.4-0.2c0.2,0,0.3,0.1,0.4,0.2c0.1,0.1,0.2,0.3,0.2,0.5
		c0,0.2-0.1,0.4-0.2,0.5c-0.1,0.1-0.3,0.2-0.4,0.2c-0.2,0-0.3-0.1-0.4-0.2C20.3,36.3,20.3,36.1,20.3,35.9z"/>
</g>
</svg>
