<?xml version="1.0" encoding="utf-8"?>
<!-- Generator: Adobe Illustrator 17.1.0, SVG Export Plug-In . SVG Version: 6.00 Build 0)  -->
<!DOCTYPE svg PUBLIC "-//W3C//DTD SVG 1.1//EN" "http://www.w3.org/Graphics/SVG/1.1/DTD/svg11.dtd">
<svg version="1.1" id="Layer_1" xmlns="http://www.w3.org/2000/svg" xmlns:xlink="http://www.w3.org/1999/xlink" x="0px" y="0px"
	 viewBox="0 0 900 365" enable-background="new 0 0 900 365" xml:space="preserve">
<rect fill="#003366" width="901.7" height="354"/>
<path fill="#FFFFFF" d="M901.7,182.4c0,0-244.2-103.2-450.9,0c-100.8,50.4-298,132-450.9,0v182.4h901.7V182.4z"/>
<path fill="#FFFFFF" d="M92.4,130.6h26.7c0,16.5-3.1,28.3-9.2,35.6c-6.2,7.2-16,10.8-29.4,10.8c-15.3,0-26.7-4.1-34.1-12.3
	c-7.4-8.3-11.1-22.1-11.1-41.6v-12.8V99.4c0-20.2,3.4-34.5,10.2-43c6.8-8.6,18.3-12.8,34.5-12.8c12.2,0,21.6,3.3,28,9.8
	c6.4,6.4,9.7,17.7,9.7,33.8H91c0-7.6-0.9-13.5-2.6-17.7c-1.7-4.2-4.6-6.3-8.7-6.3h-1.1c-5.9,0-10,3.2-12.3,9.6
	c-2.3,6.4-3.4,19-3.4,37.9v5.4c0,15.6,1.2,26.3,3.5,32.3c2.4,5.9,6.6,8.9,12.6,9.1h1.2C88.3,157.4,92.4,148.5,92.4,130.6z"/>
<path fill="#FFFFFF" d="M136.2,45.6h27.2V175h-27.2V45.6z"/>
<path fill="#FFFFFF" d="M187,175V45.6h45.5c15.5,0,26.4,4.7,32.7,14.2c6.3,9.4,9.4,27.1,9.4,53c0,11-0.5,20-1.5,26.9
	c-1,6.9-3.3,12.9-7,18.3c-2.4,4.5-6.5,8.5-12.2,11.9c-5.7,3.4-13,5.1-21.7,5.1L187,175L187,175z M214.2,155.1h13.4
	c7,0,12-2.8,14.9-8.4c3-5.6,4.5-19,4.5-40.3c0-16.7-1.5-27.7-4.6-33c-3-5.3-7.8-7.9-14.4-7.9h-13.9L214.2,155.1L214.2,155.1z"/>
<path fill="#FFFFFF" d="M286.4,175l36.6-129.4h35.7L393.8,175h-28.5l-7.3-29h-37.3l-7.6,29H286.4z M326.3,126.1h26l-13.2-55.6
	L326.3,126.1z"/>
<path fill="#1C3664" d="M493.6,292.6h26.7c0,16.5-3.1,28.3-9.2,35.6c-6.2,7.2-16,10.8-29.4,10.8c-15.3,0-26.7-4.1-34.1-12.3
	c-7.4-8.3-11.1-22.1-11.1-41.6v-12.8v-10.9c0-20.2,3.4-34.5,10.2-43c6.8-8.6,18.3-12.8,34.5-12.8c12.2,0,21.6,3.3,28,9.8
	c6.4,6.4,9.7,17.7,9.7,33.8h-26.7c0-7.6-0.9-13.5-2.6-17.7c-1.7-4.2-4.6-6.3-8.7-6.3h-1.1c-5.9,0-10,3.2-12.3,9.6
	c-2.3,6.4-3.4,19-3.4,37.9v5.4c0,15.6,1.2,26.3,3.5,32.3c2.4,5.9,6.6,8.9,12.6,9.1h1.2C489.5,319.4,493.6,310.4,493.6,292.6z"/>
<path fill="#003366" d="M537,207.6h43.8l20.5,88.9l21.9-88.9h42.5V337h-26.4V235.9L613.6,337h-25.9l-24.3-101.1V337H537V207.6z"/>
<path fill="#1C3664" d="M732.4,288.8v-20h42.2v65.7c-14.5,2.9-26.8,4.4-36.8,4.4c-21,0-34.8-4.4-41.4-13.3
	c-6.6-8.8-9.8-24.1-9.8-45.6v-7.8V260c0-19.6,3.9-33.6,11.6-41.9c7.7-8.4,19.2-12.6,34.5-12.6c12.4,0,22.4,3.2,30.2,9.7
	c7.9,6.4,11.8,17.3,11.8,32.5h-27.2c0-8.2-1.3-14-4-17.4c-2.6-3.5-6.6-5.2-12-5.2c-6.9,0-11.5,3.4-13.9,10.1
	c-2.3,6.7-3.5,19.2-3.5,37.4c0,19.3,1.3,31.9,3.8,37.9c2.5,5.9,7.7,8.9,15.6,8.9c5.3,0,10-0.8,13.9-2.5v-28H732.4z"/>
<path fill="#1C3664" d="M797.7,207.6h48.9c23,0,34.5,12.7,34.5,38.1c0,25.8-12,38.7-35.9,38.7h-20.4V337h-27.2L797.7,207.6
	L797.7,207.6z M824.9,227.5v36.9h13.8c4.7,0,8.4-1.8,11-5.3c2.6-3.6,3.9-8,3.9-13.4c0-12.2-5.2-18.3-15.6-18.3L824.9,227.5
	L824.9,227.5z"/>
</svg>
