<?xml version="1.0" encoding="utf-8"?>
<!-- Generator: Adobe Illustrator 15.1.0, SVG Export Plug-In  -->
<!DOCTYPE svg PUBLIC "-//W3C//DTD SVG 1.1//EN" "http://www.w3.org/Graphics/SVG/1.1/DTD/svg11.dtd" [
	<!ENTITY ns_flows "http://ns.adobe.com/Flows/1.0/">
]>
<svg version="1.1"
	 xmlns="http://www.w3.org/2000/svg" xmlns:xlink="http://www.w3.org/1999/xlink" xmlns:a="http://ns.adobe.com/AdobeSVGViewerExtensions/3.0/"
	 x="0px" y="0px" width="900px" height="900px" viewBox="0 -155.025 900 900"
	 overflow="visible" enable-background="new 0 -155.025 900 900" xml:space="preserve">
<defs>
</defs>
<rect fill="#345481" width="900" height="351.223"/>
<path fill="#FFFFFF" d="M900,182.024c0,0-243.726-103.023-450,0c-100.645,50.266-297.477,131.712-450,0v182.02h900V182.024z"/>
<path fill="#FFFFFF" d="M94.469,130.434h25.977c0,16.008-2.991,27.544-8.972,34.607c-5.981,7.007-15.524,10.51-28.625,10.51
	c-14.868,0-25.92-3.987-33.154-11.963c-7.178-8.032-10.767-21.504-10.767-40.417v-12.476V100.1c0-19.596,3.303-33.524,9.912-41.785
	c6.607-8.316,17.801-12.476,33.582-12.476c11.905,0,20.991,3.162,27.258,9.485c6.266,6.267,9.399,17.233,9.399,32.898H93.102
	c0-7.405-0.854-13.13-2.563-17.175c-1.653-4.102-4.473-6.152-8.459-6.152h-1.025c-5.697,0-9.685,3.105-11.963,9.314
	c-2.222,6.21-3.333,18.486-3.333,36.829v5.212c0,15.154,1.139,25.607,3.418,31.36c2.335,5.697,6.409,8.66,12.219,8.887h1.196
	C90.509,156.496,94.469,147.81,94.469,130.434z"/>
<path fill="#FFFFFF" d="M137.108,47.805h26.404v125.781h-26.404V47.805z"/>
<path fill="#FFFFFF" d="M186.498,173.586V47.805h44.263c15.095,0,25.691,4.614,31.787,13.843c6.095,9.172,9.143,26.348,9.143,51.526
	c0,10.71-0.485,19.426-1.453,26.147c-0.969,6.665-3.247,12.59-6.836,17.773c-2.336,4.387-6.295,8.232-11.877,11.536
	c-5.583,3.305-12.619,4.956-21.106,4.956H186.498z M212.902,154.189h13.074c6.836,0,11.677-2.705,14.526-8.118
	c2.905-5.411,4.358-18.457,4.358-39.136c0-16.235-1.482-26.917-4.443-32.043c-2.905-5.127-7.577-7.69-14.014-7.69h-13.501V154.189z"
	/>
<path fill="#FFFFFF" d="M283.056,173.586l35.547-125.781h34.692l34.18,125.781h-27.686l-7.092-28.198h-36.23l-7.434,28.198H283.056z
	 M321.85,125.991h25.293l-12.817-54.089L321.85,125.991z"/>
<path fill="#345481" d="M507.556,279.486h25.977c0,16.009-2.991,27.545-8.972,34.607c-5.982,7.007-15.524,10.51-28.626,10.51
	c-14.868,0-25.921-3.986-33.154-11.963c-7.178-8.031-10.767-21.503-10.767-40.417v-12.476v-10.596
	c0-19.596,3.303-33.524,9.912-41.785c6.607-8.316,17.802-12.476,33.582-12.476c11.905,0,20.99,3.162,27.258,9.485
	c6.266,6.267,9.399,17.233,9.399,32.898h-25.977c0-7.405-0.854-13.13-2.563-17.175c-1.653-4.102-4.473-6.152-8.459-6.152h-1.025
	c-5.697,0-9.686,3.105-11.963,9.314c-2.223,6.21-3.333,18.486-3.333,36.829v5.212c0,15.154,1.139,25.607,3.418,31.36
	c2.335,5.697,6.409,8.66,12.22,8.887h1.195C503.596,305.549,507.556,296.862,507.556,279.486z"/>
<path fill="#345481" d="M549.768,196.857h42.553l19.91,86.475l21.277-86.475h41.271v125.781h-25.635v-98.267l-24.951,98.267h-25.207
	l-23.584-98.267v98.267h-25.635V196.857z"/>
<path fill="#345481" d="M739.722,275.812v-19.397h41.016v63.917c-14.129,2.848-26.062,4.271-35.804,4.271
	c-20.394,0-33.81-4.3-40.246-12.902c-6.381-8.601-9.57-23.384-9.57-44.348v-7.605v-11.877c0-19.083,3.76-32.669,11.279-40.759
	c7.52-8.146,18.684-12.219,33.496-12.219c12.019,0,21.817,3.134,29.395,9.399c7.633,6.267,11.45,16.806,11.45,31.616h-26.403
	c0-7.975-1.282-13.614-3.846-16.919c-2.508-3.36-6.381-5.042-11.621-5.042c-6.723,0-11.224,3.276-13.501,9.827
	c-2.279,6.552-3.418,18.657-3.418,36.316c0,18.742,1.225,31.018,3.675,36.828c2.448,5.755,7.52,8.631,15.209,8.631
	c5.184,0,9.685-0.825,13.502-2.479v-27.258H739.722z"/>
<path fill="#345481" d="M803.21,196.857h47.51c22.388,0,33.581,12.362,33.581,37.085c0,25.066-11.621,37.598-34.863,37.598h-19.824
	v51.099H803.21V196.857z M829.613,216.254v35.889h13.416c4.614,0,8.174-1.709,10.682-5.127c2.506-3.474,3.76-7.804,3.76-12.988
	c0-11.848-5.042-17.773-15.125-17.773H829.613z"/>
</svg>
