<?xml version="1.0" encoding="utf-8"?>
<!-- Generator: Adobe Illustrator 17.1.0, SVG Export Plug-In . SVG Version: 6.00 Build 0)  -->
<!DOCTYPE svg PUBLIC "-//W3C//DTD SVG 1.1//EN" "http://www.w3.org/Graphics/SVG/1.1/DTD/svg11.dtd">
<svg version="1.1" id="Layer_1" xmlns="http://www.w3.org/2000/svg" xmlns:xlink="http://www.w3.org/1999/xlink" x="0px" y="0px"
	 viewBox="0 0 25 25" style="enable-background:new 0 0 25 25;" xml:space="preserve">
<path style="fill:none;" d="M24.9,22.5c0,1.3-1.2,2.4-2.6,2.4H2.8c-1.5,0-2.6-1.1-2.6-2.4V2.6c0-1.3,1.2-2.4,2.6-2.4h19.4
	c1.5,0,2.6,1.1,2.6,2.4V22.5z"/>
<path style="fill:none;stroke:#003366;stroke-width:1.8728;stroke-miterlimit:10;" d="M24.1,21.8c0,1.3-1.1,2.3-2.5,2.3H3.4
	c-1.4,0-2.5-1-2.5-2.3V3.2c0-1.3,1.1-2.3,2.5-2.3h18.2c1.4,0,2.5,1,2.5,2.3V21.8z"/>
<g>
	<path style="fill:#003366;" d="M9.3,20.7H4.8l4.8-8.6L5.1,4.3h5.1l2.4,4.9l2.7-4.9H20l-4.4,7.8l4.7,8.5h-5.1l-2.8-5.7L9.3,20.7z"/>
</g>
</svg>
