<?xml version="1.0" encoding="utf-8"?>
<!-- Generator: Adobe Illustrator 15.1.0, SVG Export Plug-In  -->
<!DOCTYPE svg PUBLIC "-//W3C//DTD SVG 1.1//EN" "http://www.w3.org/Graphics/SVG/1.1/DTD/svg11.dtd" [
	<!ENTITY ns_flows "http://ns.adobe.com/Flows/1.0/">
]>
<svg version="1.1"
	 xmlns="http://www.w3.org/2000/svg" xmlns:xlink="http://www.w3.org/1999/xlink" xmlns:a="http://ns.adobe.com/AdobeSVGViewerExtensions/3.0/"
	 x="0px" y="0px" width="900px" height="900px" viewBox="-33.658 -94 900 900"
	 overflow="visible" enable-background="new -33.658 -94 900 900" xml:space="preserve">
<defs>
</defs>
<path fill="#D5D5D5" d="M430.219,498.656c8.5,0,13.85-7.544,16.047-22.637c0.668-4.679,1.004-15.903,1.004-33.669v-13.324
	c0-12.226-1.434-20.965-4.299-26.219c-2.771-5.252-7.021-7.88-12.752-7.88c-6.303,0-10.794,2.865-13.467,8.596
	c-2.579,5.731-3.918,13.994-4.012,24.786v12.751c0,21.971,1.05,37.061,3.152,45.274C417.993,494.55,422.77,498.656,430.219,498.656z
	"/>
<polygon fill="#D5D5D5" points="245.973,441.491 288.381,441.491 266.891,350.799 "/>
<path fill="#D5D5D5" d="M576.93,498.656c8.5,0,13.848-7.544,16.047-22.637c0.666-4.679,1.002-15.903,1.002-33.669v-13.324
	c0-12.226-1.434-20.965-4.299-26.219c-2.771-5.252-7.02-7.88-12.75-7.88c-6.305,0-10.795,2.865-13.469,8.596
	c-2.578,5.731-3.916,13.994-4.012,24.786v12.751c0,21.971,1.051,37.061,3.152,45.274C564.702,494.55,569.479,498.656,576.93,498.656
	z"/>
<path fill="#D5D5D5" d="M816.831,0H13.661C6.11,0,0,6.115,0,13.655v131.138c0,7.54,6.11,13.656,13.661,13.656h35.53l45.083,530.226
	c0.301,3.544,3.256,6.254,6.809,6.254H723.95c3.518,0,6.465-2.677,6.799-6.183l30.896-325.092l0.029-0.272L445.036,168.059
	c-8.723,5.178-18.906,8.162-29.791,8.162c-32.308,0-58.5-26.197-58.5-58.504c0-32.307,26.192-58.495,58.5-58.495
	c30.451,0,55.457,23.267,58.23,52.982l294.738,182.284l12.93-136.039h35.688c7.545,0,13.656-6.116,13.656-13.656h0.01V13.655
	C830.497,6.115,824.375,0,816.831,0z M518.333,444.929v-14.757c0.189-19.962,3.438-35.102,9.742-45.418
	c6.398-10.409,17.049-15.616,31.949-15.616c13.754,0,25.072,6.113,33.955,18.339v-77.08h41.119v210.896h-39.256v-17.479
	c-7.357,13.755-19.342,20.632-35.961,20.632c-13.182,0-23.404-4.966-30.66-14.9c-7.26-9.933-10.889-26.792-10.889-50.575V444.929z
	 M371.622,444.929v-14.757c0.19-19.962,3.439-35.102,9.743-45.418c6.398-10.409,17.049-15.616,31.95-15.616
	c13.754,0,25.073,6.113,33.956,18.339v-77.08h41.117v210.896h-39.256v-17.479c-7.355,13.755-19.342,20.632-35.961,20.632
	c-13.181,0-23.402-4.966-30.66-14.9c-7.26-9.933-10.889-26.792-10.889-50.575V444.929z M309.585,521.292l-11.892-47.279h-60.747
	l-12.465,47.279h-43.554l59.601-210.896h58.168l57.309,210.896H309.585z"/>
</svg>
