<?xml version="1.0" encoding="utf-8"?>
<!-- Generator: Adobe Illustrator 17.1.0, SVG Export Plug-In . SVG Version: 6.00 Build 0)  -->
<!DOCTYPE svg PUBLIC "-//W3C//DTD SVG 1.1//EN" "http://www.w3.org/Graphics/SVG/1.1/DTD/svg11.dtd">
<svg version="1.1" id="Layer_1" xmlns="http://www.w3.org/2000/svg" xmlns:xlink="http://www.w3.org/1999/xlink" x="0px" y="0px"
	 viewBox="0 0 900 753.7" style="enable-background:new 0 0 900 753.7;" xml:space="preserve">
<path style="fill:#003366;" d="M885.9,0H14.8C6.6,0,0,6.6,0,14.8V157c0,8.2,6.6,14.8,14.8,14.8h38.5l48.9,575.1
	c0.3,3.8,3.5,6.8,7.4,6.8h675.6c3.8,0,7-2.9,7.4-6.7l33.5-352.6l-0.2-0.3L482.6,182.2c-9.5,5.6-20.5,8.9-32.2,8.9
	c-35,0-63.4-28.4-63.4-63.5c0-35,28.4-63.4,63.4-63.4c33,0,60.1,25.2,63.1,57.5l319.7,197.8l0,0l14-147.6h38.7
	c8.2,0,14.8-6.6,14.8-14.8h0V14.8C900.8,6.6,894.1,0,885.9,0z"/>
</svg>
