<?xml version="1.0" encoding="utf-8"?>
<!-- Generator: Adobe Illustrator 15.1.0, SVG Export Plug-In  -->
<!DOCTYPE svg PUBLIC "-//W3C//DTD SVG 1.1//EN" "http://www.w3.org/Graphics/SVG/1.1/DTD/svg11.dtd" [
	<!ENTITY ns_flows "http://ns.adobe.com/Flows/1.0/">
]>
<svg version="1.1"
	 xmlns="http://www.w3.org/2000/svg" xmlns:xlink="http://www.w3.org/1999/xlink" xmlns:a="http://ns.adobe.com/AdobeSVGViewerExtensions/3.0/"
	 x="0px" y="0px" width="900px" height="752px" viewBox="0 0 900 752" overflow="visible" enable-background="new 0 0 900 752"
	 xml:space="preserve">
<defs>
</defs>
<path fill="#003366" d="M884.354,0H14.79C6.621,0,0,6.621,0,14.786v141.973c0,8.168,6.621,14.79,14.79,14.79h38.469l48.809,574.055
	c0.327,3.829,3.526,6.769,7.371,6.769h674.355c3.813,0,7-2.899,7.363-6.693l33.448-351.967l-0.186-0.305L481.817,181.958
	c-9.446,5.601-20.467,8.827-32.246,8.827c-34.98,0-63.334-28.358-63.334-63.338c0-34.976,28.354-63.331,63.334-63.331
	c32.973,0,60.047,25.197,63.047,57.383l319.064,197.455l0.029-0.036l14.005-147.37h38.636c8.173,0,14.79-6.621,14.79-14.79h0.004
	V14.786C899.147,6.621,892.526,0,884.354,0z"/>
</svg>
