<?xml version="1.0" encoding="utf-8"?>
<!-- Generator: Adobe Illustrator 15.1.0, SVG Export Plug-In  -->
<!DOCTYPE svg PUBLIC "-//W3C//DTD SVG 1.1//EN" "http://www.w3.org/Graphics/SVG/1.1/DTD/svg11.dtd" [
	<!ENTITY ns_flows "http://ns.adobe.com/Flows/1.0/">
]>
<svg version="1.1"
	 xmlns="http://www.w3.org/2000/svg" xmlns:xlink="http://www.w3.org/1999/xlink" xmlns:a="http://ns.adobe.com/AdobeSVGViewerExtensions/3.0/"
	 x="0px" y="0px" width="900px" height="757px" viewBox="-11.798 -14.66 900 757"
	 overflow="visible" enable-background="new -11.798 -14.66 900 757" xml:space="preserve">
<defs>
</defs>
<path fill="#355582" d="M861.985,0H14.416C6.454,0,0,6.453,0,14.412v138.381c0,7.96,6.454,14.415,14.416,14.415h37.497
	l47.573,559.536c0.319,3.729,3.438,6.596,7.185,6.596h657.296c3.719,0,6.822-2.827,7.178-6.524l32.604-343.063l-0.178-0.292
	L469.631,177.354c-9.209,5.459-19.951,8.604-31.432,8.604c-34.094,0-61.731-27.641-61.731-61.736
	c0-34.091,27.638-61.729,61.731-61.729c32.139,0,58.53,24.56,61.454,55.931l310.996,192.461l0.027-0.035l13.648-143.643h37.66
	c7.967,0,14.416-6.455,14.416-14.415h0.002V14.412C876.403,6.453,869.952,0,861.985,0z M386.187,400.91V220.062h102.628V400.91
	h159.148V503.54H488.815v180.849H386.187V503.54H227.041V400.91H386.187z"/>
</svg>
