<?xml version="1.0" encoding="utf-8"?>
<!-- Generator: Adobe Illustrator 15.1.0, SVG Export Plug-In  -->
<!DOCTYPE svg PUBLIC "-//W3C//DTD SVG 1.1//EN" "http://www.w3.org/Graphics/SVG/1.1/DTD/svg11.dtd" [
	<!ENTITY ns_flows "http://ns.adobe.com/Flows/1.0/">
]>
<svg version="1.1"
	 xmlns="http://www.w3.org/2000/svg" xmlns:xlink="http://www.w3.org/1999/xlink" xmlns:a="http://ns.adobe.com/AdobeSVGViewerExtensions/3.0/"
	 x="0px" y="0px" width="900px" height="734px" viewBox="0 0 900 734" overflow="visible" enable-background="new 0 0 900 734"
	 xml:space="preserve">
<defs>
</defs>
<path fill="#1C3664" d="M898.279,653.593c0,44.547-40.086,80.601-89.62,80.601H89.653C40.127,734.193,0,698.14,0,653.593V80.649
	C0,36.109,40.127,0,89.653,0h719.006c49.534,0,89.62,36.109,89.62,80.649V653.593z"/>
<polygon fill="#F1F2F2" points="810.814,295.841 810.814,73.119 585.885,73.119 585.885,155.006 648.86,155.006 558.28,227.799 
	320.867,227.799 245.607,155.497 319.231,155.497 319.231,73.606 96.49,73.606 96.49,298.536 178.371,298.536 178.371,235.561 
	253.349,307.562 253.349,428.018 176.526,507.98 176.526,434.354 94.643,434.354 94.643,657.104 319.571,657.104 319.571,575.217 
	256.599,575.217 326.199,502.735 557.873,502.735 659.821,575.21 586.193,575.21 586.193,657.104 808.95,657.104 808.95,432.167 
	727.057,432.167 727.057,495.149 630.212,427.604 630.212,303.508 728.921,222.242 728.921,295.841 "/>
</svg>
