<?xml version="1.0" encoding="utf-8"?>
<!-- Generator: Adobe Illustrator 18.1.1, SVG Export Plug-In . SVG Version: 6.00 Build 0)  -->
<!DOCTYPE svg PUBLIC "-//W3C//DTD SVG 1.1//EN" "http://www.w3.org/Graphics/SVG/1.1/DTD/svg11.dtd">
<svg version="1.1" id="Layer_1" xmlns="http://www.w3.org/2000/svg" xmlns:xlink="http://www.w3.org/1999/xlink" x="0px" y="0px"
	 viewBox="0 0 16 16" enable-background="new 0 0 16 16" xml:space="preserve">
<circle fill="#1C3664" cx="8" cy="8" r="8"/>
<g>
	<path fill="#FFFFFF" d="M11.1,9.9c0.1,0,0.1,0.1,0.1,0.1v1.6c0,0.1,0,0.1-0.1,0.1H4.8c0,0-0.1-0.1-0.1-0.2v-1.5
		c0-0.1,0.1-0.1,0.1-0.1h1.5V7.2H4.9c-0.1,0-0.1,0-0.1-0.1V5.6c0-0.1,0-0.2,0.1-0.2h4.7c0.1,0,0.1,0.1,0.1,0.1v4.4H11.1z M9.3,2.8
		c0.1,0,0.2,0,0.2,0.2v1.7c0,0.1,0,0.2-0.1,0.2H6.7c-0.1,0-0.1,0-0.1-0.1V2.9c0,0,0-0.1,0.1-0.1H9.3z"/>
</g>
</svg>
