<?xml version="1.0" encoding="utf-8"?>
<!-- Generator: Adobe Illustrator 15.1.0, SVG Export Plug-In  -->
<!DOCTYPE svg PUBLIC "-//W3C//DTD SVG 1.1//EN" "http://www.w3.org/Graphics/SVG/1.1/DTD/svg11.dtd" [
	<!ENTITY ns_flows "http://ns.adobe.com/Flows/1.0/">
]>
<svg version="1.1"
	 xmlns="http://www.w3.org/2000/svg" xmlns:xlink="http://www.w3.org/1999/xlink" xmlns:a="http://ns.adobe.com/AdobeSVGViewerExtensions/3.0/"
	 x="0px" y="0px" width="489px" height="363px" viewBox="0 0 489 363" overflow="visible" enable-background="new 0 0 489 363"
	 xml:space="preserve">
<defs>
</defs>
<path fill="#DDDCDC" d="M488.841,344.823c0,10.022-10.943,18.148-24.442,18.148H24.442C10.944,362.972,0,354.846,0,344.823V18.148
	C0,8.126,10.944,0,24.442,0h439.957c13.499,0,24.442,8.126,24.442,18.148V344.823z"/>
<rect x="28.535" y="40.818" fill="#1C3664" width="379.771" height="279.857"/>
<line fill="none" stroke="#FFFFFF" stroke-width="38.9354" stroke-miterlimit="10" x1="131.844" y1="77.124" x2="131.844" y2="273.921"/>
<path fill="#DDDCDC" stroke="#355582" stroke-width="2.7775" stroke-miterlimit="10" d="M180.075,42.322h-65.019l-1.061,0.961
	l-0.229,4.04l-2.869,1.19l-3.195,0.119l0.349,7.724l1.188,2.398l3.816,2.131l0.94,3.34l6.311,5.094l2.513,5.346l4.635,2.926
	l3.236,4.452l1.647,1.717l5.496,1.308l3.556-1.54l3.448-2.021c0,0,3.388,1.804,3.629,1.826c0.976,0.1,5.775-2.01,5.775-2.01
	l2.941-6.694l3.749,0.839l4.364-3.184l2.653,0.802l4.146-5.72l0.302-2.809l-1.314-1.719l7.293-16.116L180.075,42.322z"/>
<path id="NC_1_" fill="#DDDCDC" stroke="#1C3664" stroke-width="2.7775" stroke-miterlimit="10" d="M286.907,75.701l3.076,7.239
	l5.23,9.521l3.58,3.574l0.941,3.34l-3.569,0.232l1.205,0.938l-0.493,6.199l-3.809,1.902l-0.953,3.104l-1.893,4.271l-5.484,2.381
	l-3.558-0.476l-2.157-0.224l-2.387-1.914l0.494,1.914v1.423h2.843l1.207,1.893l-2.846,9.289h6.173l0.941,2.381l3.339-3.338
	l1.916-0.711l-2.856,5.233l-4.533,7.152h-1.905l-1.664-0.732l-4.038,0.958l-7.631,3.575l-9.511,7.861l-4.992,6.895l-2.833,9.519
	l-0.747,3.57l-6.895,0.724l-8.028,1.953l-14.66-12.066l-18.553-11.189l-4.256-1.192l-18.576,2.15l-6.304,1.098l-2.375-4.759
	l-4.376-3.122l-24.268,0.72l-10.705,1.193l-13.346,6.664l-9.035,3.804l-31.187,3.815l0.735-5.968l2.616-2.154l4.057-0.95
	l0.945-5.466l6.191-4.047l5.702-2.15l6.197-5.239l6.43-3.095l0.947-4.521l5.72-5.707l0.953-0.244c0,0,0,1.67,1.194,1.67
	c1.18,0,2.856,0.475,2.856,0.475l3.315-5.237l3.098-0.946l3.333,0.467l2.387-5.237l4.287-3.806l0.692-3.083l0.29-5.37l6.293-0.037
	l10.608-1.268l23.182-3.308l22.279-3.073l31.861-6.95l29.414-6.275l16.455-3.535L286.907,75.701L286.907,75.701z M293.188,124.588
	l3.82-3.689l4.631-3.803l2.266-0.958l0.253-2.967l-0.964-9.057l-2.134-3.445l-0.953-2.742l1.062-0.35l4.038,8.089l0.591,6.546
	l-0.229,4.999l-5.004,2.264l-4.158,3.571l-1.665,1.774L293.188,124.588L293.188,124.588z"/>
<path id="GA_1_" fill="#DDDCDC" stroke="#1C3664" stroke-width="2.7775" stroke-miterlimit="10" d="M47.408,165.868v3.197
	l0.235,3.095l0.958,4.995l4.996,11.684l3.569,14.512l2.134,9.022l2.387,7.16l2.134,10.225l3.104,9.27l3.81,5.01l0.705,4.996
	l2.863,1.193l0.235,3.092l-2.617,7.13l-0.723,4.762l-0.235,2.857l2.38,6.444l0.47,7.841l-1.192,3.582l0.959,1.174l2.139,1.175
	l0.308,4.763l3.285,4.919l3.326,3.2l11.647,0.223l15.931-0.94l31.656-1.897l8.03-1.013l6.763,0.048l0.217,4.279l3.81,1.188
	l0.482-6.411l-2.387-6.669l1.663-2.379l8.571,1.176l7.33,0.475l-1.146-9.266l3.327-14.766l2.157-6.185l-0.722-3.81l4.906-9.181
	l-0.76-1.995l-2.796,1.04l-3.809-1.907l-0.953-3.097l-1.916-5.245l-3.316-3.077l-3.821-0.961l-2.375-7.13l-4.304-9.327l-6.196-2.862
	l-3.099-2.851l-1.893-3.81l-3.086-2.863l-3.34-1.892l-3.326-4.299l-4.528-3.327l-6.667-2.616l-0.71-2.138l-3.568-4.28l-0.724-2.146
	l-4.997-7.319l-5.178,0.143l-5.527-3.47l-2.091-1.917l-0.471-2.601l1.285-2.854l3.279-1.638l-0.946-3.101L47.408,165.868
	L47.408,165.868z"/>
<path id="SC_1_" fill="#FFFFFF" stroke="#1C3664" stroke-width="2.7775" d="M183.812,243.306l-2.617,1.436l-3.797-1.905
	l-0.964-3.106l-1.905-5.225l-3.351-3.091l-3.798-0.971l-2.363-7.13l-4.062-8.819l-6.196-2.846l-3.087-2.856l-1.892-3.808
	l-3.098-2.847l-3.34-1.903l-3.326-4.285l-4.521-3.334l-6.667-2.616l-0.718-2.137l-3.556-4.298l-0.724-2.136l-4.985-7.621
	l-5.002,0.253l-5.95-3.573l-1.917-1.902l-0.476-2.626l1.206-2.856l3.321-1.422l-0.747-3.373l8.481-3.453l13.429-6.75l11.453-1.179
	l23.725-0.616l3.869,2.75l2.473,4.949l6.34-0.896l18.565-2.147l4.28,1.189l18.577,11.189l14.852,11.957l-7.968,8.034l-3.798,9.051
	l-0.724,9.282l-2.362,1.182l-1.675,4.05l-3.592,0.947l-3.074,5.237l-4.038,4.038l-3.353,5.01l-2.374,1.182l-5.22,5.021l-4.305,0.218
	l1.446,4.761l-7.402,8.106L183.812,243.306L183.812,243.306z"/>
<rect x="32.387" y="92.58" fill="#E7E7E7" width="63.536" height="31.247"/>
<polygon fill="#E7E7E7" points="87.04,50.25 105.815,70.825 101.186,74.939 89.866,79.567 74.694,50.25 "/>
<line fill="none" stroke="#355582" stroke-width="6.1723" x1="34.225" y1="44.864" x2="34.225" y2="322.153"/>
<polygon fill="#DDDCDC" stroke="#355582" stroke-width="2.7775" stroke-miterlimit="10" points="120.191,69.335 114.072,64.275 
	112.928,60.884 109.111,58.604 107.924,56.294 107.761,47.928 103.875,44.867 100.854,43.314 100.631,42.322 93.242,42.322 
	90.788,45.303 87.003,44.981 79.288,44.14 75.466,46.015 73.079,46.229 70.071,42.989 62.513,42.971 62.205,42.322 45.871,42.322 
	46.147,44.571 42.543,47.088 36.967,49.508 32.663,50.183 31.651,57.172 31.651,115.907 83.259,111.029 93.911,108.367 
	102.24,103.377 108.69,100.19 108.787,97.09 110.583,94.57 117.815,86.52 123.096,80.646 126.472,77.106 122.854,74.664 "/>
<polygon fill="#DDDCDC" points="132.655,75.677 108.677,81.566 100.348,47.653 125.902,48.193 "/>
<polygon fill="#DDDCDC" points="74.815,292.31 72.47,291.011 71.434,289.72 72.735,285.8 72.218,277.225 69.613,270.202 
	69.878,267.085 70.656,261.885 73.519,254.083 73.254,250.703 70.138,249.394 69.348,243.94 65.188,238.472 61.814,228.334 
	59.475,217.147 56.871,209.335 54.526,199.463 50.626,183.595 45.165,170.849 44.134,165.376 43.864,161.997 44.104,158.499 
	30.368,159.613 30.368,300.291 55.412,297.435 66.339,296.409 75.346,296.964 "/>
<path fill="#DDDCDC" stroke="#1C3664" stroke-width="2.7775" stroke-miterlimit="10" d="M136.327,101.601l-3.822,2.971
	l-10.307,0.049l-27.034,3.514l-11.869,2.808l-51.644,4.988v50.93l45.707-4.403l0.608-5.808l2.659-2.193l4.17-1.102l0.988-5.486
	l6.034-3.959l5.962-2.215l6.015-5.25l6.521-2.987l0.784-4.515l5.968-5.868l0.813-0.164c0,0,0.042,1.677,1.237,1.677
	c1.205,0,2.868,0.509,2.868,0.509l3.321-5.287l3.05-0.949l3.34,0.438l2.363-5.19l4.364-3.903l0.615-2.847l0.445-5.47
	L136.327,101.601z"/>
<rect x="34.588" y="162.663" fill="#E4E5E6" width="10.577" height="8.186"/>
<rect x="34.225" y="104.51" fill="#DDDCDC" width="59.094" height="15.191"/>
<rect x="34.225" y="44.864" fill="#E4E5E6" width="9.026" height="11.7"/>
<polygon fill="#DDDCDC" stroke="#1C3664" stroke-width="2.7775" points="40.156,315.018 51.332,317.632 60.747,322.153 
	98.78,322.153 97.985,321.207 98.227,318.35 104.169,317.151 107.991,317.151 112.27,319.31 118.442,321.446 118.907,322.153 
	189.592,322.153 184.86,313.829 179.351,299.495 176.013,288.708 168.405,288.247 160.232,287.556 158.303,289.677 160.557,295.837 
	160.22,302.652 156.917,301.447 156.277,297.164 148.792,296.855 140.763,297.873 109.081,299.767 93.157,300.719 81.229,299.967 
	79.095,297.825 75.292,292.118 67.281,291.697 57.286,292.653 31.651,295.571 31.651,316.155 33.73,315.987 "/>
<rect x="34.589" y="287.591" transform="matrix(0.9979 -0.065 0.065 0.9979 -18.9206 4.0723)" fill="#DDDCDC" width="36.977" height="10.022"/>
<line fill="none" stroke="#1C3664" stroke-width="6.1723" x1="31.651" y1="44.593" x2="31.651" y2="322.153"/>
<line fill="none" stroke="#1C3664" stroke-width="8.1451" x1="408.306" y1="322.153" x2="28.644" y2="322.153"/>
<polygon fill="#E4E5E6" stroke="#1C3664" stroke-width="2.7775" stroke-miterlimit="10" points="279.468,42.322 278.505,44.848 
	277.854,52.865 280.035,59.686 283.218,56.87 285.907,49.538 285.233,44.55 285.437,42.322 "/>
<polygon fill="#DDDCDC" stroke="#1C3664" stroke-width="2.7775" stroke-miterlimit="10" points="273.044,69.417 270.742,67.21 
	274.503,65.183 273.78,61.464 271.188,58.838 270.97,56.758 267.644,54.484 267.486,52.102 271.465,52.241 271.803,50.213 
	269.995,49.049 270.706,46.213 268.667,44.583 268.879,42.322 180.154,42.322 172.564,59.926 171.106,62.681 172.515,64.556 
	171.998,67.63 167.851,73.045 165.199,72.313 161.002,75.447 157.17,74.655 154.397,81.357 148.635,83.467 144.898,81.484 
	141.606,83.432 137.869,85.098 132.306,83.678 126.483,77.084 110.944,94.018 108.702,97.18 108.732,100.229 93.319,108.5 
	109.389,106.124 121.728,104.685 132.535,104.35 136.327,101.52 146.165,102.068 201.268,94.302 286.907,75.779 281.603,66.939 "/>
<line fill="none" stroke="#1C3664" stroke-width="8.1451" x1="408.306" y1="44.593" x2="28.535" y2="44.593"/>
<polygon fill="#959595" points="472.814,176.83 447.044,221.467 421.271,176.83 "/>
</svg>
