<?xml version="1.0" encoding="utf-8"?>
<!-- Generator: Adobe Illustrator 15.1.0, SVG Export Plug-In  -->
<!DOCTYPE svg PUBLIC "-//W3C//DTD SVG 1.1//EN" "http://www.w3.org/Graphics/SVG/1.1/DTD/svg11.dtd" [
	<!ENTITY ns_flows "http://ns.adobe.com/Flows/1.0/">
]>
<svg version="1.1"
	 xmlns="http://www.w3.org/2000/svg" xmlns:xlink="http://www.w3.org/1999/xlink" xmlns:a="http://ns.adobe.com/AdobeSVGViewerExtensions/3.0/"
	 x="0px" y="0px" width="483px" height="363px" viewBox="1.48 0 483 363"
	 overflow="visible" enable-background="new 1.48 0 483 363" xml:space="preserve">
<defs>
</defs>
<rect x="242.106" y="29.381" fill="#DCDCDC" width="242.105" height="297.591"/>
<path fill="#FFFFFF" d="M287.29,294.768l59.861-120.504L291.822,64.699h54.39l33.291,75.491L411.7,64.699h50.64l-57.675,114.095
	l58.455,115.972h-55.014l-35.635-79.086l-35.323,79.086H287.29V294.768z"/>
<rect x="121.054" y="15.132" fill="#003366" width="242.105" height="329.87"/>
<path fill="#FFFFFF" d="M310.609,181.58c0,37.83-30.665,68.5-68.503,68.5c-37.837,0-68.504-30.67-68.504-68.5
	c0-37.833,30.667-68.503,68.504-68.503C279.944,113.077,310.609,143.747,310.609,181.58z"/>
<rect fill="#DCDCDC" width="242.105" height="363.158"/>
<path fill="#FFFFFF" d="M24.892,281.655l59.861-120.503L29.425,51.588h54.391l33.29,75.491l32.197-75.491h50.64l-57.673,114.095
	l58.455,115.973h-55.016l-35.635-79.086l-35.324,79.086H24.892L24.892,281.655z"/>
</svg>
