<?xml version="1.0" encoding="utf-8"?>
<!-- Generator: Adobe Illustrator 15.1.0, SVG Export Plug-In  -->
<!DOCTYPE svg PUBLIC "-//W3C//DTD SVG 1.1//EN" "http://www.w3.org/Graphics/SVG/1.1/DTD/svg11.dtd" [
	<!ENTITY ns_flows "http://ns.adobe.com/Flows/1.0/">
]>
<svg version="1.1"
	 xmlns="http://www.w3.org/2000/svg" xmlns:xlink="http://www.w3.org/1999/xlink" xmlns:a="http://ns.adobe.com/AdobeSVGViewerExtensions/3.0/"
	 x="0px" y="0px" width="800px" height="600px" viewBox="0 0.787 800 600"
	 overflow="visible" enable-background="new 0 0.787 800 600" xml:space="preserve">
<defs>
</defs>
<rect y="0.635" fill="#355582" width="800" height="588.295"/>
<line fill="none" stroke="#FFFFFF" stroke-width="81.9328" stroke-miterlimit="10" x1="217.624" y1="76.955" x2="217.624" y2="490.645"/>
<path fill="#E4E5E6" stroke="#355582" stroke-width="5.8449" stroke-miterlimit="10" d="M319.223,3.798H182.258l-2.235,2.02
	l-0.482,8.491l-6.044,2.501l-6.729,0.249l0.737,16.236l2.501,5.043l8.038,4.478l1.98,7.021l13.295,10.707l5.293,11.237l9.765,6.153
	l6.817,9.357l3.469,3.61l11.58,2.75l7.49-3.237l7.263-4.251c0,0,7.136,3.793,7.645,3.839c2.055,0.209,12.163-4.225,12.163-4.225
	L271,71.706l7.895,1.762l9.195-6.691l5.588,1.686l8.734-12.025l0.636-5.903l-2.769-3.613l15.363-33.88L319.223,3.798z"/>
<path id="NC_1_" fill="#E4E5E6" stroke="#355582" stroke-width="5.8449" stroke-miterlimit="10" d="M544.271,73.963l6.476,15.218
	l11.021,20.014l7.541,7.512l1.98,7.022l-7.516,0.488l2.539,1.97l-1.039,13.032l-8.027,3.998l-2.006,6.524l-3.987,8.979
	l-11.553,5.004l-7.492-1l-4.545-0.47l-5.028-4.022l1.041,4.022v2.99h5.989l2.543,3.979l-5.995,19.526h13.006l1.979,5.004
	l7.036-7.017l4.036-1.496l-6.019,11.002l-9.55,15.034h-4.012l-3.506-1.539l-8.508,2.014l-16.073,7.514l-20.036,16.524
	l-10.516,14.494l-5.968,20.009l-1.573,7.506l-14.522,1.522l-16.915,4.104l-30.881-25.364l-39.082-23.52l-8.965-2.507l-39.132,4.519
	l-13.281,2.309l-5.002-10.003l-9.219-6.563l-51.12,1.516l-22.55,2.508l-28.113,14.007l-19.033,7.996L103,256.341l1.549-12.545
	l5.511-4.528l8.545-1.996l1.992-11.491l13.041-8.508l12.011-4.519l13.055-11.012l13.546-6.504l1.994-9.506l12.048-11.997
	l2.007-0.513c0,0,0,3.511,2.515,3.511c2.487,0,6.017,0.998,6.017,0.998l6.982-11.009l6.527-1.991l7.021,0.983l5.029-11.01l9.029-8
	l1.458-6.482l0.611-11.289l13.256-0.077l22.347-2.666l48.833-6.953l46.93-6.462l67.118-14.607l61.962-13.191l34.662-7.433
	L544.271,73.963L544.271,73.963z M557.502,176.729l8.048-7.756l9.753-7.994l4.775-2.015l0.532-6.235l-2.031-19.038l-4.494-7.242
	l-2.008-5.763l2.235-0.737l8.506,17.005l1.245,13.761l-0.481,10.509l-10.54,4.759l-8.761,7.507l-3.507,3.73L557.502,176.729
	L557.502,176.729z"/>
<path id="GA_1_" fill="#E4E5E6" stroke="#355582" stroke-width="5.8449" stroke-miterlimit="10" d="M39.756,263.504v6.722
	l0.495,6.506l2.02,10.499l10.524,24.562l7.519,30.504l4.495,18.968l5.029,15.05l4.495,21.493l6.539,19.486l8.024,10.53l1.486,10.503
	l6.031,2.508l0.495,6.5l-5.512,14.99l-1.522,10.01l-0.496,6.006l5.015,13.547l0.989,16.481l-2.514,7.529l2.021,2.47l4.507,2.47
	l0.648,10.013l6.92,10.338l7.007,6.729l24.533,0.469l33.56-1.976l66.685-3.991l16.915-2.129l14.246,0.101l0.458,8.995l8.023,2.497
	l1.017-13.479l-5.029-14.017l3.503-5.004l18.056,2.471l15.441,1.002l-2.415-19.479l7.009-31.042l4.544-12.998l-1.522-8.009
	l10.336-19.299l-1.602-4.194l-5.891,2.184l-8.026-4.008l-2.004-6.511l-4.038-11.025l-6.985-6.469l-8.049-2.019L287.734,385
	l-9.066-19.604l-13.053-6.017l-6.527-5.993l-3.987-8.009l-6.501-6.02l-7.035-3.976l-7.006-9.035l-9.539-6.995l-14.043-5.498
	l-1.496-4.495l-7.517-8.997l-1.524-4.51l-10.525-15.386l-10.907,0.3l-11.645-7.295l-4.406-4.03l-0.991-5.468l2.705-5.999
	l6.907-3.441l-1.993-6.518L39.756,263.504L39.756,263.504z"/>
<path id="SC_1_" fill="#FFFFFF" stroke="#355582" stroke-width="5.8449" d="M327.096,426.29l-5.512,3.019l-8-4.005l-2.032-6.53
	l-4.013-10.982l-7.058-6.498l-8.001-2.043l-4.978-14.989l-8.557-18.537l-13.053-5.983l-6.503-6.005l-3.986-8.006l-6.526-5.983
	l-7.036-4.001l-7.008-9.009l-9.521-7.007l-14.043-5.499l-1.512-4.492l-7.492-9.035l-1.523-4.489l-10.501-16.019l-10.538,0.532
	l-12.534-7.512l-4.038-3.998l-1.002-5.52l2.54-6.007l6.997-2.988l-1.575-7.09l17.866-7.259l28.291-14.19l24.125-2.479l49.979-1.293
	l8.149,5.779l5.208,10.404l13.355-1.882l39.108-4.515l9.018,2.502l39.131,23.521l31.286,25.134l-16.785,16.889l-8.001,19.025
	l-1.524,19.513l-4.976,2.485l-3.529,8.514l-7.567,1.99l-6.476,11.009l-8.505,8.487l-7.063,10.532l-5.001,2.483l-10.996,10.555
	l-9.066,0.458l3.047,10.007l-15.594,17.042L327.096,426.29L327.096,426.29z"/>
<rect x="8.114" y="109.446" fill="#E7E7E7" width="133.842" height="65.685"/>
<polygon fill="#E7E7E7" points="123.242,20.461 162.792,63.712 153.042,72.36 129.195,82.09 97.236,20.461 "/>
<line fill="none" stroke="#355582" stroke-width="12.9885" x1="11.986" y1="9.14" x2="11.986" y2="592.037"/>
<polygon fill="#E4E5E6" stroke="#355582" stroke-width="5.8449" stroke-miterlimit="10" points="193.076,60.582 180.188,49.944 
	177.775,42.816 169.736,38.022 167.234,33.169 166.893,15.581 158.705,9.146 152.343,5.883 151.873,3.798 136.307,3.798 
	131.138,10.064 123.165,9.387 106.912,7.619 98.861,11.559 93.833,12.008 87.497,5.2 71.574,5.161 70.927,3.798 36.518,3.798 
	37.102,8.524 29.509,13.814 17.763,18.902 8.695,20.321 6.564,35.013 6.564,158.481 115.279,148.227 137.715,142.632 
	155.262,132.141 168.85,125.443 169.052,118.926 172.836,113.628 188.073,96.706 199.195,84.358 206.307,76.916 198.688,71.782 "/>
<polygon fill="#E4E5E6" points="219.333,73.913 168.823,86.292 151.275,15.003 205.108,16.138 "/>
<polygon fill="#E4E5E6" points="97.49,529.303 92.55,526.571 90.368,523.856 93.108,515.619 92.019,497.591 86.532,482.828 
	87.091,476.276 88.729,465.343 94.76,448.945 94.202,441.838 87.637,439.086 85.974,427.622 77.212,416.128 70.103,394.817 
	65.176,371.3 59.689,354.878 54.751,334.125 46.536,300.77 35.032,273.976 32.859,262.472 32.29,255.369 32.796,248.014 
	3.861,250.357 3.861,546.08 56.618,540.075 79.637,537.919 98.608,539.084 "/>
<path fill="#E4E5E6" stroke="#355582" stroke-width="5.8449" stroke-miterlimit="10" d="M227.066,128.41l-8.05,6.245l-21.711,0.103
	l-56.949,7.387l-25.001,5.902L6.564,158.533v107.061l96.284-9.256l1.281-12.209l5.601-4.611l8.785-2.317l2.083-11.531l12.709-8.324
	l12.558-4.656l12.672-11.038l13.736-6.279l1.651-9.49l12.57-12.334l1.714-0.344c0,0,0.089,3.524,2.604,3.524
	c2.539,0,6.043,1.071,6.043,1.071l6.996-11.114l6.424-1.994l7.035,0.92l4.978-10.912l9.192-8.205l1.295-5.985l0.938-11.499
	L227.066,128.41z"/>
<rect x="12.75" y="256.768" fill="#E4E5E6" width="22.281" height="17.208"/>
<rect x="11.986" y="134.523" fill="#E4E5E6" width="124.484" height="31.934"/>
<rect x="11.986" y="9.14" fill="#E4E5E6" width="19.014" height="24.595"/>
<polygon fill="#E4E5E6" stroke="#355582" stroke-width="5.8449" points="24.479,577.037 48.022,582.534 67.855,592.037 
	147.974,592.037 146.298,590.049 146.807,584.042 159.327,581.521 167.375,581.521 176.391,586.058 189.393,590.554 
	190.372,592.037 339.272,592.037 329.306,574.54 317.7,544.407 310.667,521.729 294.641,520.762 277.424,519.306 273.361,523.768 
	278.109,536.716 277.398,551.046 270.441,548.51 269.093,539.505 253.324,538.859 236.411,540.998 169.673,544.978 136.128,546.98 
	111,545.398 106.505,540.897 98.495,528.899 81.618,528.013 60.566,530.025 6.564,536.158 6.564,579.43 10.945,579.075 "/>
<line fill="none" stroke="#355582" stroke-width="12.9885" x1="6.564" y1="8.57" x2="6.564" y2="592.037"/>
<line fill="none" stroke="#355582" stroke-width="17.14" x1="800" y1="592.037" x2="0.229" y2="592.037"/>
<polygon fill="#E4E5E6" stroke="#355582" stroke-width="5.8449" stroke-miterlimit="10" points="528.6,3.798 526.57,9.107 
	525.198,25.959 529.795,40.297 536.499,34.379 542.161,18.964 540.742,8.48 541.171,3.798 "/>
<polygon fill="#E4E5E6" stroke="#355582" stroke-width="5.8449" stroke-miterlimit="10" points="515.065,60.753 510.217,56.116 
	518.138,51.853 516.617,44.035 511.156,38.516 510.698,34.145 503.689,29.362 503.359,24.356 511.74,24.647 512.45,20.385 
	508.644,17.938 510.141,11.977 505.847,8.549 506.293,3.798 319.389,3.798 303.403,40.803 300.33,46.594 303.299,50.535 
	302.21,56.997 293.472,68.381 287.887,66.841 279.048,73.429 270.973,71.765 265.132,85.853 252.994,90.289 245.123,86.121 
	238.189,90.214 230.317,93.717 218.596,90.731 206.331,76.871 173.598,112.468 168.875,119.114 168.938,125.524 136.47,142.912 
	170.322,137.917 196.312,134.891 219.08,134.187 227.066,128.237 247.791,129.391 363.869,113.065 544.271,74.127 533.098,55.545 
	"/>
<line fill="none" stroke="#355582" stroke-width="17.14" x1="800" y1="8.57" x2="0" y2="8.57"/>
</svg>
