<?xml version="1.0" encoding="utf-8"?>
<!-- Generator: Adobe Illustrator 15.1.0, SVG Export Plug-In  -->
<!DOCTYPE svg PUBLIC "-//W3C//DTD SVG 1.1//EN" "http://www.w3.org/Graphics/SVG/1.1/DTD/svg11.dtd" [
	<!ENTITY ns_flows "http://ns.adobe.com/Flows/1.0/">
]>
<svg version="1.1"
	 xmlns="http://www.w3.org/2000/svg" xmlns:xlink="http://www.w3.org/1999/xlink" xmlns:a="http://ns.adobe.com/AdobeSVGViewerExtensions/3.0/"
	 x="0px" y="0px" width="489px" height="363px" viewBox="0 0 489 363" overflow="visible" enable-background="new 0 0 489 363"
	 xml:space="preserve">
<defs>
</defs>
<path fill="#DDDCDC" d="M488.841,344.823c0,10.023-10.943,18.148-24.442,18.148H24.442C10.944,362.972,0,354.847,0,344.823V18.148
	C0,8.126,10.944,0,24.442,0h439.957c13.499,0,24.442,8.126,24.442,18.148V344.823z"/>
<polygon fill="#959595" points="472.814,176.83 447.044,221.467 421.271,176.83 "/>
<rect x="219.558" y="63.653" fill="#959595" width="188.772" height="232.034"/>
<text transform="matrix(1 0 0 1 254.1787 270.5771)" fill="#FFFFFF" font-family="'Univers-CondensedBold'" font-size="249.5803">X</text>
<rect x="125.172" y="52.543" fill="#1C3664" width="188.772" height="257.203"/>
<path fill="#FFFFFF" d="M272.971,182.324c0,29.496-23.911,53.411-53.413,53.411s-53.413-23.915-53.413-53.411
	c0-29.499,23.911-53.413,53.413-53.413S272.971,152.825,272.971,182.324z"/>
<rect x="30.785" y="40.744" fill="#959595" width="188.772" height="283.159"/>
<text transform="matrix(1 0 0 1 49.585 260.3535)" fill="#FFFFFF" font-family="'Univers-CondensedBold'" font-size="249.5803">X</text>
</svg>
