<?xml version="1.0" encoding="utf-8"?>
<!-- Generator: Adobe Illustrator 15.1.0, SVG Export Plug-In  -->
<!DOCTYPE svg PUBLIC "-//W3C//DTD SVG 1.1//EN" "http://www.w3.org/Graphics/SVG/1.1/DTD/svg11.dtd" [
	<!ENTITY ns_flows "http://ns.adobe.com/Flows/1.0/">
]>
<svg version="1.1"
	 xmlns="http://www.w3.org/2000/svg" xmlns:xlink="http://www.w3.org/1999/xlink" xmlns:a="http://ns.adobe.com/AdobeSVGViewerExtensions/3.0/"
	 x="0px" y="0px" width="481px" height="363px" viewBox="1.48 0 481 363"
	 overflow="visible" enable-background="new 1.48 0 481 363" xml:space="preserve">
<defs>
</defs>
<rect x="241.44" y="29.3" fill="#DCDCDC" width="241.439" height="296.771"/>
<path fill="#FFFFFF" d="M286.499,293.955l59.696-120.171L291.02,64.521h54.239l33.198,75.283l32.108-75.283h50.5l-57.518,113.78
	l58.295,115.652h-54.859l-35.537-78.868l-35.227,78.868L286.499,293.955L286.499,293.955z"/>
<rect x="120.72" y="15.091" fill="#DCDCDC" width="241.439" height="328.962"/>
<path fill="#FFFFFF" d="M309.754,181.081c0,37.725-30.58,68.311-68.314,68.311c-37.733,0-68.315-30.586-68.315-68.311
	c0-37.729,30.583-68.315,68.315-68.315C279.174,112.765,309.754,143.351,309.754,181.081z"/>
<rect fill="#DCDCDC" width="241.438" height="362.158"/>
<path fill="#FFFFFF" d="M24.824,280.88L84.52,160.708L29.344,51.446h54.241l33.198,75.284l32.109-75.284h50.5l-57.514,113.781
	l58.294,115.653h-54.865l-35.537-78.868L74.543,280.88H24.824L24.824,280.88z"/>
</svg>
