<?xml version="1.0" encoding="utf-8"?>
<!-- Generator: Adobe Illustrator 15.1.0, SVG Export Plug-In  -->
<!DOCTYPE svg PUBLIC "-//W3C//DTD SVG 1.1//EN" "http://www.w3.org/Graphics/SVG/1.1/DTD/svg11.dtd" [
	<!ENTITY ns_flows "http://ns.adobe.com/Flows/1.0/">
]>
<svg version="1.1"
	 xmlns="http://www.w3.org/2000/svg" xmlns:xlink="http://www.w3.org/1999/xlink" xmlns:a="http://ns.adobe.com/AdobeSVGViewerExtensions/3.0/"
	 x="0px" y="0px" width="800px" height="600px" viewBox="0 0 800 600" overflow="visible" enable-background="new 0 0 800 600"
	 xml:space="preserve">
<defs>
</defs>
<rect x="400.5" y="51.731" fill="#D1D3D4" width="400.5" height="492.281"/>
<path fill="#FFFFFF" d="M475.242,487.613l99.029-199.336l-91.533-181.249h89.981l55.069,124.882l53.27-124.882h83.764
	l-95.405,188.745l96.695,191.84h-91.012l-58.94-130.827l-58.433,130.827H475.242z"/>
<rect x="200.25" y="25.031" fill="#14426F" width="400.5" height="545.682"/>
<path fill="#FFFFFF" d="M513.818,300.375c0,62.578-50.728,113.318-113.318,113.318c-62.591,0-113.319-50.74-113.319-113.318
	c0-62.584,50.728-113.319,113.319-113.319C463.091,187.056,513.818,237.791,513.818,300.375z"/>
<rect fill="#BCBEC0" width="400.5" height="600.75"/>
<path fill="#FFFFFF" d="M47.716,465.921l99.03-199.338L55.219,85.334h89.976l55.069,124.882l53.27-124.882h83.763L241.89,274.079
	l96.697,191.842h-91.012l-58.947-130.828l-58.432,130.828H47.716z"/>
</svg>
