<?xml version="1.0" encoding="utf-8"?>
<!-- Generator: Adobe Illustrator 15.1.0, SVG Export Plug-In . SVG Version: 6.00 Build 0)  -->
<!DOCTYPE svg PUBLIC "-//W3C//DTD SVG 1.1//EN" "http://www.w3.org/Graphics/SVG/1.1/DTD/svg11.dtd">
<svg version="1.1"
	 id="Layer_1" xmlns:dc="http://purl.org/dc/elements/1.1/" xmlns:cc="http://web.resource.org/cc/" xmlns:rdf="http://www.w3.org/1999/02/22-rdf-syntax-ns#" xmlns:svg="http://www.w3.org/2000/svg"
	 xmlns="http://www.w3.org/2000/svg" xmlns:xlink="http://www.w3.org/1999/xlink" x="0px" y="0px" width="307.829px"
	 height="163.818px" viewBox="0 0 307.829 163.818" enable-background="new 0 0 307.829 163.818" xml:space="preserve">
<g>
	<path fill="#EBEBEB" stroke="#D7D7D7" stroke-miterlimit="10" d="M307.83,76.192c0,9.786-34.673,4.667-39.55,2.598
		c4.109,5.601,13.858,4.506,19.036,5.229c6.495,0.906,14.115,2.67,20.513-0.035c0,8.936-0.891,7.545-6.919,7.352
		c-3.297-0.103-6.593-0.318-9.889-0.432c4.309,2.734,16.808-0.127,16.808,6.494c-25.664-1.497-51.354-23.075-71.68-44.566
		c-5.035-5.324-11.266-6.857-16.679-11.121c-4.807-3.786-9.384-7.76-14.433-10.88c-11.222-6.937-22.958-12.235-34.491-17.936
		c-12.879-6.368-24.515-6.017-37.717-8.097c-6.84-1.078-12.081-4.292-19.283-3.227c-5.562,0.823-10.974,2.589-16.561,2.791
		c-4.397,0.159-3.432,4.012-8.22,4.157c-3.361,0.103-6.695,0.957-9.909,2.38c-4.536,2.006-8.868,5.109-12.765,9.047
		c-1.389-0.122-15.703,3.227-13.842,7.787c1.129-0.867,6.166-4.668,6.622-0.687c0.194,1.698-2.189,3.031-1.678,4.584
		c2.605,0.342,3.016-2.334,4.606,0.297c0.92,1.24,2.021,1.72,3.305,1.434c0.107-0.993-0.205-1.524-0.935-1.596
		c-0.162-0.144,2.86-0.822,1.923,1.596c-3.721,0.137-17.074-1.225-17.797,6.924c4.806-9.881,8.121,4.455,11.368,6.922
		c-6.33,0.075-13.434,3.502-20.269-0.434c-4.34,2.205-8.914,3.363-13.195,3.585c-2.641,0.138-9.031,0.722-9.923,4.907
		c0.22-1.025,7.3-0.95,8.785,1.029c-0.677-0.462-1.335-0.462-1.978,0c0.38,6.542,3.073,1.259,5.464,1.277
		c5.465,0.044-1.107,4.746-1.51,6.514c-1.887,0.222-18.164-4.796-17.301,2.164c1.762-0.942,3.575-1.23,5.437-0.866
		c0.876,5.129-17.388,2.784-12.358,10.818c0.856-9.377,9.31-2.007,12.854-4.76c-3.172,1.584,2.018,5.532,2.966,5.626
		c0.066-0.932-0.201-1.541-0.801-1.826c-0.584-0.867,5.839-2.592,5.279-1.577c-2.064,3.734-4.561-1.452-5.042,5.438
		c-0.281,4.045,1.327,6.41,4.025,7.052c-2.512-1.126-17.437,3.882-13.348,8.223c-0.5-4.878,6.934-5.908,7.923-1.095
		c0.44,2.143,4.932-1.647,7.684-0.476c5.566,2.368-12.217,7.077-6.709,12.387c-3.295-2.748,7.047-3.679,7.416-3.894
		c-3.057,1.611,2.707,4.858,3.956,4.762c-6.733-7.346,8.081-3.904,8.405-5.626c-2.627,0.275-5.376-1.472-4.939-5.942
		c0.433-4.459,1.897-0.912,3.454-3.144c-0.028-1.66-2.833-1.121-3.46-1.731c2.936-0.723,5.329,4.868,7.91,2.595
		c-4.621-1.847-0.789-7.456,1.978-7.788c-0.396-0.709-0.515-1.507-0.358-2.389c0.151-0.308,2.083,8.784,4.808,5.849
		c-4.057-1.183,4.663-11.328,8.008-4.374c1.501,3.117-5.81,10.537,1.384,10.868c-0.081-4.265-0.171-7.317,4.444-5.196
		c2.424,1.115,5.432,3.711,7.916,1.3c-7.526,1.084-1.343-7.801-2.472-9.954c1.036,2.703,4.742,4.681,6.427,2.165
		c-0.757-1.698-8.546-4.212-1.13-6.399c1.383-0.408,8.015-2.781,8.05-2.688c-3.333,4.187,7.254,10.468,6.427,5.192
		c-0.986-0.239-1.974-0.239-2.966,0c-1.434-5.708,7.431-2.383,9.888-4.327c0.055-0.701-12.49-2.168-8.404-7.789
		c-1.252,0.89-2.571,1.321-3.955,1.3c3.642-4.943,6.159,1.836,9.887,0c-1.041-2.247-5.084-1.866-1.976-6.058
		c1.272-0.994,3.567,1.546,4.449-0.436c-5.491-9.52,10.858,1.105,12.853-4.326c-3.274,0.076-10.92-0.649-11.371-7.358
		c2.213,1.332,2.922,6.68,5.934,4.328c-1.212-2.085-3.614-1.571-1.481-4.754c1.509-2.253,3.502-2.553,5.444-1.458
		c1.463,0.826,7.84-0.92,6.417-2.009c-0.776-0.061-8.976-0.467-4.924-3.664c1.675-1.321-3.777-5.634-6.445,0.201
		c-0.807-9.539,9.7-0.073,10.877-1.3c-0.809-0.387-1.631-0.675-2.472-0.863c-0.414-2.305,3.184-2.796,1.978-4.761
		c1.799-0.235,0.904,2.289,2.966,1.732c-0.596-5.146,4.867-6.141,7.911-3.465c-0.92,2.567-2.61,6.249,0.493,7.356
		c0.33-1.44,0.659-2.884,0.989-4.326c1.512-0.227,2.994-0.662,4.449-1.299c-0.109-2.335-0.439-7.633,3.46-6.493
		c-2.556,0.606-5.118,7.488-0.987,7.358c-2.879-4.864,5.858-5.89,7.415-5.626c-1.564,0.79-7.797,0.191-7.415,4.327
		c0.827-0.852,3.448-1.452,4.284-0.352c0.711,0.932-4.664-1.089-4.284,2.517c0.926-0.274,1.586,0.157,1.976,1.298
		c-2.037,3.877-5.486,5.488-7.415,9.52c0.188,2.218,0.966,5.044,2.966,3.896c-3.801-5.29,5.635-7.597,7.416-6.924
		c0.179-1.093-0.089-1.844-0.807-2.257c1.021,1.862,3.116,7.047,6.244,6.152c-3.523-3.272,0.564-11.609,3.569-8.752
		c0.963,0.917,4.196-3.232,4.836-5.098c-0.265,2.303-6.753,9.095-0.495,9.089c-3.16-8.04,8.454-7.146,10.805-6.436
		c6.765,2.042-5.295,7.393,5.013,2.974c-0.72,1.34-16.873,3.513-12.36,9.087c2.001-2.761,3.948-7.349,8.405-3.894
		c-0.549,1.351-7.559,11.48-2.472,10.818c-1.4-5.345,10.308-13.345,12.854-12.55c0.148-1.434-1.36-2.639,0.494-3.031
		c-0.002,1.482-0.167,2.925-0.494,4.329c1.159-0.367,2.312-0.367,3.461,0c-0.04,0.018-14.237,1.869-9.393,5.625
		c0.344-3.24,11.804-6.022,13.841-5.192c-2.663,0.829-5.417,4.087-7.646,3.289c-1.348-0.48-4.187-1.74-5.208,0.604
		c1.838,1.247,6.883-1.146,4.479,4.787c-1.358,3.351,0.521,7.371,3.43,5.599c0.142-3.902-3.632-6.23,2.354-7.537
		c1.684-0.509,3.206-0.015,4.567,1.479c0.527-1.512,1.351-2.522,2.471-3.03c-3.605,3.786-1.615,11.322,2.966,9.088
		c-5.315-6.208,3.535-7.335,6.118-3.625c2.795,4.014-2.762,11.458-4.515,14.117c-3.277,4.974-8.142,7.082-12.974,6.383
		c-1.867-2.986-9.148-3.49-10.876,0c1.318,0,2.636,0,3.955,0c1.198,4.574-8.354,1.007-9.551,0.94
		c-1.994-0.111-11.029,4.215-5.278,5.985c-0.055-0.774-0.219-1.498-0.496-2.165c1.966-0.875,8.39-4.952,7.417,1.73
		c-3.056-0.167-7.575,6.026-2.472,7.355c2.058-2.462-0.291-4.953,3.644-3.105c0.662,0.312,2.511,1.152,2.404,2.752
		c-0.17,2.551-3.72,3.457-4.948,3.776c-3.441,0.901-16.678-8.191-17.413-2.122c1.646-0.025,4.747-3.18,4.447,1.732
		c-2.254-0.825-14.669-4.03-13.841,3.461c2.215-4.979,8.438-3.188,11.371-0.868c-3.135,0.196-2.99,5.377,0,5.626
		c-1.654,0.394-3.301,0.826-4.945,1.3c-1.329-0.976-2.647-1.987-3.955-3.028c-3.546-0.868-6.521,3.316-9.591,1.257
		c-1.893-1.271-13.896,1.022-10.678,5.235c2.976-8.965,7.208,1.206,10.382-0.864c-3.052,1.401-9.5,8.665-2.471,9.951
		c-5.189-8.796,12.25-5.931,12.359-3.893c-2.501,0.654-3.528,5.471-0.495,4.755c0.623-1.733,6.205-7.834,6.92-2.594
		c-0.544,0.568-3.639-1.15-4.449-0.868c-0.203,1.729,2.026,1.046,1.483,3.029c-3.626,0.589-13.857,11.271-5.438,10.819
		c1.671-3.794-2.186-5.86,4.161-6.598c5.208-0.606,3.168,8.411,8.692,6.598c-0.383-1.519-4.601-6.569,0.495-7.356
		c2.985,0.687,4.581,4.517,7.91,3.03c-1.651-2.263-3.706-3.902-2.472-7.789c1.016,0.228,1.841-0.203,2.472-1.303
		c-1.063-0.188-2.051,0.103-2.966,0.869c3.108-4.841,7.55,4.418,11.369,2.596c0.106-0.494-3.58-3.045-2.966-6.925
		c3.434-0.726,6.361-3.028,9.887-1.299c1.136-3.596-3.187-2.445-3.955-4.328c9.724-0.092-2.29,10.319,7.415,10.388
		c-3.268-3.095,2.849-5.23,5.292-1.569c1.759,2.633,3.074,4.271,5.583,2.001c-5.486,0-1.681-3.423-0.494-6.057
		c-0.227,2.532,3.201,3.752,3.956,1.296c-0.402-0.971-2.768-0.419-2.472-2.161c1.378-0.256-0.118-2.042,1.978-1.301
		c0.419,0.608,0.233,1.067-0.556,1.381c-0.5,0.95,3.582,0.365,3.521,0.353c-0.469-0.443-0.829-1.03-1.083-1.76
		c-0.101-1,3.117,1.318,4.049,0.894c-0.1,2.936,0.522,5.813-0.214,8.697c-0.862,3.382-7.716,4.922-10.232,5.437
		c-3.911,0.805-5.554-3.632-9.327-3.316c-3.271,1.303-5.285,6.063-0.495,6.927c-4.792-0.078-3.366,5.392,0,6.057
		c-3.649-1.951-8.084-4.949-11.764-2.007c-1.665,1.334-4.615,4.733-1.586,7.201c1.896-1.01-0.866-4.233,2.048-5.48
		c1.511-0.599,3.038-0.707,4.582-0.327c3.498,0.981-0.672,6.053,3.259,5.808c-2.377-3.997,7.092-4.379,0.553,0.718
		c-2.329,1.814-2.073,7.309,0.931,7.937c-2.802-6.342,4.344-7.941,6.92-7.787c-0.194,1.488,2.731,5.582,3.571,4.979
		c-1.036-0.096-2.06-0.313-3.077-0.653c-0.575,1.863-1.401,3.449-2.479,4.756c-1.948,3.018-1.341,10.72,2.479,8.228
		c-0.365-4.172-3.164,0.355-1.051-5.181c1.104-2.893,2.62-4.754,5.005-4.774c4.113-0.029,5.994,9.099,10.381,5.193
		c-2.214-0.245-5.2-3.57-3.619-6.626c2.502-4.84,4.56,1.017,7.572-0.729c-4.208-1.771-2-5.214-3.459-9.52
		c1.426,2.313,2.838,5.907,5.437,5.193c0.214-4.098-3.836-1.738,0.494-6.49c-1.973-0.305-2.811-5.758,0-4.33
		c-3.693,2.512,8.299,7.579,8.898,8.222c-3.269,1.171,1.279,7.544,3.46,6.923c-4.67-7.938,6.98-7.444,9.889-5.623
		c-4.457,0.004-2.94,6.504,0.492,6.491c0.378-1.812-1.589-1.504-0.988-3.462c1.371-0.719,2.69-0.574,3.957,0.433
		c-0.575,1.952-1.563,3.249-2.966,3.894c1.544,3.151,3.536,5.917,6.226,6.741c-0.443-0.138,7.405,0.233,5.145-2.412
		c-1.969,1.576-9.503-0.346-6.426-5.193c2.118,0.075,10.651,1.485,11.28-2.631c-0.15,0.979-3.867,0.403-5.337-0.078
		c-5.415-1.777-0.1-2.719-1.987-6.811c1.362,0.91,6.37,2.026,6.92-1.303c-4.711,3.966-12.034-5.145-14.336-10.816
		c-0.091-0.032,9.654,8.17,8.899,3.896c-3.585,1.251-6.457-5.286-1.234-5.47c0.958-0.034,5.135,0.725,5.188-1.89
		c-3.444,0.931-6.974-2.41-3.954-7.355c-0.374,2.437,4.887,3.999,5.437,1.299c-0.569,0.204-3.494,1.264-2.966-1.299
		c4.155-5.39,10.252,8.049,13.842,0.865c-1.883-1.174-5.686,1.883-3.956-3.894c2.288,1.607,7.048-1.56,4.449-2.595
		c1.392,0.179,5.326,0.592,4.449-3.463c-0.7,0.179-1.359,0.031-1.979-0.437c1.191,0.018,2.345-0.271,3.461-0.864
		c-0.612,3.955,6.161,7.323,9.394,8.657c-2.918-1.093-5.97,0.911-8.898-0.434c1.609,2.247-2.413,2.988-0.495,5.193
		c1.841-1.552,3.163-2.925,5.438-2.165c1.459,2.639-3.687,3.594-4.449,4.325c-1.237,6.165-1.514,4.878-5.807,5.333
		c-2.943,0.309-6.727,0.884-8.977,4.066c-1.47,2.075-0.77,5.105,1.437,5.319c1.696-1.575-0.845-4.478,3.059-5.545
		c3.511-0.96,4.152,5.389,6.826,4.248c-0.405-0.925-0.569-1.933-0.493-3.031c4.205,0.562,3.665,6.644,1.481,10.819
		c0.639,0.369,5.164,6.739,5.437,1.728c-3.552-0.026-3.362-3.292-1.786-6.619c1.438-3.038,2.674-0.768,4.754-0.735
		c-0.042-1.716-0.371-3.305-0.988-4.761c0.935-0.931,1.923-1.077,2.967-0.435c-1.032-0.265-1.855,0.168-2.474,1.299
		c1.346,0.455,1.894,7.522,3.956,3.896c0.373-1.484-2.012-0.545-1.482-2.164c0.833-2.804,6.221-2.297,7.415-0.436
		c-1.197,1.997-1.476,5.279,0.988,5.627c-2.796-5.753,8.799-8.559,5.932-14.281c2.307-0.467,0.61,2.579,2.472,2.596
		c0.106-0.938,0.436-1.661,0.989-2.165c0.381,3.786-8.763,5.508-3.956,9.088c-2.037-4.157,4.803-7.359,6.063-4.01
		c2.179,5.801,0.313,2.577,4.813,3.144c0.726,2.812-0.583,7.876,2.965,6.924c0.821-5.198,1.705-8.325,6.922-6.058
		c0.172,0.859-2.493,10.545,1.976,7.358c-0.896-7.756,5.415-3.759,5.439-3.898c-1.459-1.721-4.447-0.25-5.439,1.733
		c0.592,2.364,3.634,0.517,4.45,2.596c-0.104,1.226-4.489-3.234-3.955,3.893c-3.359,1.442-6.326,2.818-9.888,2.165
		c-3.592-0.663-16.563-11.02-17.301,1.732c1.229-6.479-12.479,0.321-6.429,3.461c-1.131-4.671,6.675-3.939,6.429,2.597
		c-2.918,1.918-6.5,2.31-9.644,1.805c-1.051-0.167-16.9-1.183-12.604,4.255c0.958-3.025,2.607-3.892,4.945-2.596
		c0.069,8.684,3.36-1.133,6.428,0.864c-0.981-0.417-1.806-0.126-2.473,0.867c1.888,0.741,0.283,4.247,1.977,5.19
		c-62.124,0-124.247,0-186.372,0c11.999-5.398,29.979-28.55,31.009-48.522c0.354-6.822-4.282-9.851-3.787-16.764
		c0.402-5.609-1.655-9.009-4.741-11.852c-4.321-3.978-5.75-1.931-10.388-2.873c-3.642-0.739-6.93-3.431-10.612-3.941
		c-0.899,0.859,2.126,2.27-0.121,4.871c-1.686,1.952-3.713,2.303-5.811,2.055c-0.784,3.857,7.929,1.374,2.427,7.083
		c-3.105,3.225-6.384,1.06-9.527-0.262c-3.371-1.418-2.207,5.691-6.849,4.35c-2.442-0.707-5.214-2.464-4.839-6.846
		c-2.551,1.738-4.894-0.477-7.415-0.865c3.695,6.381-4.106,6.101-6.426,6.492c-0.099,2.243,8.783,4.221,3.42,7.475
		c-1.44,0.875-6.5-0.513-6.767,1.81c-0.392,3.421-1.579,3.239-4.18,3.189c-2.321-0.047-4.939-0.787-6.812-2.955
		c-1.388,2.426-3.477,3.471-5.569,2.636c-3.935-1.569-5.381-8.181-0.858-10.425c-0.279-8.09-12.314,5.976-10.381-6.059
		c1.257-7.825,11.593-3.605,9.77-12.246c-0.959-4.548-4.563-5.067-7.3-4.631c-3.299,2.228,1.395,7.114-3.911,6.79
		c-4.58-0.276-4.781-7.137-2.137-11.203c2.002-3.077,3.574-2.352,5.101-5.504c1.641-3.386,5.45-3.811,7.87-5.229
		c2.422-3.84-2.051-7.573,2.954-9.286c2.62-0.894,5.423-0.694,8.084-0.993c6.26-0.696,11.327-5.844,17.633-3.389
		c2.521,0.979,7.521,3.521,9.324-0.397c0.666-1.444,1.825-5.101-0.425-5.408c0.516,0.199-10.339,5.02-6.223-2.163
		c2.18-3.805,6.835-3.075,8.694-7.358c-0.221-1.705-11.209-0.561-2.944-7.386c4.263-3.522,9.352-4.144,13.596-7.716
		c3.262-2.744,8.521-4.192,12.434-5.758c5.085-2.036,10.45-2.716,15.396-5.477c6.67-3.719,15.349-3.491,22.497-3.948
		c6.435-0.412,12.295,2.59,18.256,2.555c11.651-0.067,22.237,1.841,33.534,6.622c12.667,5.361,25.187,12.07,37.291,19.43
		c5.458,3.318,11.345,6.219,16.045,11.631c5.504,1.504,13.103,5.28,17.209,10.815c8.713,11.744,22.03,22.144,33.559,25.981
		c6.865,2.285,13.87,3.774,20.916,2.585c2.447-0.415,4.488-2.595,6.92-3.029C302.103,76.148,305.25,77.65,307.83,76.192"/>
</g>
<rect id="_x3C_Slice_x3E_" x="450.459" y="100.409" fill="none" width="3" height="29"/>
</svg>
