<?xml version="1.0" encoding="utf-8"?>
<!-- Generator: Adobe Illustrator 15.1.0, SVG Export Plug-In . SVG Version: 6.00 Build 0)  -->
<!DOCTYPE svg PUBLIC "-//W3C//DTD SVG 1.1//EN" "http://www.w3.org/Graphics/SVG/1.1/DTD/svg11.dtd">
<svg version="1.1"
	 id="Layer_1" xmlns:dc="http://purl.org/dc/elements/1.1/" xmlns:cc="http://web.resource.org/cc/" xmlns:rdf="http://www.w3.org/1999/02/22-rdf-syntax-ns#" xmlns:svg="http://www.w3.org/2000/svg"
	 xmlns="http://www.w3.org/2000/svg" xmlns:xlink="http://www.w3.org/1999/xlink" x="0px" y="0px" width="451.918px"
	 height="163.818px" viewBox="0 0 451.918 163.818" enable-background="new 0 0 451.918 163.818" xml:space="preserve">
<g>
	<path fill="#FAFAFA" stroke="#F0F0F0" stroke-miterlimit="10" d="M451.918,76.469c0,9.822-50.9,4.685-58.06,2.607
		c6.032,5.621,20.343,4.522,27.945,5.248c9.535,0.91,20.721,2.68,30.113-0.035c0,8.968-1.307,7.572-10.156,7.379
		c-4.841-0.104-9.679-0.32-14.519-0.434c6.326,2.744,24.675-0.128,24.675,6.518c-37.677-1.502-75.39-23.158-105.229-44.728
		c-7.392-5.344-16.539-6.882-24.485-11.161c-7.056-3.8-13.776-7.788-21.188-10.92c-16.474-6.962-33.703-12.279-50.635-18.001
		c-18.906-6.391-35.989-6.039-55.37-8.126c-10.042-1.082-17.736-4.308-28.309-3.238c-8.165,0.826-16.11,2.599-24.312,2.801
		c-6.455,0.16-5.038,4.026-12.067,4.172c-4.934,0.104-9.83,0.96-14.547,2.389c-6.66,2.014-13.019,5.128-18.74,9.08
		c-2.039-0.122-23.052,3.238-20.321,7.815c1.657-0.87,9.051-4.685,9.721-0.689c0.285,1.704-3.215,3.042-2.464,4.601
		c3.825,0.344,4.428-2.343,6.763,0.298c1.35,1.245,2.966,1.727,4.852,1.439c0.157-0.996-0.301-1.529-1.372-1.602
		c-0.238-0.145,4.199-0.825,2.823,1.602c-5.462,0.138-25.065-1.229-26.127,6.949c7.056-9.917,11.922,4.471,16.689,6.947
		c-9.293,0.075-19.721,3.515-29.756-0.436c-6.372,2.213-13.085,3.375-19.371,3.598c-3.877,0.139-13.258,0.725-14.567,4.925
		c0.322-1.029,10.717-0.953,12.896,1.033c-0.994-0.464-1.96-0.464-2.904,0c0.558,6.565,4.511,1.264,8.022,1.281
		c8.023,0.044-1.625,4.763-2.217,6.537c-2.77,0.223-26.665-4.813-25.399,2.172c2.587-0.945,5.249-1.235,7.981-0.869
		C23.57,70.768-3.243,68.415,4.14,76.478c1.258-9.411,13.667-2.015,18.87-4.777c-4.657,1.59,2.962,5.552,4.354,5.646
		c0.098-0.936-0.294-1.546-1.176-1.833c-0.858-0.87,8.572-2.602,7.75-1.582c-3.03,3.748-6.696-1.457-7.401,5.457
		c-0.412,4.06,1.948,6.434,5.909,7.077c-3.687-1.13-25.598,3.896-19.596,8.253c-0.735-4.896,10.18-5.93,11.631-1.099
		c0.646,2.15,7.24-1.653,11.281-0.478c8.171,2.377-17.935,7.103-9.85,12.432c-4.838-2.758,10.346-3.692,10.887-3.907
		c-4.488,1.617,3.974,4.876,5.807,4.778c-9.885-7.372,11.863-3.918,12.339-5.646c-3.857,0.276-7.893-1.477-7.252-5.964
		c0.636-4.475,2.785-0.915,5.071-3.154c-0.041-1.667-4.158-1.126-5.08-1.738c4.309-0.726,7.823,4.886,11.612,2.604
		c-6.784-1.854-1.158-7.483,2.903-7.816c-0.582-0.712-0.756-1.513-0.526-2.397c0.221-0.309,3.057,8.816,7.058,5.87
		c-5.956-1.188,6.845-11.369,11.757-4.391c2.203,3.129-8.529,10.576,2.032,10.908c-0.118-4.28-0.251-7.344,6.524-5.215
		c3.558,1.119,7.974,3.724,11.62,1.304c-11.049,1.088-1.971-7.829-3.629-9.989c1.521,2.712,6.962,4.698,9.435,2.172
		c-1.111-1.704-12.546-4.227-1.659-6.422c2.031-0.409,11.766-2.791,11.819-2.698c-4.893,4.202,10.649,10.507,9.435,5.211
		c-1.448-0.24-2.898-0.24-4.354,0c-2.105-5.729,10.908-2.392,14.516-4.343c0.081-0.704-18.336-2.176-12.338-7.817
		c-1.838,0.893-3.774,1.326-5.806,1.305c5.346-4.961,9.041,1.843,14.514,0c-1.528-2.255-7.464-1.873-2.901-6.08
		c1.868-0.997,5.237,1.552,6.531-0.438c-8.06-9.555,15.941,1.109,18.869-4.342c-4.807,0.076-16.032-0.651-16.693-7.385
		c3.249,1.337,4.289,6.704,8.711,4.344c-1.78-2.093-5.305-1.576-2.174-4.771c2.215-2.262,5.141-2.563,7.992-1.463
		c2.148,0.829,11.51-0.923,9.42-2.017c-1.139-0.061-13.177-0.469-7.229-3.677c2.459-1.326-5.546-5.654-9.462,0.202
		c-1.184-9.573,14.24-0.073,15.969-1.305c-1.188-0.389-2.396-0.678-3.63-0.866c-0.608-2.313,4.674-2.807,2.903-4.778
		c2.641-0.236,1.328,2.297,4.354,1.738c-0.875-5.164,7.146-6.163,11.613-3.478c-1.35,2.576-3.832,6.271,0.724,7.383
		c0.484-1.445,0.968-2.895,1.452-4.342c2.219-0.228,4.395-0.664,6.531-1.304c-0.16-2.344-0.645-7.661,5.08-6.517
		c-3.752,0.608-7.514,7.516-1.45,7.385c-4.226-4.882,8.601-5.911,10.886-5.646c-2.296,0.793-11.447,0.191-10.886,4.343
		c1.214-0.854,5.062-1.457,6.289-0.354c1.045,0.936-6.847-1.093-6.289,2.526c1.36-0.275,2.329,0.157,2.901,1.303
		c-2.99,3.892-8.054,5.508-10.885,9.554c0.276,2.227,1.418,5.063,4.354,3.91c-5.581-5.309,8.273-7.624,10.887-6.949
		c0.262-1.097-0.131-1.851-1.184-2.266c1.498,1.869,4.574,7.073,9.166,6.175c-5.172-3.284,0.828-11.651,5.24-8.784
		c1.414,0.92,6.16-3.244,7.1-5.116c-0.389,2.312-9.914,9.128-0.727,9.122c-4.638-8.068,12.412-7.172,15.863-6.459
		c9.932,2.05-7.773,7.42,7.359,2.984c-1.057,1.345-24.771,3.525-18.145,9.12c2.938-2.771,5.795-7.375,12.338-3.908
		c-0.806,1.355-11.097,11.522-3.629,10.857c-2.056-5.364,15.133-13.394,18.87-12.596c0.218-1.438-1.997-2.648,0.726-3.042
		c-0.004,1.487-0.246,2.936-0.726,4.345c1.701-0.368,3.394-0.368,5.081,0c-0.058,0.018-20.9,1.876-13.789,5.646
		c0.506-3.252,17.329-6.044,20.319-5.211c-3.908,0.832-7.952,4.103-11.224,3.301c-1.979-0.482-6.146-1.746-7.646,0.606
		c2.699,1.252,10.104-1.15,6.575,4.805c-1.993,3.363,0.765,7.397,5.035,5.619c0.209-3.917-5.332-6.253,3.457-7.564
		c2.472-0.511,4.705-0.016,6.705,1.484c0.773-1.518,1.982-2.531,3.627-3.041c-5.293,3.8-2.371,11.363,4.354,9.121
		c-7.803-6.23,5.19-7.362,8.981-3.638c4.104,4.028-4.055,11.499-6.627,14.168c-4.812,4.991-11.953,7.107-19.047,6.406
		c-2.74-2.997-13.43-3.503-15.967,0c1.936,0,3.87,0,5.807,0c1.758,4.591-12.264,1.011-14.022,0.943
		c-2.927-0.111-16.191,4.23-7.748,6.007c-0.081-0.777-0.322-1.503-0.729-2.173c2.887-0.878,12.318-4.97,10.888,1.737
		c-4.486-0.168-11.121,6.048-3.629,7.382c3.021-2.471-0.426-4.971,5.35-3.117c0.971,0.313,3.687,1.157,3.529,2.763
		c-0.25,2.56-5.461,3.469-7.264,3.79c-5.051,0.904-24.484-8.222-25.563-2.13c2.416-0.025,6.968-3.191,6.529,1.738
		c-3.31-0.828-21.535-4.045-20.32,3.474c3.252-4.997,12.388-3.199,16.693-0.871c-4.603,0.197-4.39,5.396,0,5.646
		c-2.429,0.395-4.847,0.829-7.259,1.305c-1.951-0.979-3.887-1.995-5.806-3.04c-5.206-0.871-9.573,3.329-14.081,1.262
		c-2.779-1.276-20.4,1.026-15.675,5.254c4.368-8.997,10.582,1.211,15.24-0.867c-4.481,1.406-13.946,8.696-3.627,9.987
		c-7.617-8.827,17.985-5.952,18.143-3.906c-3.671,0.656-5.179,5.49-0.726,4.771c0.915-1.739,9.109-7.862,10.16-2.603
		c-0.799,0.57-5.342-1.154-6.532-0.871c-0.298,1.735,2.975,1.049,2.178,3.04c-5.323,0.591-20.343,11.312-7.983,10.858
		c2.453-3.808-3.209-5.882,6.109-6.621c7.645-0.609,4.651,8.441,12.76,6.621c-0.563-1.524-6.754-6.593,0.726-7.383
		c4.382,0.688,6.725,4.533,11.612,3.041c-2.424-2.271-5.44-3.916-3.629-7.817c1.492,0.229,2.703-0.204,3.629-1.308
		c-1.562-0.188-3.012,0.104-4.354,0.872c4.563-4.858,11.083,4.435,16.69,2.605c0.156-0.496-5.256-3.056-4.354-6.95
		c5.042-0.728,9.339-3.039,14.515-1.303c1.668-3.609-4.679-2.455-5.806-4.345c14.274-0.092-3.362,10.357,10.886,10.426
		c-4.798-3.105,4.183-5.249,7.769-1.575c2.583,2.643,4.514,4.286,8.196,2.009c-8.054,0-2.467-3.436-0.725-6.079
		c-0.333,2.542,4.699,3.766,5.807,1.301c-0.59-0.975-4.063-0.421-3.629-2.169c2.022-0.257-0.174-2.05,2.903-1.306
		c0.615,0.61,0.343,1.071-0.815,1.386c-0.733,0.954,5.258,0.367,5.17,0.354c-0.688-0.445-1.217-1.034-1.59-1.767
		c-0.147-1.004,4.576,1.323,5.944,0.896c-0.147,2.946,0.767,5.835-0.315,8.729c-1.265,3.394-11.328,4.939-15.021,5.456
		c-5.741,0.808-8.153-3.646-13.692-3.328c-4.802,1.307-7.759,6.084-0.727,6.951c-7.034-0.078-4.941,5.411,0,6.079
		c-5.357-1.958-11.868-4.968-17.27-2.015c-2.444,1.339-6.775,4.751-2.328,7.228c2.783-1.014-1.271-4.249,3.007-5.5
		c2.218-0.601,4.46-0.71,6.726-0.328c5.135,0.984-0.986,6.074,4.784,5.828c-3.49-4.012,10.411-4.395,0.812,0.721
		c-3.418,1.82-3.043,7.335,1.367,7.965c-4.113-6.364,6.377-7.97,10.158-7.815c-0.285,1.494,4.01,5.603,5.243,4.997
		c-1.521-0.097-3.024-0.314-4.517-0.656c-0.844,1.87-2.057,3.462-3.639,4.773c-2.859,3.028-1.969,10.759,3.639,8.258
		c-0.535-4.188-4.645,0.356-1.543-5.2c1.621-2.902,3.847-4.771,7.349-4.791c6.038-0.029,8.799,9.131,15.239,5.212
		c-3.25-0.246-7.633-3.583-5.313-6.65c3.674-4.857,6.695,1.021,11.117-0.731c-6.178-1.777-2.938-5.233-5.079-9.555
		c2.093,2.322,4.166,5.929,7.981,5.213c0.314-4.113-5.631-1.745,0.726-6.515c-2.896-0.306-4.126-5.778,0-4.346
		c-5.421,2.521,12.183,7.607,13.063,8.252c-4.799,1.175,1.877,7.571,5.08,6.948c-6.856-7.968,10.247-7.472,14.518-5.644
		c-6.542,0.004-4.316,6.527,0.724,6.515c0.555-1.818-2.333-1.51-1.451-3.475c2.013-0.722,3.948-0.576,5.808,0.435
		c-0.844,1.959-2.295,3.261-4.354,3.907c2.267,3.163,5.19,5.938,9.14,6.766c-0.651-0.138,10.871,0.234,7.554-2.421
		c-2.891,1.582-13.952-0.347-9.434-5.212c3.108,0.075,15.636,1.49,16.56-2.641c-0.221,0.982-5.676,0.405-7.836-0.078
		c-7.947-1.784-0.146-2.729-2.917-6.836c2,0.914,9.353,2.034,10.159-1.307c-6.916,3.979-17.666-5.164-21.046-10.856
		c-0.134-0.032,14.173,8.2,13.063,3.911c-5.263,1.256-9.479-5.306-1.812-5.489c1.405-0.035,7.538,0.727,7.615-1.896
		c-5.057,0.934-10.238-2.419-5.805-7.383c-0.55,2.445,7.175,4.014,7.98,1.304c-0.835,0.205-5.129,1.269-4.354-1.304
		c6.102-5.409,15.051,8.078,20.321,0.868c-2.765-1.178-8.347,1.89-5.808-3.907c3.359,1.613,10.348-1.565,6.532-2.604
		c2.042,0.18,7.818,0.594,6.53-3.476c-1.027,0.18-1.994,0.032-2.902-0.438c1.747,0.018,3.44-0.271,5.08-0.867
		c-0.9,3.969,9.044,7.35,13.789,8.688c-4.282-1.097-8.763,0.914-13.063-0.436c2.362,2.256-3.543,2.999-0.728,5.212
		c2.702-1.557,4.645-2.935,7.983-2.173c2.142,2.648-5.412,3.607-6.532,4.341c-1.816,6.188-2.222,4.896-8.524,5.353
		c-4.32,0.31-9.875,0.888-13.179,4.081c-2.156,2.083-1.129,5.124,2.109,5.339c2.49-1.581-1.24-4.493,4.491-5.564
		c5.153-0.964,6.095,5.408,10.021,4.263c-0.595-0.928-0.836-1.939-0.725-3.042c6.174,0.563,5.381,6.668,2.176,10.858
		c0.937,0.371,7.58,6.764,7.981,1.734c-5.216-0.026-4.938-3.305-2.623-6.644c2.111-3.049,3.925-0.771,6.979-0.738
		c-0.063-1.722-0.546-3.316-1.451-4.777c1.371-0.935,2.822-1.081,4.354-0.437c-1.515-0.266-2.724,0.169-3.63,1.304
		c1.975,0.457,2.779,7.55,5.807,3.91c0.548-1.489-2.952-0.547-2.177-2.172c1.224-2.813,9.133-2.305,10.886-0.437
		c-1.758,2.004-2.166,5.298,1.452,5.647c-4.105-5.774,12.916-8.59,8.708-14.333c3.387-0.469,0.895,2.588,3.629,2.604
		c0.155-0.941,0.639-1.667,1.451-2.173c0.559,3.8-12.864,5.528-5.808,9.121c-2.99-4.173,7.051-7.386,8.899-4.024
		c3.199,5.822,0.461,2.587,7.067,3.155c1.065,2.821-0.856,7.904,4.354,6.948c1.205-5.217,2.502-8.354,10.159-6.079
		c0.254,0.862-3.659,10.583,2.901,7.385c-1.313-7.784,7.95-3.772,7.985-3.912c-2.142-1.728-6.528-0.251-7.985,1.739
		c0.869,2.373,5.335,0.519,6.532,2.605c-0.15,1.229-6.589-3.246-5.806,3.906c-4.932,1.448-9.287,2.829-14.516,2.173
		c-5.273-0.665-24.315-11.06-25.398,1.739c1.807-6.503-18.32,0.322-9.438,3.474c-1.659-4.688,9.799-3.954,9.438,2.605
		c-4.284,1.926-9.541,2.318-14.156,1.812c-1.542-0.168-24.811-1.187-18.504,4.271c1.406-3.036,3.826-3.906,7.259-2.605
		c0.104,8.716,4.934-1.137,9.437,0.867c-1.44-0.418-2.65-0.126-3.63,0.871c2.771,0.743,0.415,4.263,2.901,5.209
		c-91.201,0-182.4,0-273.604,0c17.615-5.418,44.01-28.653,45.523-48.698c0.52-6.848-6.287-9.887-5.559-16.825
		c0.59-5.63-2.43-9.041-6.96-11.895c-6.343-3.992-8.441-1.938-15.25-2.883c-5.346-0.742-10.174-3.443-15.579-3.956
		c-1.32,0.862,3.121,2.278-0.178,4.889c-2.475,1.959-5.451,2.312-8.53,2.063c-1.15,3.871,11.64,1.379,3.564,7.108
		c-4.559,3.236-9.372,1.063-13.987-0.263c-4.949-1.423-3.24,5.712-10.055,4.365c-3.585-0.709-7.654-2.473-7.104-6.87
		c-3.746,1.744-7.185-0.479-10.886-0.868c5.425,6.403-6.028,6.122-9.434,6.516c-0.144,2.251,12.894,4.235,5.022,7.501
		c-2.115,0.879-9.543-0.514-9.934,1.816c-0.575,3.434-2.317,3.251-6.136,3.201c-3.407-0.047-7.251-0.79-10-2.966
		c-2.038,2.435-5.104,3.483-8.175,2.646c-5.777-1.575-7.901-8.211-1.261-10.463c-0.409-8.119-18.078,5.997-15.24-6.08
		c1.845-7.854,17.019-3.619,14.342-12.291c-1.409-4.564-6.698-5.086-10.716-4.647c-4.843,2.235,2.047,7.14-5.742,6.814
		c-6.723-0.277-7.018-7.163-3.138-11.243c2.939-3.088,5.247-2.36,7.489-5.524c2.408-3.398,8.001-3.824,11.554-5.248
		c3.556-3.854-3.011-7.601,4.336-9.319c3.846-0.897,7.961-0.696,11.868-0.996c9.19-0.699,16.628-5.865,25.886-3.401
		c3.701,0.983,11.042,3.534,13.689-0.398c0.977-1.449,2.678-5.119-0.624-5.428c0.757,0.2-15.179,5.038-9.136-2.171
		c3.2-3.818,10.035-3.086,12.764-7.385c-0.324-1.711-16.456-0.563-4.322-7.413c6.258-3.535,13.729-4.159,19.96-7.744
		c4.789-2.754,12.509-4.207,18.254-5.779c7.465-2.043,15.34-2.726,22.602-5.496c9.793-3.732,22.533-3.504,33.027-3.963
		c9.447-0.413,18.05,2.6,26.8,2.564c17.104-0.067,32.646,1.848,49.229,6.646c18.596,5.381,36.977,12.114,54.745,19.501
		c8.013,3.33,16.654,6.241,23.555,11.673c8.08,1.51,19.235,5.3,25.263,10.854c12.791,11.786,32.343,22.224,49.266,26.075
		c10.08,2.293,20.363,3.788,30.706,2.595c3.594-0.416,6.59-2.604,10.159-3.04C443.511,76.425,448.13,77.931,451.918,76.469"/>
</g>
<rect id="_x3C_Slice_x3E_" x="450.459" y="100.409" fill="none" width="3" height="29"/>
</svg>
