<?xml version="1.0" encoding="utf-8"?>
<!-- Generator: Adobe Illustrator 18.1.1, SVG Export Plug-In . SVG Version: 6.00 Build 0)  -->
<!DOCTYPE svg PUBLIC "-//W3C//DTD SVG 1.1//EN" "http://www.w3.org/Graphics/SVG/1.1/DTD/svg11.dtd">
<svg version="1.1" id="Layer_1" xmlns="http://www.w3.org/2000/svg" xmlns:xlink="http://www.w3.org/1999/xlink" x="0px" y="0px"
	 viewBox="0 0 1082.1 1019.4" enable-background="new 0 0 1082.1 1019.4" xml:space="preserve">
<path opacity="0.5" fill="#FFFFFF" d="M0,0l1081.8,0v876.8c0,76.6-62.1,138.7-138.7,138.7H138.7C62.1,1015.5,0,953.4,0,876.8L0,0z"
	/>
<path fill="#214D79" d="M115.3,41.6H972v737.2c0,66-53.5,119.4-119.4,119.4H234.8c-66,0-119.4-53.5-119.4-119.4V41.6z"/>
<g>
	<path fill="#FFFFFF" d="M543.7,279.3C438.4,279.3,353,364.7,353,470s85.4,190.7,190.7,190.7S734.3,575.3,734.3,470
		S649,279.3,543.7,279.3z M543.7,576.6C484.7,576.6,437,528.9,437,470s47.8-106.7,106.7-106.7S650.3,411.1,650.3,470
		S602.6,576.6,543.7,576.6z"/>
	<rect x="505.4" y="199.3" fill="#FFFFFF" width="76.5" height="117"/>
	<rect x="692.3" y="436.7" fill="#FFFFFF" width="117" height="76.5"/>
	<rect x="495.5" y="623.6" fill="#FFFFFF" width="76.5" height="117"/>
	<rect x="268.1" y="426.8" fill="#FFFFFF" width="117" height="76.5"/>
</g>
</svg>
