<?xml version="1.0" encoding="utf-8"?>
<!-- Generator: Adobe Illustrator 18.1.1, SVG Export Plug-In . SVG Version: 6.00 Build 0)  -->
<!DOCTYPE svg PUBLIC "-//W3C//DTD SVG 1.1//EN" "http://www.w3.org/Graphics/SVG/1.1/DTD/svg11.dtd">
<svg version="1.1" id="Layer_1" xmlns="http://www.w3.org/2000/svg" xmlns:xlink="http://www.w3.org/1999/xlink" x="0px" y="0px"
	 viewBox="0 -2 28 27" enable-background="new 0 -2 28 27" xml:space="preserve">
<path opacity="0.5" fill="#FFFFFF" d="M24.6,25H3.4C1.5,25,0,23.5,0,21.6V1.4C0-0.5,1.5-2,3.4-2h21.2C26.5-2,28-0.5,28,1.4v20.2
	C28,23.5,26.5,25,24.6,25z"/>
<path fill="#214D79" d="M21.7,22H6.5c-1.6,0-2.9-1.3-2.9-2.9V3.9C3.6,2.3,4.9,1,6.5,1h15.2c1.6,0,2.9,1.3,2.9,2.9v15.2
	C24.6,20.7,23.3,22,21.7,22z"/>
<g>
	<path fill="#FFFFFF" d="M14.1,6.8c-2.6,0-4.7,2.1-4.7,4.7s2.1,4.7,4.7,4.7s4.7-2.1,4.7-4.7S16.6,6.8,14.1,6.8z M14.1,14.1
		c-1.4,0-2.6-1.2-2.6-2.6s1.2-2.6,2.6-2.6s2.6,1.2,2.6,2.6S15.5,14.1,14.1,14.1z"/>
	<rect x="13.1" y="4.9" fill="#FFFFFF" width="1.9" height="2.9"/>
	<rect x="17.7" y="10.7" fill="#FFFFFF" width="2.9" height="1.9"/>
	<rect x="12.9" y="15.3" fill="#FFFFFF" width="1.9" height="2.9"/>
	<rect x="7.3" y="10.5" fill="#FFFFFF" width="2.9" height="1.9"/>
</g>
</svg>
