<?xml version="1.0" encoding="utf-8"?>
<!-- Generator: Adobe Illustrator 15.1.0, SVG Export Plug-In  -->
<!DOCTYPE svg PUBLIC "-//W3C//DTD SVG 1.1//EN" "http://www.w3.org/Graphics/SVG/1.1/DTD/svg11.dtd" [
	<!ENTITY ns_flows "http://ns.adobe.com/Flows/1.0/">
]>
<svg version="1.1"
	 xmlns="http://www.w3.org/2000/svg" xmlns:xlink="http://www.w3.org/1999/xlink" xmlns:a="http://ns.adobe.com/AdobeSVGViewerExtensions/3.0/"
	 x="0px" y="0px" width="900px" height="221px" viewBox="0 0 900 221" overflow="visible" enable-background="new 0 0 900 221"
	 xml:space="preserve">
<defs>
</defs>
<path fill="#1C3664" d="M898.833,110.738c0,61.159-25.434,110.738-56.824,110.738H56.824C25.453,221.476,0,171.897,0,110.738l0,0
	C0,49.579,25.453,0,56.824,0h785.185C873.399,0,898.833,49.579,898.833,110.738L898.833,110.738z"/>
<path fill="#FFFFFF" d="M187.959,163.93V71.91h25.394v12.299c3.833-9.497,11.383-14.246,22.651-14.246V92.88
	c-1.239-0.177-2.331-0.266-3.274-0.266c-6.253,0-11.06,1.416-14.422,4.247c-3.304,2.832-4.955,8.2-4.955,16.104v50.965H187.959z"/>
<path fill="#FFFFFF" d="M271.396,122.167c0,9.438,0.854,16.428,2.566,20.97c1.77,4.543,5.013,6.813,9.733,6.813
	c7.373,0,11.06-5.544,11.06-16.634h25.394c0,9.379-3.127,17.165-9.379,23.359c-6.194,6.136-15.219,9.202-27.075,9.202
	c-13.272,0-22.887-3.392-28.845-10.175c-5.899-6.842-8.848-17.577-8.848-32.207v-6.725c0-18.521,3.066-30.938,9.202-37.25
	c6.134-6.371,15.573-9.556,28.314-9.556c12.564,0,21.943,3.304,28.137,9.91c6.193,6.547,9.291,17.461,9.291,32.737v5.575
	c0,2.183,0,3.51,0,3.981H271.396z M271.396,107.921h24.155c0-9.496-1.033-15.542-3.097-18.138c-2.065-2.595-5.015-3.893-8.848-3.893
	c-4.543,0-7.728,1.681-9.556,5.043C272.281,94.238,271.396,99.9,271.396,107.921z"/>
<path fill="#FFFFFF" d="M336.96,71.91h25.394v9.379c4.659-7.55,11.886-11.326,21.678-11.326c8.435,0,15.307,3.776,20.616,11.326
	c2.064-3.303,4.984-6.017,8.759-8.14c3.833-2.124,8.671-3.186,14.511-3.186c6.252,0,11.502,1.858,15.75,5.574
	c4.305,3.658,6.459,8.642,6.459,14.954v73.438h-25.394v-63.44c0-9.733-3.097-14.599-9.291-14.599c-6.136,0-9.202,4.66-9.202,13.98
	v64.06h-25.394v-63.44c0-9.733-3.008-14.599-9.025-14.599c-6.312,0-9.467,4.66-9.467,13.98v64.06H336.96V71.91z"/>
<path fill="#FFFFFF" d="M467.468,116.77c0-18.521,3.097-30.938,9.291-37.25c6.193-6.371,15.689-9.556,28.49-9.556
	c12.151,0,21.382,3.156,27.694,9.468c6.312,6.253,9.468,18.7,9.468,37.338c0,19.702-3.097,32.826-9.291,39.374
	c-6.193,6.489-15.483,9.733-27.871,9.733c-13.686,0-23.418-3.568-29.198-10.707c-5.723-7.136-8.583-18.138-8.583-33.003V116.77z
	 M492.862,116.15c0,13.922,0.796,23.035,2.389,27.34c1.65,4.307,4.984,6.459,9.998,6.459c4.602,0,7.698-2.212,9.291-6.636
	c1.65-4.424,2.478-13.478,2.478-27.164c0-12.564-0.885-20.733-2.655-24.509c-1.711-3.833-4.748-5.751-9.113-5.751
	c-5.132,0-8.494,2.154-10.087,6.459c-1.534,4.247-2.3,10.264-2.3,18.05V116.15z"/>
<path fill="#FFFFFF" d="M591.695,141.633l13.979-69.723h24.952l-25.482,92.02h-28.137l-25.482-92.02h25.747L591.695,141.633z"/>
<path fill="#FFFFFF" d="M663.896,122.167c0,9.438,0.854,16.428,2.565,20.97c1.77,4.543,5.013,6.813,9.733,6.813
	c7.372,0,11.06-5.544,11.06-16.634h25.394c0,9.379-3.127,17.165-9.379,23.359c-6.193,6.136-15.218,9.202-27.074,9.202
	c-13.272,0-22.888-3.392-28.845-10.175c-5.899-6.842-8.849-17.577-8.849-32.207v-6.725c0-18.521,3.066-30.938,9.202-37.25
	c6.135-6.371,15.572-9.556,28.313-9.556c12.564,0,21.943,3.304,28.137,9.91c6.194,6.547,9.291,17.461,9.291,32.737v5.575
	c0,2.183,0,3.51,0,3.981H663.896z M663.896,107.921h24.155c0-9.496-1.033-15.542-3.098-18.138c-2.065-2.595-5.014-3.893-8.848-3.893
	c-4.543,0-7.729,1.681-9.556,5.043C664.78,94.238,663.896,99.9,663.896,107.921z"/>
</svg>
