<?xml version="1.0" encoding="utf-8"?>
<!-- Generator: Adobe Illustrator 18.1.1, SVG Export Plug-In . SVG Version: 6.00 Build 0)  -->
<!DOCTYPE svg PUBLIC "-//W3C//DTD SVG 1.1//EN" "http://www.w3.org/Graphics/SVG/1.1/DTD/svg11.dtd">
<svg version="1.1" id="Layer_1" xmlns="http://www.w3.org/2000/svg" xmlns:xlink="http://www.w3.org/1999/xlink" x="0px" y="0px"
	 viewBox="0 0 18.7 24" enable-background="new 0 0 18.7 24" xml:space="preserve">
<path fill="#003366" d="M18.7,6.4H0V4.1c0-0.8,0.6-1.4,1.4-1.4h15.9c0.8,0,1.4,0.6,1.4,1.4V6.4z"/>
<path fill="#003366" d="M0.7,7.5V24H18V7.5H0.7z M5.6,20.3h-2V9.2h2V20.3z M10.4,20.3h-2V9.2h2V20.3z M15.1,20.3h-2V9.2h2V20.3z"/>
<polygon fill="#003366" points="5.9,0 5.9,2.3 6.7,2.3 6.7,0.7 12,0.7 12,2.3 12.8,2.3 12.8,0 "/>
</svg>
