<?xml version="1.0" encoding="utf-8"?>
<!-- Generator: Adobe Illustrator 17.1.0, SVG Export Plug-In . SVG Version: 6.00 Build 0)  -->
<!DOCTYPE svg PUBLIC "-//W3C//DTD SVG 1.1//EN" "http://www.w3.org/Graphics/SVG/1.1/DTD/svg11.dtd">
<svg version="1.1" id="Layer_1" xmlns="http://www.w3.org/2000/svg" xmlns:xlink="http://www.w3.org/1999/xlink" x="0px" y="0px"
	 viewBox="0 0 900 900" enable-background="new 0 0 900 900" xml:space="preserve">
<path opacity="0.3" fill="#FFFFFF" enable-background="new    " d="M0,889c0,5.5,0,3.5,0,10h890.7c5.1,0,9.3-4.5,9.3-10V9
	c0-5.5-4.2-10-9.3-10H0C0,6.5,0,3.5,0,9V889z"/>
<path fill="#003366" d="M0,858.7c0,5.1,0,0,0,9.3h858c4.9,0,9-4.2,9-9.3V39.3c0-5.1-4-9.3-9-9.3H0c0,9.3,0,4.2,0,9.3
	C0,39.3,0,858.7,0,858.7z"/>
<g>
	<polygon fill="#FFFFFF" points="430,88.2 821.3,287 430,479.6 38.7,283.9 	"/>
	<polygon fill="#FFFFFF" points="204.4,366.8 38.7,449 430,646.2 821.3,449 659.2,366.8 600.5,395.6 703.6,449 430,589.6 150.3,449 
		260,394.6 	"/>
	<polygon fill="#FFFFFF" points="200.5,530.5 38.7,611 430,809.8 821.3,612.6 659.5,530.5 604,558.5 708.2,612.6 430,751.7 
		154.8,612.6 262.7,561.9 	"/>
</g>
</svg>
