<?xml version="1.0" encoding="utf-8"?>
<!-- Generator: Adobe Illustrator 17.1.0, SVG Export Plug-In . SVG Version: 6.00 Build 0)  -->
<!DOCTYPE svg PUBLIC "-//W3C//DTD SVG 1.1//EN" "http://www.w3.org/Graphics/SVG/1.1/DTD/svg11.dtd">
<svg version="1.1" id="Layer_1" xmlns="http://www.w3.org/2000/svg" xmlns:xlink="http://www.w3.org/1999/xlink" x="0px" y="0px"
	 viewBox="0 0 900 900" enable-background="new 0 0 900 900" xml:space="preserve">
<path opacity="0.3" fill="#FFFFFF" enable-background="new    " d="M0,889c0,5.5,0,3.5,0,10h890.7c5.1,0,9.3-4.5,9.3-10V9
	c0-5.5-4.2-10-9.3-10H0C0,6.5,0,3.5,0,9V889z"/>
<path fill="#003366" d="M0,858.7c0,5.1,0,0,0,9.3h858c4.9,0,9-4.2,9-9.3V39.3c0-5.1-4-9.3-9-9.3H0c0,9.3,0,4.2,0,9.3
	C0,39.3,0,858.7,0,858.7z"/>
<g>
	<polygon fill="#FFFFFF" points="441.7,160.2 752.8,318.2 441.7,471.3 130.7,315.8 	"/>
	<polygon fill="#FFFFFF" points="262.4,381.6 130.7,447 441.7,603.7 752.8,447 623.9,381.6 577.3,404.6 659.2,447 441.7,558.8 
		219.4,447 306.6,403.7 	"/>
	<polygon fill="#FFFFFF" points="259.3,511.8 130.7,575.8 441.7,733.8 752.8,577 624.2,511.8 580,534.1 662.9,577 441.7,687.6 
		223,577 308.8,536.7 	"/>
</g>
</svg>
