<?xml version="1.0" encoding="utf-8"?>
<!-- Generator: Adobe Illustrator 17.1.0, SVG Export Plug-In . SVG Version: 6.00 Build 0)  -->
<!DOCTYPE svg PUBLIC "-//W3C//DTD SVG 1.1//EN" "http://www.w3.org/Graphics/SVG/1.1/DTD/svg11.dtd">
<svg version="1.1" id="Layer_1" xmlns="http://www.w3.org/2000/svg" xmlns:xlink="http://www.w3.org/1999/xlink" x="0px" y="0px"
	 viewBox="0 0 900 900" enable-background="new 0 0 900 900" xml:space="preserve">
<path opacity="0.3" fill="#FFFFFF" enable-background="new    " d="M900,9c0-5.5,0-3.5,0-10L9.3-1C4.2-1,0,3.5,0,9l0,880
	c0,5.5,4.2,10,9.3,10H900c0-7.5,0-4.5,0-10V9z"/>
<path fill="#1C3665" d="M900,39.3c0-5.1,0,0,0-9.3H42c-4.9,0-9,4.2-9,9.3v819.4c0,5.1,4,9.3,9,9.3h858c0-9.3,0-4.2,0-9.3
	C900,858.7,900,39.3,900,39.3z"/>
<g>
	<rect x="114" y="103.1" fill="#FFFFFF" width="134.1" height="141.8"/>
	<rect x="114" y="379.1" fill="#FFFFFF" width="134.1" height="141.8"/>
	<rect x="114" y="655.1" fill="#FFFFFF" width="134.1" height="141.8"/>
	<rect x="340.1" y="145.3" fill="#FFFFFF" width="413.9" height="53.7"/>
	<rect x="340.1" y="423.2" fill="#FFFFFF" width="413.9" height="53.7"/>
	<rect x="340.1" y="699.1" fill="#FFFFFF" width="413.9" height="53.7"/>
</g>
</svg>
