<?xml version="1.0" encoding="utf-8"?>
<!-- Generator: Adobe Illustrator 17.1.0, SVG Export Plug-In . SVG Version: 6.00 Build 0)  -->
<!DOCTYPE svg PUBLIC "-//W3C//DTD SVG 1.1//EN" "http://www.w3.org/Graphics/SVG/1.1/DTD/svg11.dtd">
<svg version="1.1" id="Layer_1" xmlns="http://www.w3.org/2000/svg" xmlns:xlink="http://www.w3.org/1999/xlink" x="0px" y="0px"
	 viewBox="0 0 900 700" enable-background="new 0 0 900 700" xml:space="preserve">
<path opacity="0.5" fill="#FFFFFF" enable-background="new    " d="M899.7,0L700,0l6.9,0L158.5,0C71,0,0,87,0,194.4l0,311
	c0,107.3,71,194.4,158.5,194.4H700c5.9,0,11.6-0.5,17.3-1.2h182.4V0z"/>
<path opacity="0.7" fill="#345481" enable-background="new    " d="M689,71.6h33.2H244.4c-76.3,0-138.2,69-138.2,154v246.5
	c0,85.1,61.9,154,138.2,154l467.2,1.9h10.6h177.5V71.6L689,71.6L689,71.6z"/>
<polygon fill="#FFFFFF" points="301.5,349.9 500,235.2 500,168.8 186.5,349.9 500,530.9 500,464.5 "/>
<polygon fill="#FFFFFF" points="615,349.9 813.6,235.2 813.6,168.8 500,349.9 813.6,530.9 813.6,464.5 "/>
</svg>
