<?xml version="1.0" encoding="utf-8"?>
<!-- Generator: Adobe Illustrator 15.1.0, SVG Export Plug-In  -->
<!DOCTYPE svg PUBLIC "-//W3C//DTD SVG 1.1//EN" "http://www.w3.org/Graphics/SVG/1.1/DTD/svg11.dtd" [
	<!ENTITY ns_flows "http://ns.adobe.com/Flows/1.0/">
]>
<svg version="1.1"
	 xmlns="http://www.w3.org/2000/svg" xmlns:xlink="http://www.w3.org/1999/xlink" xmlns:a="http://ns.adobe.com/AdobeSVGViewerExtensions/3.0/"
	 x="0px" y="0px" width="900px" height="700px" viewBox="0 0 900 700" overflow="visible" enable-background="new 0 0 900 700"
	 xml:space="preserve">
<defs>
</defs>
<path opacity="0.5" fill="#FFFFFF" enable-background="new    " d="M0,699.716h199.701h-6.887h548.372
	c87.523,0,158.485-87.015,158.485-194.362V194.362C899.671,87.027,828.709,0,741.186,0H199.701c-5.866,0-11.638,0.464-17.334,1.223
	H0V699.716z"/>
<path opacity="0.7" fill="#003366" enable-background="new    " d="M210.707,628.07H177.46h477.796
	c76.332,0,138.227-68.967,138.227-154.043V227.576c0-85.077-61.895-154.045-138.227-154.045L188.091,71.66h-10.63H0v556.41H210.707
	L210.707,628.07z"/>
<polygon fill="#FFFFFF" points="598.207,349.862 399.635,464.493 399.635,530.874 713.171,349.862 399.635,168.855 399.635,235.223 
	"/>
<polygon fill="#FFFFFF" points="284.67,349.862 86.115,464.493 86.115,530.874 399.635,349.862 86.115,168.855 86.115,235.223 "/>
</svg>
